G04 #@! TF.GenerationSoftware,KiCad,Pcbnew,(5.1.9)-1*
G04 #@! TF.CreationDate,2026-04-13T15:19:08+09:00*
G04 #@! TF.ProjectId,MZ-700_SD+NRF,4d5a2d37-3030-45f5-9344-2b4e52462e6b,rev?*
G04 #@! TF.SameCoordinates,PX53920b0PY93c3260*
G04 #@! TF.FileFunction,Soldermask,Bot*
G04 #@! TF.FilePolarity,Negative*
%FSLAX46Y46*%
G04 Gerber Fmt 4.6, Leading zero omitted, Abs format (unit mm)*
G04 Created by KiCad (PCBNEW (5.1.9)-1) date 2026-04-13 15:19:08*
%MOMM*%
%LPD*%
G01*
G04 APERTURE LIST*
%ADD10R,1.700000X1.700000*%
%ADD11O,1.700000X1.700000*%
%ADD12C,1.600000*%
%ADD13R,3.500000X3.500000*%
%ADD14R,1.600000X2.400000*%
%ADD15O,1.600000X2.400000*%
%ADD16C,3.200000*%
%ADD17R,1.600000X1.600000*%
%ADD18O,1.600000X1.600000*%
%ADD19C,4.000000*%
%ADD20C,2.100000*%
%ADD21O,2.300000X3.500000*%
%ADD22O,3.500000X2.300000*%
%ADD23C,2.000000*%
G04 APERTURE END LIST*
D10*
X25000000Y125000000D03*
D11*
X27540000Y125000000D03*
D10*
X52070000Y114730000D03*
D11*
X52070000Y112190000D03*
X52070000Y109650000D03*
X52070000Y107110000D03*
X52070000Y104570000D03*
X52070000Y102030000D03*
X52070000Y99490000D03*
X52070000Y96950000D03*
X52070000Y94410000D03*
X80010000Y94410000D03*
X77470000Y94410000D03*
X80010000Y114730000D03*
X77470000Y114730000D03*
D12*
X15494000Y53436000D03*
X15494000Y55936000D03*
D13*
X39185000Y124860000D03*
G36*
G01*
X38185000Y132360000D02*
X40185000Y132360000D01*
G75*
G02*
X40935000Y131610000I0J-750000D01*
G01*
X40935000Y130110000D01*
G75*
G02*
X40185000Y129360000I-750000J0D01*
G01*
X38185000Y129360000D01*
G75*
G02*
X37435000Y130110000I0J750000D01*
G01*
X37435000Y131610000D01*
G75*
G02*
X38185000Y132360000I750000J0D01*
G01*
G37*
G36*
G01*
X33610000Y129610000D02*
X35360000Y129610000D01*
G75*
G02*
X36235000Y128735000I0J-875000D01*
G01*
X36235000Y126985000D01*
G75*
G02*
X35360000Y126110000I-875000J0D01*
G01*
X33610000Y126110000D01*
G75*
G02*
X32735000Y126985000I0J875000D01*
G01*
X32735000Y128735000D01*
G75*
G02*
X33610000Y129610000I875000J0D01*
G01*
G37*
D10*
X6730000Y108720000D03*
D11*
X4190000Y108720000D03*
X6730000Y106180000D03*
X4190000Y106180000D03*
X6730000Y103640000D03*
X4190000Y103640000D03*
X6730000Y101100000D03*
X4190000Y101100000D03*
X6730000Y98560000D03*
X4190000Y98560000D03*
X6730000Y96020000D03*
X4190000Y96020000D03*
X6730000Y93480000D03*
X4190000Y93480000D03*
X6730000Y90940000D03*
X4190000Y90940000D03*
X6730000Y88400000D03*
X4190000Y88400000D03*
X6730000Y85860000D03*
X4190000Y85860000D03*
X6730000Y83320000D03*
X4190000Y83320000D03*
X6730000Y80780000D03*
X4190000Y80780000D03*
X6730000Y78240000D03*
X4190000Y78240000D03*
X6730000Y75700000D03*
X4190000Y75700000D03*
X6730000Y73160000D03*
X4190000Y73160000D03*
X6730000Y70620000D03*
X4190000Y70620000D03*
X6730000Y68080000D03*
X4190000Y68080000D03*
X6730000Y65540000D03*
X4190000Y65540000D03*
X6730000Y63000000D03*
X4190000Y63000000D03*
X6730000Y60460000D03*
X4190000Y60460000D03*
X6730000Y57920000D03*
X4190000Y57920000D03*
X6730000Y55380000D03*
X4190000Y55380000D03*
X6730000Y52840000D03*
X4190000Y52840000D03*
X6730000Y50300000D03*
X4190000Y50300000D03*
X6730000Y47760000D03*
X4190000Y47760000D03*
D14*
X67564000Y62961000D03*
D15*
X19304000Y47721000D03*
X65024000Y62961000D03*
X21844000Y47721000D03*
X62484000Y62961000D03*
X24384000Y47721000D03*
X59944000Y62961000D03*
X26924000Y47721000D03*
X57404000Y62961000D03*
X29464000Y47721000D03*
X54864000Y62961000D03*
X32004000Y47721000D03*
X52324000Y62961000D03*
X34544000Y47721000D03*
X49784000Y62961000D03*
X37084000Y47721000D03*
X47244000Y62961000D03*
X39624000Y47721000D03*
X44704000Y62961000D03*
X42164000Y47721000D03*
X42164000Y62961000D03*
X44704000Y47721000D03*
X39624000Y62961000D03*
X47244000Y47721000D03*
X37084000Y62961000D03*
X49784000Y47721000D03*
X34544000Y62961000D03*
X52324000Y47721000D03*
X32004000Y62961000D03*
X54864000Y47721000D03*
X29464000Y62961000D03*
X57404000Y47721000D03*
X26924000Y62961000D03*
X59944000Y47721000D03*
X24384000Y62961000D03*
X62484000Y47721000D03*
X21844000Y62961000D03*
X65024000Y47721000D03*
X19304000Y62961000D03*
X67564000Y47721000D03*
D10*
X49911000Y129581000D03*
D11*
X49911000Y132121000D03*
X49911000Y134661000D03*
D16*
X18000000Y140000000D03*
X77000000Y140000000D03*
X77000000Y5000000D03*
X18000000Y5000000D03*
D17*
X57301000Y132121000D03*
D12*
X59801000Y132121000D03*
D17*
X69723000Y88941000D03*
D18*
X67183000Y88941000D03*
X64643000Y88941000D03*
X41783000Y73701000D03*
X62103000Y88941000D03*
X44323000Y73701000D03*
X59563000Y88941000D03*
X46863000Y73701000D03*
X57023000Y88941000D03*
X49403000Y73701000D03*
X54483000Y88941000D03*
X51943000Y73701000D03*
X51943000Y88941000D03*
X54483000Y73701000D03*
X49403000Y88941000D03*
X57023000Y73701000D03*
X46863000Y88941000D03*
X59563000Y73701000D03*
X44323000Y88941000D03*
X62103000Y73701000D03*
X41783000Y88941000D03*
X64643000Y73701000D03*
X67183000Y73701000D03*
X69723000Y73701000D03*
X60833000Y76241000D03*
X58293000Y76241000D03*
X50673000Y76241000D03*
X48133000Y76241000D03*
D12*
X33655000Y86528000D03*
X33655000Y84028000D03*
X33655000Y74463000D03*
X33655000Y71963000D03*
D15*
X30480000Y81448000D03*
X15240000Y89068000D03*
X27940000Y81448000D03*
X17780000Y89068000D03*
X25400000Y81448000D03*
X20320000Y89068000D03*
X22860000Y81448000D03*
X22860000Y89068000D03*
X20320000Y81448000D03*
X25400000Y89068000D03*
X17780000Y81448000D03*
X27940000Y89068000D03*
X15240000Y81448000D03*
D14*
X30480000Y89068000D03*
X30480000Y77003000D03*
D15*
X15240000Y69383000D03*
X27940000Y77003000D03*
X17780000Y69383000D03*
X25400000Y77003000D03*
X20320000Y69383000D03*
X22860000Y77003000D03*
X22860000Y69383000D03*
X20320000Y77003000D03*
X25400000Y69383000D03*
X17780000Y77003000D03*
X27940000Y69383000D03*
X15240000Y77003000D03*
X30480000Y69383000D03*
D10*
X43990000Y110905000D03*
D11*
X43990000Y108365000D03*
X43990000Y105825000D03*
X43990000Y103285000D03*
X43990000Y100745000D03*
X43990000Y98205000D03*
D17*
X6985000Y11303000D03*
D12*
X6985000Y13593000D03*
X6985000Y15883000D03*
X6985000Y18173000D03*
X6985000Y20463000D03*
X5005000Y10158000D03*
X5005000Y12448000D03*
X5005000Y14738000D03*
X5005000Y17028000D03*
X5005000Y19318000D03*
X3025000Y11303000D03*
X3025000Y13593000D03*
X3025000Y15883000D03*
X3025000Y18173000D03*
X3025000Y20463000D03*
D19*
X4935000Y28118000D03*
X4935000Y3118000D03*
D12*
X19812000Y11303000D03*
D18*
X19812000Y18923000D03*
X13208000Y23495000D03*
D12*
X13208000Y15875000D03*
X16510000Y13589000D03*
D18*
X16510000Y21209000D03*
D11*
X31750000Y38680000D03*
X31750000Y41220000D03*
X34290000Y38680000D03*
X34290000Y41220000D03*
X36830000Y38680000D03*
X36830000Y41220000D03*
X39370000Y38680000D03*
X39370000Y41220000D03*
X41910000Y38680000D03*
X41910000Y41220000D03*
X44450000Y38680000D03*
X44450000Y41220000D03*
X46990000Y38680000D03*
X46990000Y41220000D03*
X49530000Y38680000D03*
X49530000Y41220000D03*
X52070000Y38680000D03*
X52070000Y41220000D03*
X54610000Y38680000D03*
X54610000Y41220000D03*
X57150000Y38680000D03*
X57150000Y41220000D03*
X59690000Y38680000D03*
X59690000Y41220000D03*
X62230000Y38680000D03*
X62230000Y41220000D03*
X64770000Y38680000D03*
X64770000Y41220000D03*
X67310000Y38680000D03*
D10*
X67310000Y41220000D03*
X67310000Y5660000D03*
D11*
X67310000Y3120000D03*
X64770000Y5660000D03*
X64770000Y3120000D03*
X62230000Y5660000D03*
X62230000Y3120000D03*
X59690000Y5660000D03*
X59690000Y3120000D03*
X57150000Y5660000D03*
X57150000Y3120000D03*
X54610000Y5660000D03*
X54610000Y3120000D03*
X52070000Y5660000D03*
X52070000Y3120000D03*
X49530000Y5660000D03*
X49530000Y3120000D03*
X46990000Y5660000D03*
X46990000Y3120000D03*
X44450000Y5660000D03*
X44450000Y3120000D03*
X41910000Y5660000D03*
X41910000Y3120000D03*
X39370000Y5660000D03*
X39370000Y3120000D03*
X36830000Y5660000D03*
X36830000Y3120000D03*
X34290000Y5660000D03*
X34290000Y3120000D03*
X31750000Y5660000D03*
X31750000Y3120000D03*
D12*
X20080000Y104668000D03*
X20080000Y102168000D03*
D20*
X1850000Y134750000D03*
D21*
X5000000Y139000000D03*
D22*
X9500000Y139000000D03*
D20*
X1850000Y143250000D03*
D12*
X24525000Y109748000D03*
D18*
X24525000Y102128000D03*
D23*
X71025000Y121025000D03*
X66525000Y121025000D03*
X71025000Y127525000D03*
X66525000Y127525000D03*
X66525000Y138075000D03*
X71025000Y138075000D03*
X66525000Y131575000D03*
X71025000Y131575000D03*
M02*
