M48
; DRILL file {KiCad (5.1.9)-1} date 04/17/26 23:07:27
; FORMAT={-:-/ absolute / metric / decimal}
; #@! TF.CreationDate,2026-04-17T23:07:27+09:00
; #@! TF.GenerationSoftware,Kicad,Pcbnew,(5.1.9)-1
FMAT,2
METRIC
T1C0.300
T2C0.800
T3C1.000
T4C1.100
T5C1.200
T6C3.200
T7C2.100
T8C3.200
%
G90
G05
T1
X11.808Y47.09
X13.646Y95.7
X13.646Y80.051
X14.122Y76.583
X14.697Y79.136
X17.0Y125.5
X21.313Y54.227
X22.94Y46.381
X23.098Y36.653
X25.563Y83.09
X26.809Y53.96
X27.58Y85.469
X32.416Y82.489
X33.008Y45.916
X33.677Y57.33
X35.231Y55.835
X35.916Y9.258
X36.011Y55.275
X37.7Y11.088
X37.717Y90.967
X38.259Y65.872
X38.714Y52.502
X39.206Y51.969
X41.56Y52.731
X44.209Y50.873
X45.806Y64.293
T2
X5.043Y126.929
X5.043Y124.429
X9.488Y129.509
X9.488Y121.889
X13.208Y23.495
X13.208Y15.875
X15.494Y55.936
X15.494Y53.436
X16.51Y21.209
X16.51Y13.589
X18.882Y111.665
X18.882Y109.125
X18.882Y106.585
X18.882Y104.045
X18.882Y101.505
X18.882Y98.965
X18.882Y96.425
X18.882Y86.9
X18.882Y84.36
X18.882Y81.82
X18.882Y79.28
X18.882Y76.74
X18.882Y74.2
X18.882Y71.66
X19.304Y62.961
X19.304Y47.721
X19.812Y18.923
X19.812Y11.303
X21.422Y114.84
X21.422Y90.075
X21.844Y62.961
X21.844Y47.721
X23.922Y114.84
X23.922Y90.075
X24.384Y62.961
X24.384Y47.721
X26.502Y111.665
X26.502Y109.125
X26.502Y106.585
X26.502Y104.045
X26.502Y101.505
X26.502Y98.965
X26.502Y96.425
X26.502Y86.9
X26.502Y84.36
X26.502Y81.82
X26.502Y79.28
X26.502Y76.74
X26.502Y74.2
X26.502Y71.66
X26.924Y62.961
X26.924Y47.721
X29.464Y62.961
X29.464Y47.721
X32.004Y62.961
X32.004Y47.721
X34.544Y62.961
X34.544Y47.721
X36.783Y88.941
X36.783Y73.701
X37.084Y62.961
X37.084Y47.721
X39.323Y88.941
X39.323Y73.701
X39.624Y62.961
X39.624Y47.721
X41.863Y88.941
X41.863Y73.701
X42.164Y62.961
X42.164Y47.721
X43.133Y76.241
X44.403Y88.941
X44.403Y73.701
X44.704Y62.961
X44.704Y47.721
X45.673Y76.241
X46.943Y88.941
X46.943Y73.701
X47.244Y62.961
X47.244Y47.721
X49.483Y88.941
X49.483Y73.701
X49.784Y62.961
X49.784Y47.721
X52.023Y88.941
X52.023Y73.701
X52.324Y62.961
X52.324Y47.721
X53.293Y76.241
X53.301Y132.121
X54.563Y88.941
X54.563Y73.701
X54.864Y62.961
X54.864Y47.721
X55.801Y132.121
X55.833Y76.241
X57.103Y88.941
X57.103Y73.701
X57.404Y62.961
X57.404Y47.721
X59.643Y88.941
X59.643Y73.701
X59.944Y62.961
X59.944Y47.721
X62.183Y88.941
X62.183Y73.701
X62.484Y62.961
X62.484Y47.721
X64.723Y88.941
X64.723Y73.701
X65.024Y62.961
X65.024Y47.721
X67.564Y62.961
X67.564Y47.721
T3
X3.025Y20.463
X3.025Y18.173
X3.025Y15.883
X3.025Y13.593
X3.025Y11.303
X4.19Y108.72
X4.19Y106.18
X4.19Y103.64
X4.19Y101.1
X4.19Y98.56
X4.19Y96.02
X4.19Y93.48
X4.19Y90.94
X4.19Y88.4
X4.19Y85.86
X4.19Y83.32
X4.19Y80.78
X4.19Y78.24
X4.19Y75.7
X4.19Y73.16
X4.19Y70.62
X4.19Y68.08
X4.19Y65.54
X4.19Y63.0
X4.19Y60.46
X4.19Y57.92
X4.19Y55.38
X4.19Y52.84
X4.19Y50.3
X4.19Y47.76
X5.005Y19.318
X5.005Y17.028
X5.005Y14.738
X5.005Y12.448
X5.005Y10.158
X6.73Y108.72
X6.73Y106.18
X6.73Y103.64
X6.73Y101.1
X6.73Y98.56
X6.73Y96.02
X6.73Y93.48
X6.73Y90.94
X6.73Y88.4
X6.73Y85.86
X6.73Y83.32
X6.73Y80.78
X6.73Y78.24
X6.73Y75.7
X6.73Y73.16
X6.73Y70.62
X6.73Y68.08
X6.73Y65.54
X6.73Y63.0
X6.73Y60.46
X6.73Y57.92
X6.73Y55.38
X6.73Y52.84
X6.73Y50.3
X6.73Y47.76
X6.985Y20.463
X6.985Y18.173
X6.985Y15.883
X6.985Y13.593
X6.985Y11.303
X25.0Y125.0
X27.54Y125.0
X28.75Y41.22
X28.75Y38.68
X28.75Y5.66
X28.75Y3.12
X31.29Y41.22
X31.29Y38.68
X31.29Y5.66
X31.29Y3.12
X33.83Y41.22
X33.83Y38.68
X33.83Y5.66
X33.83Y3.12
X36.37Y41.22
X36.37Y38.68
X36.37Y5.66
X36.37Y3.12
X38.91Y41.22
X38.91Y38.68
X38.91Y5.66
X38.91Y3.12
X38.99Y110.905
X38.99Y108.365
X38.99Y105.825
X38.99Y103.285
X38.99Y100.745
X38.99Y98.205
X41.45Y41.22
X41.45Y38.68
X41.45Y5.66
X41.45Y3.12
X43.99Y41.22
X43.99Y38.68
X43.99Y5.66
X43.99Y3.12
X46.53Y41.22
X46.53Y38.68
X46.53Y5.66
X46.53Y3.12
X46.911Y134.661
X46.911Y132.121
X46.911Y129.581
X47.07Y114.73
X47.07Y112.19
X47.07Y109.65
X47.07Y107.11
X47.07Y104.57
X47.07Y102.03
X47.07Y99.49
X47.07Y96.95
X47.07Y94.41
X49.07Y41.22
X49.07Y38.68
X49.07Y5.66
X49.07Y3.12
X51.61Y41.22
X51.61Y38.68
X51.61Y5.66
X51.61Y3.12
X54.15Y41.22
X54.15Y38.68
X54.15Y5.66
X54.15Y3.12
X56.69Y41.22
X56.69Y38.68
X56.69Y5.66
X56.69Y3.12
X59.23Y41.22
X59.23Y38.68
X59.23Y5.66
X59.23Y3.12
X61.77Y41.22
X61.77Y38.68
X61.77Y5.66
X61.77Y3.12
X64.31Y41.22
X64.31Y38.68
X64.31Y5.66
X64.31Y3.12
X72.47Y114.73
X72.47Y94.41
X75.01Y114.73
X75.01Y94.41
T4
X61.525Y138.075
X61.525Y131.575
X61.525Y127.525
X61.525Y121.025
X66.025Y138.075
X66.025Y131.575
X66.025Y127.525
X66.025Y121.025
T6
X4.935Y28.118
X4.935Y3.118
T7
X1.85Y143.25
X1.85Y134.75
T8
X18.0Y140.0
X18.0Y5.0
X72.0Y140.0
X72.0Y5.0
T3
G00X32.485Y125.92
M15
G01X32.485Y123.92
M16
G05
G00X38.185Y127.92
M15
G01X36.185Y127.92
M16
G05
G00X38.185Y121.92
M15
G01X36.185Y121.92
M16
G05
T5
G00X5.0Y138.25
M15
G01X5.0Y139.75
M16
G05
G00X10.25Y139.0
M15
G01X8.75Y139.0
M16
G05
T0
M30
