G04 #@! TF.GenerationSoftware,KiCad,Pcbnew,(5.1.9)-1*
G04 #@! TF.CreationDate,2026-04-17T23:07:25+09:00*
G04 #@! TF.ProjectId,MZ-700_SD+NRF,4d5a2d37-3030-45f5-9344-2b4e52462e6b,rev?*
G04 #@! TF.SameCoordinates,PX53920b0PY93c3260*
G04 #@! TF.FileFunction,Legend,Top*
G04 #@! TF.FilePolarity,Positive*
%FSLAX46Y46*%
G04 Gerber Fmt 4.6, Leading zero omitted, Abs format (unit mm)*
G04 Created by KiCad (PCBNEW (5.1.9)-1) date 2026-04-17 23:07:25*
%MOMM*%
%LPD*%
G01*
G04 APERTURE LIST*
%ADD10C,0.150000*%
%ADD11C,0.500000*%
%ADD12C,0.120000*%
G04 APERTURE END LIST*
D10*
X12544152Y125119820D02*
X11972723Y125119820D01*
X12258438Y125119820D02*
X12258438Y126119820D01*
X12163200Y125976962D01*
X12067961Y125881724D01*
X11972723Y125834105D01*
X12972723Y125119820D02*
X12972723Y126119820D01*
X13067961Y125500772D02*
X13353676Y125119820D01*
X13353676Y125786486D02*
X12972723Y125405534D01*
X3126052Y122696220D02*
X3221290Y122696220D01*
X3316528Y122648600D01*
X3364147Y122600981D01*
X3411766Y122505743D01*
X3459385Y122315267D01*
X3459385Y122077172D01*
X3411766Y121886696D01*
X3364147Y121791458D01*
X3316528Y121743839D01*
X3221290Y121696220D01*
X3126052Y121696220D01*
X3030814Y121743839D01*
X2983195Y121791458D01*
X2935576Y121886696D01*
X2887957Y122077172D01*
X2887957Y122315267D01*
X2935576Y122505743D01*
X2983195Y122600981D01*
X3030814Y122648600D01*
X3126052Y122696220D01*
X3887957Y121791458D02*
X3935576Y121743839D01*
X3887957Y121696220D01*
X3840338Y121743839D01*
X3887957Y121791458D01*
X3887957Y121696220D01*
X4554623Y122696220D02*
X4649861Y122696220D01*
X4745100Y122648600D01*
X4792719Y122600981D01*
X4840338Y122505743D01*
X4887957Y122315267D01*
X4887957Y122077172D01*
X4840338Y121886696D01*
X4792719Y121791458D01*
X4745100Y121743839D01*
X4649861Y121696220D01*
X4554623Y121696220D01*
X4459385Y121743839D01*
X4411766Y121791458D01*
X4364147Y121886696D01*
X4316528Y122077172D01*
X4316528Y122315267D01*
X4364147Y122505743D01*
X4411766Y122600981D01*
X4459385Y122648600D01*
X4554623Y122696220D01*
X5840338Y121696220D02*
X5268909Y121696220D01*
X5554623Y121696220D02*
X5554623Y122696220D01*
X5459385Y122553362D01*
X5364147Y122458124D01*
X5268909Y122410505D01*
X6697480Y122362886D02*
X6697480Y121696220D01*
X6268909Y122362886D02*
X6268909Y121839077D01*
X6316528Y121743839D01*
X6411766Y121696220D01*
X6554623Y121696220D01*
X6649861Y121743839D01*
X6697480Y121791458D01*
X7507004Y122220029D02*
X7173671Y122220029D01*
X7173671Y121696220D02*
X7173671Y122696220D01*
X7649861Y122696220D01*
X19264380Y20736286D02*
X19264380Y21355334D01*
X19645333Y21022000D01*
X19645333Y21164858D01*
X19692952Y21260096D01*
X19740571Y21307715D01*
X19835809Y21355334D01*
X20073904Y21355334D01*
X20169142Y21307715D01*
X20216761Y21260096D01*
X20264380Y21164858D01*
X20264380Y20879143D01*
X20216761Y20783905D01*
X20169142Y20736286D01*
X19264380Y21688667D02*
X19264380Y22307715D01*
X19645333Y21974381D01*
X19645333Y22117239D01*
X19692952Y22212477D01*
X19740571Y22260096D01*
X19835809Y22307715D01*
X20073904Y22307715D01*
X20169142Y22260096D01*
X20216761Y22212477D01*
X20264380Y22117239D01*
X20264380Y21831524D01*
X20216761Y21736286D01*
X20169142Y21688667D01*
X19264380Y22926762D02*
X19264380Y23022000D01*
X19312000Y23117239D01*
X19359619Y23164858D01*
X19454857Y23212477D01*
X19645333Y23260096D01*
X19883428Y23260096D01*
X20073904Y23212477D01*
X20169142Y23164858D01*
X20216761Y23117239D01*
X20264380Y23022000D01*
X20264380Y22926762D01*
X20216761Y22831524D01*
X20169142Y22783905D01*
X20073904Y22736286D01*
X19883428Y22688667D01*
X19645333Y22688667D01*
X19454857Y22736286D01*
X19359619Y22783905D01*
X19312000Y22831524D01*
X19264380Y22926762D01*
X16034380Y23236286D02*
X16034380Y23855334D01*
X16415333Y23522000D01*
X16415333Y23664858D01*
X16462952Y23760096D01*
X16510571Y23807715D01*
X16605809Y23855334D01*
X16843904Y23855334D01*
X16939142Y23807715D01*
X16986761Y23760096D01*
X17034380Y23664858D01*
X17034380Y23379143D01*
X16986761Y23283905D01*
X16939142Y23236286D01*
X16034380Y24188667D02*
X16034380Y24807715D01*
X16415333Y24474381D01*
X16415333Y24617239D01*
X16462952Y24712477D01*
X16510571Y24760096D01*
X16605809Y24807715D01*
X16843904Y24807715D01*
X16939142Y24760096D01*
X16986761Y24712477D01*
X17034380Y24617239D01*
X17034380Y24331524D01*
X16986761Y24236286D01*
X16939142Y24188667D01*
X16034380Y25426762D02*
X16034380Y25522000D01*
X16082000Y25617239D01*
X16129619Y25664858D01*
X16224857Y25712477D01*
X16415333Y25760096D01*
X16653428Y25760096D01*
X16843904Y25712477D01*
X16939142Y25664858D01*
X16986761Y25617239D01*
X17034380Y25522000D01*
X17034380Y25426762D01*
X16986761Y25331524D01*
X16939142Y25283905D01*
X16843904Y25236286D01*
X16653428Y25188667D01*
X16415333Y25188667D01*
X16224857Y25236286D01*
X16129619Y25283905D01*
X16082000Y25331524D01*
X16034380Y25426762D01*
X12804380Y25736286D02*
X12804380Y26355334D01*
X13185333Y26022000D01*
X13185333Y26164858D01*
X13232952Y26260096D01*
X13280571Y26307715D01*
X13375809Y26355334D01*
X13613904Y26355334D01*
X13709142Y26307715D01*
X13756761Y26260096D01*
X13804380Y26164858D01*
X13804380Y25879143D01*
X13756761Y25783905D01*
X13709142Y25736286D01*
X12804380Y26688667D02*
X12804380Y27307715D01*
X13185333Y26974381D01*
X13185333Y27117239D01*
X13232952Y27212477D01*
X13280571Y27260096D01*
X13375809Y27307715D01*
X13613904Y27307715D01*
X13709142Y27260096D01*
X13756761Y27212477D01*
X13804380Y27117239D01*
X13804380Y26831524D01*
X13756761Y26736286D01*
X13709142Y26688667D01*
X12804380Y27926762D02*
X12804380Y28022000D01*
X12852000Y28117239D01*
X12899619Y28164858D01*
X12994857Y28212477D01*
X13185333Y28260096D01*
X13423428Y28260096D01*
X13613904Y28212477D01*
X13709142Y28164858D01*
X13756761Y28117239D01*
X13804380Y28022000D01*
X13804380Y27926762D01*
X13756761Y27831524D01*
X13709142Y27783905D01*
X13613904Y27736286D01*
X13423428Y27688667D01*
X13185333Y27688667D01*
X12994857Y27736286D01*
X12899619Y27783905D01*
X12852000Y27831524D01*
X12804380Y27926762D01*
X69588380Y22931762D02*
X69112190Y22598429D01*
X69588380Y22360334D02*
X68588380Y22360334D01*
X68588380Y22741286D01*
X68636000Y22836524D01*
X68683619Y22884143D01*
X68778857Y22931762D01*
X68921714Y22931762D01*
X69016952Y22884143D01*
X69064571Y22836524D01*
X69112190Y22741286D01*
X69112190Y22360334D01*
X69588380Y23360334D02*
X68588380Y23360334D01*
X68588380Y23741286D01*
X68636000Y23836524D01*
X68683619Y23884143D01*
X68778857Y23931762D01*
X68921714Y23931762D01*
X69016952Y23884143D01*
X69064571Y23836524D01*
X69112190Y23741286D01*
X69112190Y23360334D01*
X68683619Y24312715D02*
X68636000Y24360334D01*
X68588380Y24455572D01*
X68588380Y24693667D01*
X68636000Y24788905D01*
X68683619Y24836524D01*
X68778857Y24884143D01*
X68874095Y24884143D01*
X69016952Y24836524D01*
X69588380Y24265096D01*
X69588380Y24884143D01*
X68588380Y25217477D02*
X68588380Y25836524D01*
X68969333Y25503191D01*
X68969333Y25646048D01*
X69016952Y25741286D01*
X69064571Y25788905D01*
X69159809Y25836524D01*
X69397904Y25836524D01*
X69493142Y25788905D01*
X69540761Y25741286D01*
X69588380Y25646048D01*
X69588380Y25360334D01*
X69540761Y25265096D01*
X69493142Y25217477D01*
X68588380Y26741286D02*
X68588380Y26265096D01*
X69064571Y26217477D01*
X69016952Y26265096D01*
X68969333Y26360334D01*
X68969333Y26598429D01*
X69016952Y26693667D01*
X69064571Y26741286D01*
X69159809Y26788905D01*
X69397904Y26788905D01*
X69493142Y26741286D01*
X69540761Y26693667D01*
X69588380Y26598429D01*
X69588380Y26360334D01*
X69540761Y26265096D01*
X69493142Y26217477D01*
X68588380Y27407953D02*
X68588380Y27503191D01*
X68636000Y27598429D01*
X68683619Y27646048D01*
X68778857Y27693667D01*
X68969333Y27741286D01*
X69207428Y27741286D01*
X69397904Y27693667D01*
X69493142Y27646048D01*
X69540761Y27598429D01*
X69588380Y27503191D01*
X69588380Y27407953D01*
X69540761Y27312715D01*
X69493142Y27265096D01*
X69397904Y27217477D01*
X69207428Y27169858D01*
X68969333Y27169858D01*
X68778857Y27217477D01*
X68683619Y27265096D01*
X68636000Y27312715D01*
X68588380Y27407953D01*
X69064571Y28503191D02*
X69112190Y28646048D01*
X69159809Y28693667D01*
X69255047Y28741286D01*
X69397904Y28741286D01*
X69493142Y28693667D01*
X69540761Y28646048D01*
X69588380Y28550810D01*
X69588380Y28169858D01*
X68588380Y28169858D01*
X68588380Y28503191D01*
X68636000Y28598429D01*
X68683619Y28646048D01*
X68778857Y28693667D01*
X68874095Y28693667D01*
X68969333Y28646048D01*
X69016952Y28598429D01*
X69064571Y28503191D01*
X69064571Y28169858D01*
X66452380Y41309524D02*
X66452380Y40833334D01*
X66928571Y40785715D01*
X66880952Y40833334D01*
X66833333Y40928572D01*
X66833333Y41166667D01*
X66880952Y41261905D01*
X66928571Y41309524D01*
X67023809Y41357143D01*
X67261904Y41357143D01*
X67357142Y41309524D01*
X67404761Y41261905D01*
X67452380Y41166667D01*
X67452380Y40928572D01*
X67404761Y40833334D01*
X67357142Y40785715D01*
X66452380Y41642858D02*
X67452380Y41976191D01*
X66452380Y42309524D01*
X66500000Y1238096D02*
X66452380Y1142858D01*
X66452380Y1000000D01*
X66500000Y857143D01*
X66595238Y761905D01*
X66690476Y714286D01*
X66880952Y666667D01*
X67023809Y666667D01*
X67214285Y714286D01*
X67309523Y761905D01*
X67404761Y857143D01*
X67452380Y1000000D01*
X67452380Y1095239D01*
X67404761Y1238096D01*
X67357142Y1285715D01*
X67023809Y1285715D01*
X67023809Y1095239D01*
X67452380Y1714286D02*
X66452380Y1714286D01*
X67452380Y2285715D01*
X66452380Y2285715D01*
X67452380Y2761905D02*
X66452380Y2761905D01*
X66452380Y3000000D01*
X66500000Y3142858D01*
X66595238Y3238096D01*
X66690476Y3285715D01*
X66880952Y3333334D01*
X67023809Y3333334D01*
X67214285Y3285715D01*
X67309523Y3238096D01*
X67404761Y3142858D01*
X67452380Y3000000D01*
X67452380Y2761905D01*
X42442380Y96546191D02*
X41442380Y96546191D01*
X42156666Y96879524D01*
X41442380Y97212858D01*
X42442380Y97212858D01*
X42442380Y97689048D02*
X41775714Y97689048D01*
X41442380Y97689048D02*
X41490000Y97641429D01*
X41537619Y97689048D01*
X41490000Y97736667D01*
X41442380Y97689048D01*
X41537619Y97689048D01*
X42394761Y98593810D02*
X42442380Y98498572D01*
X42442380Y98308096D01*
X42394761Y98212858D01*
X42347142Y98165239D01*
X42251904Y98117620D01*
X41966190Y98117620D01*
X41870952Y98165239D01*
X41823333Y98212858D01*
X41775714Y98308096D01*
X41775714Y98498572D01*
X41823333Y98593810D01*
X42442380Y99022381D02*
X41775714Y99022381D01*
X41966190Y99022381D02*
X41870952Y99070000D01*
X41823333Y99117620D01*
X41775714Y99212858D01*
X41775714Y99308096D01*
X42442380Y99784286D02*
X42394761Y99689048D01*
X42347142Y99641429D01*
X42251904Y99593810D01*
X41966190Y99593810D01*
X41870952Y99641429D01*
X41823333Y99689048D01*
X41775714Y99784286D01*
X41775714Y99927143D01*
X41823333Y100022381D01*
X41870952Y100070000D01*
X41966190Y100117620D01*
X42251904Y100117620D01*
X42347142Y100070000D01*
X42394761Y100022381D01*
X42442380Y99927143D01*
X42442380Y99784286D01*
X42394761Y100498572D02*
X42442380Y100641429D01*
X42442380Y100879524D01*
X42394761Y100974762D01*
X42347142Y101022381D01*
X42251904Y101070000D01*
X42156666Y101070000D01*
X42061428Y101022381D01*
X42013809Y100974762D01*
X41966190Y100879524D01*
X41918571Y100689048D01*
X41870952Y100593810D01*
X41823333Y100546191D01*
X41728095Y100498572D01*
X41632857Y100498572D01*
X41537619Y100546191D01*
X41490000Y100593810D01*
X41442380Y100689048D01*
X41442380Y100927143D01*
X41490000Y101070000D01*
X42442380Y101498572D02*
X41442380Y101498572D01*
X41442380Y101736667D01*
X41490000Y101879524D01*
X41585238Y101974762D01*
X41680476Y102022381D01*
X41870952Y102070000D01*
X42013809Y102070000D01*
X42204285Y102022381D01*
X42299523Y101974762D01*
X42394761Y101879524D01*
X42442380Y101736667D01*
X42442380Y101498572D01*
X42347142Y103831905D02*
X42394761Y103784286D01*
X42442380Y103641429D01*
X42442380Y103546191D01*
X42394761Y103403334D01*
X42299523Y103308096D01*
X42204285Y103260477D01*
X42013809Y103212858D01*
X41870952Y103212858D01*
X41680476Y103260477D01*
X41585238Y103308096D01*
X41490000Y103403334D01*
X41442380Y103546191D01*
X41442380Y103641429D01*
X41490000Y103784286D01*
X41537619Y103831905D01*
X42442380Y104689048D02*
X41918571Y104689048D01*
X41823333Y104641429D01*
X41775714Y104546191D01*
X41775714Y104355715D01*
X41823333Y104260477D01*
X42394761Y104689048D02*
X42442380Y104593810D01*
X42442380Y104355715D01*
X42394761Y104260477D01*
X42299523Y104212858D01*
X42204285Y104212858D01*
X42109047Y104260477D01*
X42061428Y104355715D01*
X42061428Y104593810D01*
X42013809Y104689048D01*
X42442380Y105165239D02*
X41775714Y105165239D01*
X41966190Y105165239D02*
X41870952Y105212858D01*
X41823333Y105260477D01*
X41775714Y105355715D01*
X41775714Y105450953D01*
X42442380Y106212858D02*
X41442380Y106212858D01*
X42394761Y106212858D02*
X42442380Y106117620D01*
X42442380Y105927143D01*
X42394761Y105831905D01*
X42347142Y105784286D01*
X42251904Y105736667D01*
X41966190Y105736667D01*
X41870952Y105784286D01*
X41823333Y105831905D01*
X41775714Y105927143D01*
X41775714Y106117620D01*
X41823333Y106212858D01*
X42156666Y107403334D02*
X42156666Y107879524D01*
X42442380Y107308096D02*
X41442380Y107641429D01*
X42442380Y107974762D01*
X42442380Y108736667D02*
X41442380Y108736667D01*
X42394761Y108736667D02*
X42442380Y108641429D01*
X42442380Y108450953D01*
X42394761Y108355715D01*
X42347142Y108308096D01*
X42251904Y108260477D01*
X41966190Y108260477D01*
X41870952Y108308096D01*
X41823333Y108355715D01*
X41775714Y108450953D01*
X41775714Y108641429D01*
X41823333Y108736667D01*
X42442380Y109641429D02*
X41918571Y109641429D01*
X41823333Y109593810D01*
X41775714Y109498572D01*
X41775714Y109308096D01*
X41823333Y109212858D01*
X42394761Y109641429D02*
X42442380Y109546191D01*
X42442380Y109308096D01*
X42394761Y109212858D01*
X42299523Y109165239D01*
X42204285Y109165239D01*
X42109047Y109212858D01*
X42061428Y109308096D01*
X42061428Y109546191D01*
X42013809Y109641429D01*
X41775714Y110117620D02*
X42775714Y110117620D01*
X41823333Y110117620D02*
X41775714Y110212858D01*
X41775714Y110403334D01*
X41823333Y110498572D01*
X41870952Y110546191D01*
X41966190Y110593810D01*
X42251904Y110593810D01*
X42347142Y110546191D01*
X42394761Y110498572D01*
X42442380Y110403334D01*
X42442380Y110212858D01*
X42394761Y110117620D01*
X41775714Y110879524D02*
X41775714Y111260477D01*
X41442380Y111022381D02*
X42299523Y111022381D01*
X42394761Y111070000D01*
X42442380Y111165239D01*
X42442380Y111260477D01*
X42394761Y111974762D02*
X42442380Y111879524D01*
X42442380Y111689048D01*
X42394761Y111593810D01*
X42299523Y111546191D01*
X41918571Y111546191D01*
X41823333Y111593810D01*
X41775714Y111689048D01*
X41775714Y111879524D01*
X41823333Y111974762D01*
X41918571Y112022381D01*
X42013809Y112022381D01*
X42109047Y111546191D01*
X42442380Y112450953D02*
X41775714Y112450953D01*
X41966190Y112450953D02*
X41870952Y112498572D01*
X41823333Y112546191D01*
X41775714Y112641429D01*
X41775714Y112736667D01*
X49628095Y107605000D02*
X49532857Y107652620D01*
X49390000Y107652620D01*
X49247142Y107605000D01*
X49151904Y107509762D01*
X49104285Y107414524D01*
X49056666Y107224048D01*
X49056666Y107081191D01*
X49104285Y106890715D01*
X49151904Y106795477D01*
X49247142Y106700239D01*
X49390000Y106652620D01*
X49485238Y106652620D01*
X49628095Y106700239D01*
X49675714Y106747858D01*
X49675714Y107081191D01*
X49485238Y107081191D01*
X50104285Y106652620D02*
X50104285Y107652620D01*
X50675714Y106652620D01*
X50675714Y107652620D01*
X51151904Y106652620D02*
X51151904Y107652620D01*
X51390000Y107652620D01*
X51532857Y107605000D01*
X51628095Y107509762D01*
X51675714Y107414524D01*
X51723333Y107224048D01*
X51723333Y107081191D01*
X51675714Y106890715D01*
X51628095Y106795477D01*
X51532857Y106700239D01*
X51390000Y106652620D01*
X51151904Y106652620D01*
X49304285Y114633572D02*
X50066190Y114633572D01*
X49685238Y114252620D02*
X49685238Y115014524D01*
X51018571Y115252620D02*
X50542380Y115252620D01*
X50494761Y114776429D01*
X50542380Y114824048D01*
X50637619Y114871667D01*
X50875714Y114871667D01*
X50970952Y114824048D01*
X51018571Y114776429D01*
X51066190Y114681191D01*
X51066190Y114443096D01*
X51018571Y114347858D01*
X50970952Y114300239D01*
X50875714Y114252620D01*
X50637619Y114252620D01*
X50542380Y114300239D01*
X50494761Y114347858D01*
X51351904Y115252620D02*
X51685238Y114252620D01*
X52018571Y115252620D01*
X49118571Y101552620D02*
X49118571Y102552620D01*
X49356666Y102552620D01*
X49499523Y102505000D01*
X49594761Y102409762D01*
X49642380Y102314524D01*
X49690000Y102124048D01*
X49690000Y101981191D01*
X49642380Y101790715D01*
X49594761Y101695477D01*
X49499523Y101600239D01*
X49356666Y101552620D01*
X49118571Y101552620D01*
X50070952Y101838334D02*
X50547142Y101838334D01*
X49975714Y101552620D02*
X50309047Y102552620D01*
X50642380Y101552620D01*
X50832857Y102552620D02*
X51404285Y102552620D01*
X51118571Y101552620D02*
X51118571Y102552620D01*
X49728095Y99147858D02*
X49680476Y99100239D01*
X49537619Y99052620D01*
X49442380Y99052620D01*
X49299523Y99100239D01*
X49204285Y99195477D01*
X49156666Y99290715D01*
X49109047Y99481191D01*
X49109047Y99624048D01*
X49156666Y99814524D01*
X49204285Y99909762D01*
X49299523Y100005000D01*
X49442380Y100052620D01*
X49537619Y100052620D01*
X49680476Y100005000D01*
X49728095Y99957381D01*
X50156666Y99052620D02*
X50156666Y100052620D01*
X50490000Y99338334D01*
X50823333Y100052620D01*
X50823333Y99052620D01*
X51299523Y99052620D02*
X51299523Y100052620D01*
X51537619Y100052620D01*
X51680476Y100005000D01*
X51775714Y99909762D01*
X51823333Y99814524D01*
X51870952Y99624048D01*
X51870952Y99481191D01*
X51823333Y99290715D01*
X51775714Y99195477D01*
X51680476Y99100239D01*
X51537619Y99052620D01*
X51299523Y99052620D01*
X49794761Y104147858D02*
X49747142Y104100239D01*
X49604285Y104052620D01*
X49509047Y104052620D01*
X49366190Y104100239D01*
X49270952Y104195477D01*
X49223333Y104290715D01*
X49175714Y104481191D01*
X49175714Y104624048D01*
X49223333Y104814524D01*
X49270952Y104909762D01*
X49366190Y105005000D01*
X49509047Y105052620D01*
X49604285Y105052620D01*
X49747142Y105005000D01*
X49794761Y104957381D01*
X50699523Y104052620D02*
X50223333Y104052620D01*
X50223333Y105052620D01*
X51032857Y104052620D02*
X51032857Y105052620D01*
X51604285Y104052620D02*
X51175714Y104624048D01*
X51604285Y105052620D02*
X51032857Y104481191D01*
X49013809Y97820000D02*
X50013809Y97820000D01*
X49823333Y96547858D02*
X49775714Y96500239D01*
X49632857Y96452620D01*
X49537619Y96452620D01*
X49394761Y96500239D01*
X49299523Y96595477D01*
X49251904Y96690715D01*
X49204285Y96881191D01*
X49204285Y97024048D01*
X49251904Y97214524D01*
X49299523Y97309762D01*
X49394761Y97405000D01*
X49537619Y97452620D01*
X49632857Y97452620D01*
X49775714Y97405000D01*
X49823333Y97357381D01*
X50013809Y97820000D02*
X50966190Y97820000D01*
X50204285Y96500239D02*
X50347142Y96452620D01*
X50585238Y96452620D01*
X50680476Y96500239D01*
X50728095Y96547858D01*
X50775714Y96643096D01*
X50775714Y96738334D01*
X50728095Y96833572D01*
X50680476Y96881191D01*
X50585238Y96928810D01*
X50394761Y96976429D01*
X50299523Y97024048D01*
X50251904Y97071667D01*
X50204285Y97166905D01*
X50204285Y97262143D01*
X50251904Y97357381D01*
X50299523Y97405000D01*
X50394761Y97452620D01*
X50632857Y97452620D01*
X50775714Y97405000D01*
X34928095Y111405000D02*
X34832857Y111452620D01*
X34690000Y111452620D01*
X34547142Y111405000D01*
X34451904Y111309762D01*
X34404285Y111214524D01*
X34356666Y111024048D01*
X34356666Y110881191D01*
X34404285Y110690715D01*
X34451904Y110595477D01*
X34547142Y110500239D01*
X34690000Y110452620D01*
X34785238Y110452620D01*
X34928095Y110500239D01*
X34975714Y110547858D01*
X34975714Y110881191D01*
X34785238Y110881191D01*
X35404285Y110452620D02*
X35404285Y111452620D01*
X35975714Y110452620D01*
X35975714Y111452620D01*
X36451904Y110452620D02*
X36451904Y111452620D01*
X36690000Y111452620D01*
X36832857Y111405000D01*
X36928095Y111309762D01*
X36975714Y111214524D01*
X37023333Y111024048D01*
X37023333Y110881191D01*
X36975714Y110690715D01*
X36928095Y110595477D01*
X36832857Y110500239D01*
X36690000Y110452620D01*
X36451904Y110452620D01*
X34304285Y108333572D02*
X35066190Y108333572D01*
X34685238Y107952620D02*
X34685238Y108714524D01*
X36018571Y108952620D02*
X35542380Y108952620D01*
X35494761Y108476429D01*
X35542380Y108524048D01*
X35637619Y108571667D01*
X35875714Y108571667D01*
X35970952Y108524048D01*
X36018571Y108476429D01*
X36066190Y108381191D01*
X36066190Y108143096D01*
X36018571Y108047858D01*
X35970952Y108000239D01*
X35875714Y107952620D01*
X35637619Y107952620D01*
X35542380Y108000239D01*
X35494761Y108047858D01*
X36351904Y108952620D02*
X36685238Y107952620D01*
X37018571Y108952620D01*
X33818571Y105352620D02*
X33818571Y106352620D01*
X34151904Y105638334D01*
X34485238Y106352620D01*
X34485238Y105352620D01*
X34961428Y105352620D02*
X34961428Y106352620D01*
X35390000Y105400239D02*
X35532857Y105352620D01*
X35770952Y105352620D01*
X35866190Y105400239D01*
X35913809Y105447858D01*
X35961428Y105543096D01*
X35961428Y105638334D01*
X35913809Y105733572D01*
X35866190Y105781191D01*
X35770952Y105828810D01*
X35580476Y105876429D01*
X35485238Y105924048D01*
X35437619Y105971667D01*
X35390000Y106066905D01*
X35390000Y106162143D01*
X35437619Y106257381D01*
X35485238Y106305000D01*
X35580476Y106352620D01*
X35818571Y106352620D01*
X35961428Y106305000D01*
X36580476Y106352620D02*
X36770952Y106352620D01*
X36866190Y106305000D01*
X36961428Y106209762D01*
X37009047Y106019286D01*
X37009047Y105685953D01*
X36961428Y105495477D01*
X36866190Y105400239D01*
X36770952Y105352620D01*
X36580476Y105352620D01*
X36485238Y105400239D01*
X36390000Y105495477D01*
X36342380Y105685953D01*
X36342380Y106019286D01*
X36390000Y106209762D01*
X36485238Y106305000D01*
X36580476Y106352620D01*
X33818571Y102852620D02*
X33818571Y103852620D01*
X34151904Y103138334D01*
X34485238Y103852620D01*
X34485238Y102852620D01*
X35151904Y103852620D02*
X35342380Y103852620D01*
X35437619Y103805000D01*
X35532857Y103709762D01*
X35580476Y103519286D01*
X35580476Y103185953D01*
X35532857Y102995477D01*
X35437619Y102900239D01*
X35342380Y102852620D01*
X35151904Y102852620D01*
X35056666Y102900239D01*
X34961428Y102995477D01*
X34913809Y103185953D01*
X34913809Y103519286D01*
X34961428Y103709762D01*
X35056666Y103805000D01*
X35151904Y103852620D01*
X35961428Y102900239D02*
X36104285Y102852620D01*
X36342380Y102852620D01*
X36437619Y102900239D01*
X36485238Y102947858D01*
X36532857Y103043096D01*
X36532857Y103138334D01*
X36485238Y103233572D01*
X36437619Y103281191D01*
X36342380Y103328810D01*
X36151904Y103376429D01*
X36056666Y103424048D01*
X36009047Y103471667D01*
X35961428Y103566905D01*
X35961428Y103662143D01*
X36009047Y103757381D01*
X36056666Y103805000D01*
X36151904Y103852620D01*
X36390000Y103852620D01*
X36532857Y103805000D01*
X36961428Y102852620D02*
X36961428Y103852620D01*
X34404285Y100300239D02*
X34547142Y100252620D01*
X34785238Y100252620D01*
X34880476Y100300239D01*
X34928095Y100347858D01*
X34975714Y100443096D01*
X34975714Y100538334D01*
X34928095Y100633572D01*
X34880476Y100681191D01*
X34785238Y100728810D01*
X34594761Y100776429D01*
X34499523Y100824048D01*
X34451904Y100871667D01*
X34404285Y100966905D01*
X34404285Y101062143D01*
X34451904Y101157381D01*
X34499523Y101205000D01*
X34594761Y101252620D01*
X34832857Y101252620D01*
X34975714Y101205000D01*
X35975714Y100347858D02*
X35928095Y100300239D01*
X35785238Y100252620D01*
X35690000Y100252620D01*
X35547142Y100300239D01*
X35451904Y100395477D01*
X35404285Y100490715D01*
X35356666Y100681191D01*
X35356666Y100824048D01*
X35404285Y101014524D01*
X35451904Y101109762D01*
X35547142Y101205000D01*
X35690000Y101252620D01*
X35785238Y101252620D01*
X35928095Y101205000D01*
X35975714Y101157381D01*
X36404285Y100252620D02*
X36404285Y101252620D01*
X36975714Y100252620D02*
X36547142Y100824048D01*
X36975714Y101252620D02*
X36404285Y100681191D01*
X36023333Y97847858D02*
X35975714Y97800239D01*
X35832857Y97752620D01*
X35737619Y97752620D01*
X35594761Y97800239D01*
X35499523Y97895477D01*
X35451904Y97990715D01*
X35404285Y98181191D01*
X35404285Y98324048D01*
X35451904Y98514524D01*
X35499523Y98609762D01*
X35594761Y98705000D01*
X35737619Y98752620D01*
X35832857Y98752620D01*
X35975714Y98705000D01*
X36023333Y98657381D01*
X36404285Y97800239D02*
X36547142Y97752620D01*
X36785238Y97752620D01*
X36880476Y97800239D01*
X36928095Y97847858D01*
X36975714Y97943096D01*
X36975714Y98038334D01*
X36928095Y98133572D01*
X36880476Y98181191D01*
X36785238Y98228810D01*
X36594761Y98276429D01*
X36499523Y98324048D01*
X36451904Y98371667D01*
X36404285Y98466905D01*
X36404285Y98562143D01*
X36451904Y98657381D01*
X36499523Y98705000D01*
X36594761Y98752620D01*
X36832857Y98752620D01*
X36975714Y98705000D01*
X28240380Y104450143D02*
X28240380Y105116810D01*
X29240380Y104688239D01*
X28573714Y105926334D02*
X29240380Y105926334D01*
X28192761Y105688239D02*
X28907047Y105450143D01*
X28907047Y106069191D01*
X29240380Y106926334D02*
X29240380Y106450143D01*
X28240380Y106450143D01*
X29192761Y107212048D02*
X29240380Y107354905D01*
X29240380Y107593000D01*
X29192761Y107688239D01*
X29145142Y107735858D01*
X29049904Y107783477D01*
X28954666Y107783477D01*
X28859428Y107735858D01*
X28811809Y107688239D01*
X28764190Y107593000D01*
X28716571Y107402524D01*
X28668952Y107307286D01*
X28621333Y107259667D01*
X28526095Y107212048D01*
X28430857Y107212048D01*
X28335619Y107259667D01*
X28288000Y107307286D01*
X28240380Y107402524D01*
X28240380Y107640620D01*
X28288000Y107783477D01*
X28240380Y108402524D02*
X28240380Y108497762D01*
X28288000Y108593000D01*
X28335619Y108640620D01*
X28430857Y108688239D01*
X28621333Y108735858D01*
X28859428Y108735858D01*
X29049904Y108688239D01*
X29145142Y108640620D01*
X29192761Y108593000D01*
X29240380Y108497762D01*
X29240380Y108402524D01*
X29192761Y108307286D01*
X29145142Y108259667D01*
X29049904Y108212048D01*
X28859428Y108164429D01*
X28621333Y108164429D01*
X28430857Y108212048D01*
X28335619Y108259667D01*
X28288000Y108307286D01*
X28240380Y108402524D01*
X28573714Y109593000D02*
X29240380Y109593000D01*
X28192761Y109354905D02*
X28907047Y109116810D01*
X28907047Y109735858D01*
X28230580Y81507343D02*
X28230580Y82174010D01*
X29230580Y81745439D01*
X28563914Y82983534D02*
X29230580Y82983534D01*
X28182961Y82745439D02*
X28897247Y82507343D01*
X28897247Y83126391D01*
X29230580Y83983534D02*
X29230580Y83507343D01*
X28230580Y83507343D01*
X29182961Y84269248D02*
X29230580Y84412105D01*
X29230580Y84650200D01*
X29182961Y84745439D01*
X29135342Y84793058D01*
X29040104Y84840677D01*
X28944866Y84840677D01*
X28849628Y84793058D01*
X28802009Y84745439D01*
X28754390Y84650200D01*
X28706771Y84459724D01*
X28659152Y84364486D01*
X28611533Y84316867D01*
X28516295Y84269248D01*
X28421057Y84269248D01*
X28325819Y84316867D01*
X28278200Y84364486D01*
X28230580Y84459724D01*
X28230580Y84697820D01*
X28278200Y84840677D01*
X28230580Y85174010D02*
X28230580Y85793058D01*
X28611533Y85459724D01*
X28611533Y85602581D01*
X28659152Y85697820D01*
X28706771Y85745439D01*
X28802009Y85793058D01*
X29040104Y85793058D01*
X29135342Y85745439D01*
X29182961Y85697820D01*
X29230580Y85602581D01*
X29230580Y85316867D01*
X29182961Y85221629D01*
X29135342Y85174010D01*
X28230580Y86412105D02*
X28230580Y86507343D01*
X28278200Y86602581D01*
X28325819Y86650200D01*
X28421057Y86697820D01*
X28611533Y86745439D01*
X28849628Y86745439D01*
X29040104Y86697820D01*
X29135342Y86650200D01*
X29182961Y86602581D01*
X29230580Y86507343D01*
X29230580Y86412105D01*
X29182961Y86316867D01*
X29135342Y86269248D01*
X29040104Y86221629D01*
X28849628Y86174010D01*
X28611533Y86174010D01*
X28421057Y86221629D01*
X28325819Y86269248D01*
X28278200Y86316867D01*
X28230580Y86412105D01*
X25319380Y113324143D02*
X25319380Y113419381D01*
X25367000Y113514620D01*
X25414619Y113562239D01*
X25509857Y113609858D01*
X25700333Y113657477D01*
X25938428Y113657477D01*
X26128904Y113609858D01*
X26224142Y113562239D01*
X26271761Y113514620D01*
X26319380Y113419381D01*
X26319380Y113324143D01*
X26271761Y113228905D01*
X26224142Y113181286D01*
X26128904Y113133667D01*
X25938428Y113086048D01*
X25700333Y113086048D01*
X25509857Y113133667D01*
X25414619Y113181286D01*
X25367000Y113228905D01*
X25319380Y113324143D01*
X26224142Y114086048D02*
X26271761Y114133667D01*
X26319380Y114086048D01*
X26271761Y114038429D01*
X26224142Y114086048D01*
X26319380Y114086048D01*
X26319380Y115086048D02*
X26319380Y114514620D01*
X26319380Y114800334D02*
X25319380Y114800334D01*
X25462238Y114705096D01*
X25557476Y114609858D01*
X25605095Y114514620D01*
X25652714Y115943191D02*
X26319380Y115943191D01*
X25652714Y115514620D02*
X26176523Y115514620D01*
X26271761Y115562239D01*
X26319380Y115657477D01*
X26319380Y115800334D01*
X26271761Y115895572D01*
X26224142Y115943191D01*
X25795571Y116752715D02*
X25795571Y116419381D01*
X26319380Y116419381D02*
X25319380Y116419381D01*
X25319380Y116895572D01*
X25700380Y89067143D02*
X25700380Y89162381D01*
X25748000Y89257620D01*
X25795619Y89305239D01*
X25890857Y89352858D01*
X26081333Y89400477D01*
X26319428Y89400477D01*
X26509904Y89352858D01*
X26605142Y89305239D01*
X26652761Y89257620D01*
X26700380Y89162381D01*
X26700380Y89067143D01*
X26652761Y88971905D01*
X26605142Y88924286D01*
X26509904Y88876667D01*
X26319428Y88829048D01*
X26081333Y88829048D01*
X25890857Y88876667D01*
X25795619Y88924286D01*
X25748000Y88971905D01*
X25700380Y89067143D01*
X26605142Y89829048D02*
X26652761Y89876667D01*
X26700380Y89829048D01*
X26652761Y89781429D01*
X26605142Y89829048D01*
X26700380Y89829048D01*
X26700380Y90829048D02*
X26700380Y90257620D01*
X26700380Y90543334D02*
X25700380Y90543334D01*
X25843238Y90448096D01*
X25938476Y90352858D01*
X25986095Y90257620D01*
X26033714Y91686191D02*
X26700380Y91686191D01*
X26033714Y91257620D02*
X26557523Y91257620D01*
X26652761Y91305239D01*
X26700380Y91400477D01*
X26700380Y91543334D01*
X26652761Y91638572D01*
X26605142Y91686191D01*
X26176571Y92495715D02*
X26176571Y92162381D01*
X26700380Y92162381D02*
X25700380Y92162381D01*
X25700380Y92638572D01*
X508095Y104110000D02*
X412857Y104157620D01*
X270000Y104157620D01*
X127142Y104110000D01*
X31904Y104014762D01*
X-15715Y103919524D01*
X-63334Y103729048D01*
X-63334Y103586191D01*
X-15715Y103395715D01*
X31904Y103300477D01*
X127142Y103205239D01*
X270000Y103157620D01*
X365238Y103157620D01*
X508095Y103205239D01*
X555714Y103252858D01*
X555714Y103586191D01*
X365238Y103586191D01*
X984285Y103157620D02*
X984285Y104157620D01*
X1555714Y103157620D01*
X1555714Y104157620D01*
X2031904Y103157620D02*
X2031904Y104157620D01*
X2270000Y104157620D01*
X2412857Y104110000D01*
X2508095Y104014762D01*
X2555714Y103919524D01*
X2603333Y103729048D01*
X2603333Y103586191D01*
X2555714Y103395715D01*
X2508095Y103300477D01*
X2412857Y103205239D01*
X2270000Y103157620D01*
X2031904Y103157620D01*
X508095Y99030000D02*
X412857Y99077620D01*
X270000Y99077620D01*
X127142Y99030000D01*
X31904Y98934762D01*
X-15715Y98839524D01*
X-63334Y98649048D01*
X-63334Y98506191D01*
X-15715Y98315715D01*
X31904Y98220477D01*
X127142Y98125239D01*
X270000Y98077620D01*
X365238Y98077620D01*
X508095Y98125239D01*
X555714Y98172858D01*
X555714Y98506191D01*
X365238Y98506191D01*
X984285Y98077620D02*
X984285Y99077620D01*
X1555714Y98077620D01*
X1555714Y99077620D01*
X2031904Y98077620D02*
X2031904Y99077620D01*
X2270000Y99077620D01*
X2412857Y99030000D01*
X2508095Y98934762D01*
X2555714Y98839524D01*
X2603333Y98649048D01*
X2603333Y98506191D01*
X2555714Y98315715D01*
X2508095Y98220477D01*
X2412857Y98125239D01*
X2270000Y98077620D01*
X2031904Y98077620D01*
X508095Y93950000D02*
X412857Y93997620D01*
X270000Y93997620D01*
X127142Y93950000D01*
X31904Y93854762D01*
X-15715Y93759524D01*
X-63334Y93569048D01*
X-63334Y93426191D01*
X-15715Y93235715D01*
X31904Y93140477D01*
X127142Y93045239D01*
X270000Y92997620D01*
X365238Y92997620D01*
X508095Y93045239D01*
X555714Y93092858D01*
X555714Y93426191D01*
X365238Y93426191D01*
X984285Y92997620D02*
X984285Y93997620D01*
X1555714Y92997620D01*
X1555714Y93997620D01*
X2031904Y92997620D02*
X2031904Y93997620D01*
X2270000Y93997620D01*
X2412857Y93950000D01*
X2508095Y93854762D01*
X2555714Y93759524D01*
X2603333Y93569048D01*
X2603333Y93426191D01*
X2555714Y93235715D01*
X2508095Y93140477D01*
X2412857Y93045239D01*
X2270000Y92997620D01*
X2031904Y92997620D01*
X508095Y88870000D02*
X412857Y88917620D01*
X270000Y88917620D01*
X127142Y88870000D01*
X31904Y88774762D01*
X-15715Y88679524D01*
X-63334Y88489048D01*
X-63334Y88346191D01*
X-15715Y88155715D01*
X31904Y88060477D01*
X127142Y87965239D01*
X270000Y87917620D01*
X365238Y87917620D01*
X508095Y87965239D01*
X555714Y88012858D01*
X555714Y88346191D01*
X365238Y88346191D01*
X984285Y87917620D02*
X984285Y88917620D01*
X1555714Y87917620D01*
X1555714Y88917620D01*
X2031904Y87917620D02*
X2031904Y88917620D01*
X2270000Y88917620D01*
X2412857Y88870000D01*
X2508095Y88774762D01*
X2555714Y88679524D01*
X2603333Y88489048D01*
X2603333Y88346191D01*
X2555714Y88155715D01*
X2508095Y88060477D01*
X2412857Y87965239D01*
X2270000Y87917620D01*
X2031904Y87917620D01*
X508095Y78710000D02*
X412857Y78757620D01*
X270000Y78757620D01*
X127142Y78710000D01*
X31904Y78614762D01*
X-15715Y78519524D01*
X-63334Y78329048D01*
X-63334Y78186191D01*
X-15715Y77995715D01*
X31904Y77900477D01*
X127142Y77805239D01*
X270000Y77757620D01*
X365238Y77757620D01*
X508095Y77805239D01*
X555714Y77852858D01*
X555714Y78186191D01*
X365238Y78186191D01*
X984285Y77757620D02*
X984285Y78757620D01*
X1555714Y77757620D01*
X1555714Y78757620D01*
X2031904Y77757620D02*
X2031904Y78757620D01*
X2270000Y78757620D01*
X2412857Y78710000D01*
X2508095Y78614762D01*
X2555714Y78519524D01*
X2603333Y78329048D01*
X2603333Y78186191D01*
X2555714Y77995715D01*
X2508095Y77900477D01*
X2412857Y77805239D01*
X2270000Y77757620D01*
X2031904Y77757620D01*
X508095Y48230000D02*
X412857Y48277620D01*
X270000Y48277620D01*
X127142Y48230000D01*
X31904Y48134762D01*
X-15715Y48039524D01*
X-63334Y47849048D01*
X-63334Y47706191D01*
X-15715Y47515715D01*
X31904Y47420477D01*
X127142Y47325239D01*
X270000Y47277620D01*
X365238Y47277620D01*
X508095Y47325239D01*
X555714Y47372858D01*
X555714Y47706191D01*
X365238Y47706191D01*
X984285Y47277620D02*
X984285Y48277620D01*
X1555714Y47277620D01*
X1555714Y48277620D01*
X2031904Y47277620D02*
X2031904Y48277620D01*
X2270000Y48277620D01*
X2412857Y48230000D01*
X2508095Y48134762D01*
X2555714Y48039524D01*
X2603333Y47849048D01*
X2603333Y47706191D01*
X2555714Y47515715D01*
X2508095Y47420477D01*
X2412857Y47325239D01*
X2270000Y47277620D01*
X2031904Y47277620D01*
X508095Y50770000D02*
X412857Y50817620D01*
X270000Y50817620D01*
X127142Y50770000D01*
X31904Y50674762D01*
X-15715Y50579524D01*
X-63334Y50389048D01*
X-63334Y50246191D01*
X-15715Y50055715D01*
X31904Y49960477D01*
X127142Y49865239D01*
X270000Y49817620D01*
X365238Y49817620D01*
X508095Y49865239D01*
X555714Y49912858D01*
X555714Y50246191D01*
X365238Y50246191D01*
X984285Y49817620D02*
X984285Y50817620D01*
X1555714Y49817620D01*
X1555714Y50817620D01*
X2031904Y49817620D02*
X2031904Y50817620D01*
X2270000Y50817620D01*
X2412857Y50770000D01*
X2508095Y50674762D01*
X2555714Y50579524D01*
X2603333Y50389048D01*
X2603333Y50246191D01*
X2555714Y50055715D01*
X2508095Y49960477D01*
X2412857Y49865239D01*
X2270000Y49817620D01*
X2031904Y49817620D01*
X508095Y53310000D02*
X412857Y53357620D01*
X270000Y53357620D01*
X127142Y53310000D01*
X31904Y53214762D01*
X-15715Y53119524D01*
X-63334Y52929048D01*
X-63334Y52786191D01*
X-15715Y52595715D01*
X31904Y52500477D01*
X127142Y52405239D01*
X270000Y52357620D01*
X365238Y52357620D01*
X508095Y52405239D01*
X555714Y52452858D01*
X555714Y52786191D01*
X365238Y52786191D01*
X984285Y52357620D02*
X984285Y53357620D01*
X1555714Y52357620D01*
X1555714Y53357620D01*
X2031904Y52357620D02*
X2031904Y53357620D01*
X2270000Y53357620D01*
X2412857Y53310000D01*
X2508095Y53214762D01*
X2555714Y53119524D01*
X2603333Y52929048D01*
X2603333Y52786191D01*
X2555714Y52595715D01*
X2508095Y52500477D01*
X2412857Y52405239D01*
X2270000Y52357620D01*
X2031904Y52357620D01*
X508095Y55850000D02*
X412857Y55897620D01*
X270000Y55897620D01*
X127142Y55850000D01*
X31904Y55754762D01*
X-15715Y55659524D01*
X-63334Y55469048D01*
X-63334Y55326191D01*
X-15715Y55135715D01*
X31904Y55040477D01*
X127142Y54945239D01*
X270000Y54897620D01*
X365238Y54897620D01*
X508095Y54945239D01*
X555714Y54992858D01*
X555714Y55326191D01*
X365238Y55326191D01*
X984285Y54897620D02*
X984285Y55897620D01*
X1555714Y54897620D01*
X1555714Y55897620D01*
X2031904Y54897620D02*
X2031904Y55897620D01*
X2270000Y55897620D01*
X2412857Y55850000D01*
X2508095Y55754762D01*
X2555714Y55659524D01*
X2603333Y55469048D01*
X2603333Y55326191D01*
X2555714Y55135715D01*
X2508095Y55040477D01*
X2412857Y54945239D01*
X2270000Y54897620D01*
X2031904Y54897620D01*
X508095Y58390000D02*
X412857Y58437620D01*
X270000Y58437620D01*
X127142Y58390000D01*
X31904Y58294762D01*
X-15715Y58199524D01*
X-63334Y58009048D01*
X-63334Y57866191D01*
X-15715Y57675715D01*
X31904Y57580477D01*
X127142Y57485239D01*
X270000Y57437620D01*
X365238Y57437620D01*
X508095Y57485239D01*
X555714Y57532858D01*
X555714Y57866191D01*
X365238Y57866191D01*
X984285Y57437620D02*
X984285Y58437620D01*
X1555714Y57437620D01*
X1555714Y58437620D01*
X2031904Y57437620D02*
X2031904Y58437620D01*
X2270000Y58437620D01*
X2412857Y58390000D01*
X2508095Y58294762D01*
X2555714Y58199524D01*
X2603333Y58009048D01*
X2603333Y57866191D01*
X2555714Y57675715D01*
X2508095Y57580477D01*
X2412857Y57485239D01*
X2270000Y57437620D01*
X2031904Y57437620D01*
X508095Y60930000D02*
X412857Y60977620D01*
X270000Y60977620D01*
X127142Y60930000D01*
X31904Y60834762D01*
X-15715Y60739524D01*
X-63334Y60549048D01*
X-63334Y60406191D01*
X-15715Y60215715D01*
X31904Y60120477D01*
X127142Y60025239D01*
X270000Y59977620D01*
X365238Y59977620D01*
X508095Y60025239D01*
X555714Y60072858D01*
X555714Y60406191D01*
X365238Y60406191D01*
X984285Y59977620D02*
X984285Y60977620D01*
X1555714Y59977620D01*
X1555714Y60977620D01*
X2031904Y59977620D02*
X2031904Y60977620D01*
X2270000Y60977620D01*
X2412857Y60930000D01*
X2508095Y60834762D01*
X2555714Y60739524D01*
X2603333Y60549048D01*
X2603333Y60406191D01*
X2555714Y60215715D01*
X2508095Y60120477D01*
X2412857Y60025239D01*
X2270000Y59977620D01*
X2031904Y59977620D01*
X508095Y63470000D02*
X412857Y63517620D01*
X270000Y63517620D01*
X127142Y63470000D01*
X31904Y63374762D01*
X-15715Y63279524D01*
X-63334Y63089048D01*
X-63334Y62946191D01*
X-15715Y62755715D01*
X31904Y62660477D01*
X127142Y62565239D01*
X270000Y62517620D01*
X365238Y62517620D01*
X508095Y62565239D01*
X555714Y62612858D01*
X555714Y62946191D01*
X365238Y62946191D01*
X984285Y62517620D02*
X984285Y63517620D01*
X1555714Y62517620D01*
X1555714Y63517620D01*
X2031904Y62517620D02*
X2031904Y63517620D01*
X2270000Y63517620D01*
X2412857Y63470000D01*
X2508095Y63374762D01*
X2555714Y63279524D01*
X2603333Y63089048D01*
X2603333Y62946191D01*
X2555714Y62755715D01*
X2508095Y62660477D01*
X2412857Y62565239D01*
X2270000Y62517620D01*
X2031904Y62517620D01*
X508095Y66010000D02*
X412857Y66057620D01*
X270000Y66057620D01*
X127142Y66010000D01*
X31904Y65914762D01*
X-15715Y65819524D01*
X-63334Y65629048D01*
X-63334Y65486191D01*
X-15715Y65295715D01*
X31904Y65200477D01*
X127142Y65105239D01*
X270000Y65057620D01*
X365238Y65057620D01*
X508095Y65105239D01*
X555714Y65152858D01*
X555714Y65486191D01*
X365238Y65486191D01*
X984285Y65057620D02*
X984285Y66057620D01*
X1555714Y65057620D01*
X1555714Y66057620D01*
X2031904Y65057620D02*
X2031904Y66057620D01*
X2270000Y66057620D01*
X2412857Y66010000D01*
X2508095Y65914762D01*
X2555714Y65819524D01*
X2603333Y65629048D01*
X2603333Y65486191D01*
X2555714Y65295715D01*
X2508095Y65200477D01*
X2412857Y65105239D01*
X2270000Y65057620D01*
X2031904Y65057620D01*
X70873952Y53817191D02*
X70826333Y53721953D01*
X70778714Y53674334D01*
X70683476Y53626715D01*
X70635857Y53626715D01*
X70540619Y53674334D01*
X70493000Y53721953D01*
X70445380Y53817191D01*
X70445380Y54007667D01*
X70493000Y54102905D01*
X70540619Y54150524D01*
X70635857Y54198143D01*
X70683476Y54198143D01*
X70778714Y54150524D01*
X70826333Y54102905D01*
X70873952Y54007667D01*
X70873952Y53817191D01*
X70921571Y53721953D01*
X70969190Y53674334D01*
X71064428Y53626715D01*
X71254904Y53626715D01*
X71350142Y53674334D01*
X71397761Y53721953D01*
X71445380Y53817191D01*
X71445380Y54007667D01*
X71397761Y54102905D01*
X71350142Y54150524D01*
X71254904Y54198143D01*
X71064428Y54198143D01*
X70969190Y54150524D01*
X70921571Y54102905D01*
X70873952Y54007667D01*
X70540619Y54579096D02*
X70493000Y54626715D01*
X70445380Y54721953D01*
X70445380Y54960048D01*
X70493000Y55055286D01*
X70540619Y55102905D01*
X70635857Y55150524D01*
X70731095Y55150524D01*
X70873952Y55102905D01*
X71445380Y54531477D01*
X71445380Y55150524D01*
X70445380Y56055286D02*
X70445380Y55579096D01*
X70921571Y55531477D01*
X70873952Y55579096D01*
X70826333Y55674334D01*
X70826333Y55912429D01*
X70873952Y56007667D01*
X70921571Y56055286D01*
X71016809Y56102905D01*
X71254904Y56102905D01*
X71350142Y56055286D01*
X71397761Y56007667D01*
X71445380Y55912429D01*
X71445380Y55674334D01*
X71397761Y55579096D01*
X71350142Y55531477D01*
X70445380Y57007667D02*
X70445380Y56531477D01*
X70921571Y56483858D01*
X70873952Y56531477D01*
X70826333Y56626715D01*
X70826333Y56864810D01*
X70873952Y56960048D01*
X70921571Y57007667D01*
X71016809Y57055286D01*
X71254904Y57055286D01*
X71350142Y57007667D01*
X71397761Y56960048D01*
X71445380Y56864810D01*
X71445380Y56626715D01*
X71397761Y56531477D01*
X71350142Y56483858D01*
X13978142Y52078620D02*
X14073380Y52078620D01*
X14168619Y52031000D01*
X14216238Y51983381D01*
X14263857Y51888143D01*
X14311476Y51697667D01*
X14311476Y51459572D01*
X14263857Y51269096D01*
X14216238Y51173858D01*
X14168619Y51126239D01*
X14073380Y51078620D01*
X13978142Y51078620D01*
X13882904Y51126239D01*
X13835285Y51173858D01*
X13787666Y51269096D01*
X13740047Y51459572D01*
X13740047Y51697667D01*
X13787666Y51888143D01*
X13835285Y51983381D01*
X13882904Y52031000D01*
X13978142Y52078620D01*
X14740047Y51173858D02*
X14787666Y51126239D01*
X14740047Y51078620D01*
X14692428Y51126239D01*
X14740047Y51173858D01*
X14740047Y51078620D01*
X15740047Y51078620D02*
X15168619Y51078620D01*
X15454333Y51078620D02*
X15454333Y52078620D01*
X15359095Y51935762D01*
X15263857Y51840524D01*
X15168619Y51792905D01*
X16597190Y51745286D02*
X16597190Y51078620D01*
X16168619Y51745286D02*
X16168619Y51221477D01*
X16216238Y51126239D01*
X16311476Y51078620D01*
X16454333Y51078620D01*
X16549571Y51126239D01*
X16597190Y51173858D01*
X17406714Y51602429D02*
X17073380Y51602429D01*
X17073380Y51078620D02*
X17073380Y52078620D01*
X17549571Y52078620D01*
X50460238Y70486334D02*
X50936428Y70486334D01*
X50365000Y70200620D02*
X50698333Y71200620D01*
X51031666Y70200620D01*
X51365000Y70200620D02*
X51365000Y70867286D01*
X51365000Y70676810D02*
X51412619Y70772048D01*
X51460238Y70819667D01*
X51555476Y70867286D01*
X51650714Y70867286D01*
X52412619Y70200620D02*
X52412619Y71200620D01*
X52412619Y70248239D02*
X52317380Y70200620D01*
X52126904Y70200620D01*
X52031666Y70248239D01*
X51984047Y70295858D01*
X51936428Y70391096D01*
X51936428Y70676810D01*
X51984047Y70772048D01*
X52031666Y70819667D01*
X52126904Y70867286D01*
X52317380Y70867286D01*
X52412619Y70819667D01*
X53317380Y70867286D02*
X53317380Y70200620D01*
X52888809Y70867286D02*
X52888809Y70343477D01*
X52936428Y70248239D01*
X53031666Y70200620D01*
X53174523Y70200620D01*
X53269761Y70248239D01*
X53317380Y70295858D01*
X53793571Y70200620D02*
X53793571Y70867286D01*
X53793571Y71200620D02*
X53745952Y71153000D01*
X53793571Y71105381D01*
X53841190Y71153000D01*
X53793571Y71200620D01*
X53793571Y71105381D01*
X54269761Y70867286D02*
X54269761Y70200620D01*
X54269761Y70772048D02*
X54317380Y70819667D01*
X54412619Y70867286D01*
X54555476Y70867286D01*
X54650714Y70819667D01*
X54698333Y70724429D01*
X54698333Y70200620D01*
X55317380Y70200620D02*
X55222142Y70248239D01*
X55174523Y70295858D01*
X55126904Y70391096D01*
X55126904Y70676810D01*
X55174523Y70772048D01*
X55222142Y70819667D01*
X55317380Y70867286D01*
X55460238Y70867286D01*
X55555476Y70819667D01*
X55603095Y70772048D01*
X55650714Y70676810D01*
X55650714Y70391096D01*
X55603095Y70295858D01*
X55555476Y70248239D01*
X55460238Y70200620D01*
X55317380Y70200620D01*
X56841190Y70200620D02*
X56841190Y71200620D01*
X57222142Y71200620D01*
X57317380Y71153000D01*
X57365000Y71105381D01*
X57412619Y71010143D01*
X57412619Y70867286D01*
X57365000Y70772048D01*
X57317380Y70724429D01*
X57222142Y70676810D01*
X56841190Y70676810D01*
X57841190Y70200620D02*
X57841190Y70867286D01*
X57841190Y70676810D02*
X57888809Y70772048D01*
X57936428Y70819667D01*
X58031666Y70867286D01*
X58126904Y70867286D01*
X58603095Y70200620D02*
X58507857Y70248239D01*
X58460238Y70295858D01*
X58412619Y70391096D01*
X58412619Y70676810D01*
X58460238Y70772048D01*
X58507857Y70819667D01*
X58603095Y70867286D01*
X58745952Y70867286D01*
X58841190Y70819667D01*
X58888809Y70772048D01*
X58936428Y70676810D01*
X58936428Y70391096D01*
X58888809Y70295858D01*
X58841190Y70248239D01*
X58745952Y70200620D01*
X58603095Y70200620D01*
X60126904Y70200620D02*
X60126904Y71200620D01*
X60460238Y70486334D01*
X60793571Y71200620D01*
X60793571Y70200620D01*
X61269761Y70200620D02*
X61269761Y70867286D01*
X61269761Y71200620D02*
X61222142Y71153000D01*
X61269761Y71105381D01*
X61317380Y71153000D01*
X61269761Y71200620D01*
X61269761Y71105381D01*
X61745952Y70867286D02*
X61745952Y70200620D01*
X61745952Y70772048D02*
X61793571Y70819667D01*
X61888809Y70867286D01*
X62031666Y70867286D01*
X62126904Y70819667D01*
X62174523Y70724429D01*
X62174523Y70200620D01*
X62650714Y70200620D02*
X62650714Y70867286D01*
X62650714Y71200620D02*
X62603095Y71153000D01*
X62650714Y71105381D01*
X62698333Y71153000D01*
X62650714Y71200620D01*
X62650714Y71105381D01*
X64365000Y71200620D02*
X63888809Y71200620D01*
X63841190Y70724429D01*
X63888809Y70772048D01*
X63984047Y70819667D01*
X64222142Y70819667D01*
X64317380Y70772048D01*
X64365000Y70724429D01*
X64412619Y70629191D01*
X64412619Y70391096D01*
X64365000Y70295858D01*
X64317380Y70248239D01*
X64222142Y70200620D01*
X63984047Y70200620D01*
X63888809Y70248239D01*
X63841190Y70295858D01*
X64698333Y71200620D02*
X65031666Y70200620D01*
X65365000Y71200620D01*
X4001095Y110777620D02*
X4001095Y111777620D01*
X4334428Y111063334D01*
X4667761Y111777620D01*
X4667761Y110777620D01*
X5048714Y111777620D02*
X5715380Y111777620D01*
X5048714Y110777620D01*
X5715380Y110777620D01*
X6096333Y111158572D02*
X6858238Y111158572D01*
X7477285Y111349048D02*
X7382047Y111396667D01*
X7334428Y111444286D01*
X7286809Y111539524D01*
X7286809Y111587143D01*
X7334428Y111682381D01*
X7382047Y111730000D01*
X7477285Y111777620D01*
X7667761Y111777620D01*
X7763000Y111730000D01*
X7810619Y111682381D01*
X7858238Y111587143D01*
X7858238Y111539524D01*
X7810619Y111444286D01*
X7763000Y111396667D01*
X7667761Y111349048D01*
X7477285Y111349048D01*
X7382047Y111301429D01*
X7334428Y111253810D01*
X7286809Y111158572D01*
X7286809Y110968096D01*
X7334428Y110872858D01*
X7382047Y110825239D01*
X7477285Y110777620D01*
X7667761Y110777620D01*
X7763000Y110825239D01*
X7810619Y110872858D01*
X7858238Y110968096D01*
X7858238Y111158572D01*
X7810619Y111253810D01*
X7763000Y111301429D01*
X7667761Y111349048D01*
X8477285Y111777620D02*
X8572523Y111777620D01*
X8667761Y111730000D01*
X8715380Y111682381D01*
X8763000Y111587143D01*
X8810619Y111396667D01*
X8810619Y111158572D01*
X8763000Y110968096D01*
X8715380Y110872858D01*
X8667761Y110825239D01*
X8572523Y110777620D01*
X8477285Y110777620D01*
X8382047Y110825239D01*
X8334428Y110872858D01*
X8286809Y110968096D01*
X8239190Y111158572D01*
X8239190Y111396667D01*
X8286809Y111587143D01*
X8334428Y111682381D01*
X8382047Y111730000D01*
X8477285Y111777620D01*
X9239190Y110777620D02*
X9239190Y111777620D01*
X9810619Y110777620D02*
X9382047Y111349048D01*
X9810619Y111777620D02*
X9239190Y111206191D01*
X11334428Y111301429D02*
X11477285Y111253810D01*
X11524904Y111206191D01*
X11572523Y111110953D01*
X11572523Y110968096D01*
X11524904Y110872858D01*
X11477285Y110825239D01*
X11382047Y110777620D01*
X11001095Y110777620D01*
X11001095Y111777620D01*
X11334428Y111777620D01*
X11429666Y111730000D01*
X11477285Y111682381D01*
X11524904Y111587143D01*
X11524904Y111491905D01*
X11477285Y111396667D01*
X11429666Y111349048D01*
X11334428Y111301429D01*
X11001095Y111301429D01*
X12001095Y111777620D02*
X12001095Y110968096D01*
X12048714Y110872858D01*
X12096333Y110825239D01*
X12191571Y110777620D01*
X12382047Y110777620D01*
X12477285Y110825239D01*
X12524904Y110872858D01*
X12572523Y110968096D01*
X12572523Y111777620D01*
X13001095Y110825239D02*
X13143952Y110777620D01*
X13382047Y110777620D01*
X13477285Y110825239D01*
X13524904Y110872858D01*
X13572523Y110968096D01*
X13572523Y111063334D01*
X13524904Y111158572D01*
X13477285Y111206191D01*
X13382047Y111253810D01*
X13191571Y111301429D01*
X13096333Y111349048D01*
X13048714Y111396667D01*
X13001095Y111491905D01*
X13001095Y111587143D01*
X13048714Y111682381D01*
X13096333Y111730000D01*
X13191571Y111777620D01*
X13429666Y111777620D01*
X13572523Y111730000D01*
X23574714Y121721620D02*
X23574714Y122721620D01*
X24050904Y121721620D02*
X24050904Y122721620D01*
X24622333Y121721620D01*
X24622333Y122721620D01*
X24955666Y122721620D02*
X25527095Y122721620D01*
X25241380Y121721620D02*
X25241380Y122721620D01*
X26479476Y122721620D02*
X26812809Y121721620D01*
X27146142Y122721620D01*
X28050904Y121816858D02*
X28003285Y121769239D01*
X27860428Y121721620D01*
X27765190Y121721620D01*
X27622333Y121769239D01*
X27527095Y121864477D01*
X27479476Y121959715D01*
X27431857Y122150191D01*
X27431857Y122293048D01*
X27479476Y122483524D01*
X27527095Y122578762D01*
X27622333Y122674000D01*
X27765190Y122721620D01*
X27860428Y122721620D01*
X28003285Y122674000D01*
X28050904Y122626381D01*
X29050904Y121816858D02*
X29003285Y121769239D01*
X28860428Y121721620D01*
X28765190Y121721620D01*
X28622333Y121769239D01*
X28527095Y121864477D01*
X28479476Y121959715D01*
X28431857Y122150191D01*
X28431857Y122293048D01*
X28479476Y122483524D01*
X28527095Y122578762D01*
X28622333Y122674000D01*
X28765190Y122721620D01*
X28860428Y122721620D01*
X29003285Y122674000D01*
X29050904Y122626381D01*
X38832857Y118879929D02*
X39166190Y118879929D01*
X39309047Y118356120D02*
X38832857Y118356120D01*
X38832857Y119356120D01*
X39309047Y119356120D01*
X39642380Y119356120D02*
X40309047Y118356120D01*
X40309047Y119356120D02*
X39642380Y118356120D01*
X40547142Y119356120D02*
X41118571Y119356120D01*
X40832857Y118356120D02*
X40832857Y119356120D01*
X42690000Y119356120D02*
X42213809Y119356120D01*
X42166190Y118879929D01*
X42213809Y118927548D01*
X42309047Y118975167D01*
X42547142Y118975167D01*
X42642380Y118927548D01*
X42690000Y118879929D01*
X42737619Y118784691D01*
X42737619Y118546596D01*
X42690000Y118451358D01*
X42642380Y118403739D01*
X42547142Y118356120D01*
X42309047Y118356120D01*
X42213809Y118403739D01*
X42166190Y118451358D01*
X43023333Y119356120D02*
X43356666Y118356120D01*
X43690000Y119356120D01*
X53023380Y135478620D02*
X52451952Y135478620D01*
X52737666Y135478620D02*
X52737666Y136478620D01*
X52642428Y136335762D01*
X52547190Y136240524D01*
X52451952Y136192905D01*
X53642428Y136478620D02*
X53737666Y136478620D01*
X53832904Y136431000D01*
X53880523Y136383381D01*
X53928142Y136288143D01*
X53975761Y136097667D01*
X53975761Y135859572D01*
X53928142Y135669096D01*
X53880523Y135573858D01*
X53832904Y135526239D01*
X53737666Y135478620D01*
X53642428Y135478620D01*
X53547190Y135526239D01*
X53499571Y135573858D01*
X53451952Y135669096D01*
X53404333Y135859572D01*
X53404333Y136097667D01*
X53451952Y136288143D01*
X53499571Y136383381D01*
X53547190Y136431000D01*
X53642428Y136478620D01*
X54594809Y136478620D02*
X54690047Y136478620D01*
X54785285Y136431000D01*
X54832904Y136383381D01*
X54880523Y136288143D01*
X54928142Y136097667D01*
X54928142Y135859572D01*
X54880523Y135669096D01*
X54832904Y135573858D01*
X54785285Y135526239D01*
X54690047Y135478620D01*
X54594809Y135478620D01*
X54499571Y135526239D01*
X54451952Y135573858D01*
X54404333Y135669096D01*
X54356714Y135859572D01*
X54356714Y136097667D01*
X54404333Y136288143D01*
X54451952Y136383381D01*
X54499571Y136431000D01*
X54594809Y136478620D01*
X55785285Y136145286D02*
X55785285Y135478620D01*
X55356714Y136145286D02*
X55356714Y135621477D01*
X55404333Y135526239D01*
X55499571Y135478620D01*
X55642428Y135478620D01*
X55737666Y135526239D01*
X55785285Y135573858D01*
X56594809Y136002429D02*
X56261476Y136002429D01*
X56261476Y135478620D02*
X56261476Y136478620D01*
X56737666Y136478620D01*
X50538380Y129382905D02*
X49538380Y129382905D01*
X50538380Y129859096D02*
X49538380Y129859096D01*
X50538380Y130430524D01*
X49538380Y130430524D01*
X49538380Y130763858D02*
X49538380Y131335286D01*
X50538380Y131049572D02*
X49538380Y131049572D01*
X49490761Y132382905D02*
X50776476Y131525762D01*
X50014571Y132716239D02*
X50014571Y133049572D01*
X50538380Y133192429D02*
X50538380Y132716239D01*
X49538380Y132716239D01*
X49538380Y133192429D01*
X49538380Y133525762D02*
X50538380Y134192429D01*
X49538380Y134192429D02*
X50538380Y133525762D01*
X49538380Y134430524D02*
X49538380Y135001953D01*
X50538380Y134716239D02*
X49538380Y134716239D01*
X341428Y86377620D02*
X579523Y85377620D01*
X770000Y86091905D01*
X960476Y85377620D01*
X1198571Y86377620D01*
X2150952Y85377620D02*
X1817619Y85853810D01*
X1579523Y85377620D02*
X1579523Y86377620D01*
X1960476Y86377620D01*
X2055714Y86330000D01*
X2103333Y86282381D01*
X2150952Y86187143D01*
X2150952Y86044286D01*
X2103333Y85949048D01*
X2055714Y85901429D01*
X1960476Y85853810D01*
X1579523Y85853810D01*
X1079523Y90457620D02*
X746190Y90933810D01*
X508095Y90457620D02*
X508095Y91457620D01*
X889047Y91457620D01*
X984285Y91410000D01*
X1031904Y91362381D01*
X1079523Y91267143D01*
X1079523Y91124286D01*
X1031904Y91029048D01*
X984285Y90981429D01*
X889047Y90933810D01*
X508095Y90933810D01*
X1508095Y90457620D02*
X1508095Y91457620D01*
X1746190Y91457620D01*
X1889047Y91410000D01*
X1984285Y91314762D01*
X2031904Y91219524D01*
X2079523Y91029048D01*
X2079523Y90886191D01*
X2031904Y90695715D01*
X1984285Y90600477D01*
X1889047Y90505239D01*
X1746190Y90457620D01*
X1508095Y90457620D01*
X246190Y95537620D02*
X246190Y96537620D01*
X1293809Y95537620D02*
X960476Y96013810D01*
X722380Y95537620D02*
X722380Y96537620D01*
X1103333Y96537620D01*
X1198571Y96490000D01*
X1246190Y96442381D01*
X1293809Y96347143D01*
X1293809Y96204286D01*
X1246190Y96109048D01*
X1198571Y96061429D01*
X1103333Y96013810D01*
X722380Y96013810D01*
X2389047Y95442381D02*
X2293809Y95490000D01*
X2198571Y95585239D01*
X2055714Y95728096D01*
X1960476Y95775715D01*
X1865238Y95775715D01*
X1912857Y95537620D02*
X1817619Y95585239D01*
X1722380Y95680477D01*
X1674761Y95870953D01*
X1674761Y96204286D01*
X1722380Y96394762D01*
X1817619Y96490000D01*
X1912857Y96537620D01*
X2103333Y96537620D01*
X2198571Y96490000D01*
X2293809Y96394762D01*
X2341428Y96204286D01*
X2341428Y95870953D01*
X2293809Y95680477D01*
X2198571Y95585239D01*
X2103333Y95537620D01*
X1912857Y95537620D01*
X-87143Y100617620D02*
X-87143Y101617620D01*
X246190Y100903334D01*
X579523Y101617620D01*
X579523Y100617620D01*
X1627142Y100617620D02*
X1293809Y101093810D01*
X1055714Y100617620D02*
X1055714Y101617620D01*
X1436666Y101617620D01*
X1531904Y101570000D01*
X1579523Y101522381D01*
X1627142Y101427143D01*
X1627142Y101284286D01*
X1579523Y101189048D01*
X1531904Y101141429D01*
X1436666Y101093810D01*
X1055714Y101093810D01*
X2722380Y100522381D02*
X2627142Y100570000D01*
X2531904Y100665239D01*
X2389047Y100808096D01*
X2293809Y100855715D01*
X2198571Y100855715D01*
X2246190Y100617620D02*
X2150952Y100665239D01*
X2055714Y100760477D01*
X2008095Y100950953D01*
X2008095Y101284286D01*
X2055714Y101474762D01*
X2150952Y101570000D01*
X2246190Y101617620D01*
X2436666Y101617620D01*
X2531904Y101570000D01*
X2627142Y101474762D01*
X2674761Y101284286D01*
X2674761Y100950953D01*
X2627142Y100760477D01*
X2531904Y100665239D01*
X2436666Y100617620D01*
X2246190Y100617620D01*
X650952Y70137620D02*
X317619Y70613810D01*
X79523Y70137620D02*
X79523Y71137620D01*
X460476Y71137620D01*
X555714Y71090000D01*
X603333Y71042381D01*
X650952Y70947143D01*
X650952Y70804286D01*
X603333Y70709048D01*
X555714Y70661429D01*
X460476Y70613810D01*
X79523Y70613810D01*
X1079523Y70661429D02*
X1412857Y70661429D01*
X1555714Y70137620D02*
X1079523Y70137620D01*
X1079523Y71137620D01*
X1555714Y71137620D01*
X1936666Y70185239D02*
X2079523Y70137620D01*
X2317619Y70137620D01*
X2412857Y70185239D01*
X2460476Y70232858D01*
X2508095Y70328096D01*
X2508095Y70423334D01*
X2460476Y70518572D01*
X2412857Y70566191D01*
X2317619Y70613810D01*
X2127142Y70661429D01*
X2031904Y70709048D01*
X1984285Y70756667D01*
X1936666Y70851905D01*
X1936666Y70947143D01*
X1984285Y71042381D01*
X2031904Y71090000D01*
X2127142Y71137620D01*
X2365238Y71137620D01*
X2508095Y71090000D01*
X508095Y68550000D02*
X412857Y68597620D01*
X270000Y68597620D01*
X127142Y68550000D01*
X31904Y68454762D01*
X-15715Y68359524D01*
X-63334Y68169048D01*
X-63334Y68026191D01*
X-15715Y67835715D01*
X31904Y67740477D01*
X127142Y67645239D01*
X270000Y67597620D01*
X365238Y67597620D01*
X508095Y67645239D01*
X555714Y67692858D01*
X555714Y68026191D01*
X365238Y68026191D01*
X984285Y67597620D02*
X984285Y68597620D01*
X1555714Y67597620D01*
X1555714Y68597620D01*
X2031904Y67597620D02*
X2031904Y68597620D01*
X2270000Y68597620D01*
X2412857Y68550000D01*
X2508095Y68454762D01*
X2555714Y68359524D01*
X2603333Y68169048D01*
X2603333Y68026191D01*
X2555714Y67835715D01*
X2508095Y67740477D01*
X2412857Y67645239D01*
X2270000Y67597620D01*
X2031904Y67597620D01*
X8786904Y47277620D02*
X8786904Y48277620D01*
X9025000Y48277620D01*
X9167857Y48230000D01*
X9263095Y48134762D01*
X9310714Y48039524D01*
X9358333Y47849048D01*
X9358333Y47706191D01*
X9310714Y47515715D01*
X9263095Y47420477D01*
X9167857Y47325239D01*
X9025000Y47277620D01*
X8786904Y47277620D01*
X9977380Y48277620D02*
X10072619Y48277620D01*
X10167857Y48230000D01*
X10215476Y48182381D01*
X10263095Y48087143D01*
X10310714Y47896667D01*
X10310714Y47658572D01*
X10263095Y47468096D01*
X10215476Y47372858D01*
X10167857Y47325239D01*
X10072619Y47277620D01*
X9977380Y47277620D01*
X9882142Y47325239D01*
X9834523Y47372858D01*
X9786904Y47468096D01*
X9739285Y47658572D01*
X9739285Y47896667D01*
X9786904Y48087143D01*
X9834523Y48182381D01*
X9882142Y48230000D01*
X9977380Y48277620D01*
X8786904Y49817620D02*
X8786904Y50817620D01*
X9025000Y50817620D01*
X9167857Y50770000D01*
X9263095Y50674762D01*
X9310714Y50579524D01*
X9358333Y50389048D01*
X9358333Y50246191D01*
X9310714Y50055715D01*
X9263095Y49960477D01*
X9167857Y49865239D01*
X9025000Y49817620D01*
X8786904Y49817620D01*
X10310714Y49817620D02*
X9739285Y49817620D01*
X10025000Y49817620D02*
X10025000Y50817620D01*
X9929761Y50674762D01*
X9834523Y50579524D01*
X9739285Y50531905D01*
X8786904Y52357620D02*
X8786904Y53357620D01*
X9025000Y53357620D01*
X9167857Y53310000D01*
X9263095Y53214762D01*
X9310714Y53119524D01*
X9358333Y52929048D01*
X9358333Y52786191D01*
X9310714Y52595715D01*
X9263095Y52500477D01*
X9167857Y52405239D01*
X9025000Y52357620D01*
X8786904Y52357620D01*
X9739285Y53262381D02*
X9786904Y53310000D01*
X9882142Y53357620D01*
X10120238Y53357620D01*
X10215476Y53310000D01*
X10263095Y53262381D01*
X10310714Y53167143D01*
X10310714Y53071905D01*
X10263095Y52929048D01*
X9691666Y52357620D01*
X10310714Y52357620D01*
X8786904Y54897620D02*
X8786904Y55897620D01*
X9025000Y55897620D01*
X9167857Y55850000D01*
X9263095Y55754762D01*
X9310714Y55659524D01*
X9358333Y55469048D01*
X9358333Y55326191D01*
X9310714Y55135715D01*
X9263095Y55040477D01*
X9167857Y54945239D01*
X9025000Y54897620D01*
X8786904Y54897620D01*
X9691666Y55897620D02*
X10310714Y55897620D01*
X9977380Y55516667D01*
X10120238Y55516667D01*
X10215476Y55469048D01*
X10263095Y55421429D01*
X10310714Y55326191D01*
X10310714Y55088096D01*
X10263095Y54992858D01*
X10215476Y54945239D01*
X10120238Y54897620D01*
X9834523Y54897620D01*
X9739285Y54945239D01*
X9691666Y54992858D01*
X8786904Y57437620D02*
X8786904Y58437620D01*
X9025000Y58437620D01*
X9167857Y58390000D01*
X9263095Y58294762D01*
X9310714Y58199524D01*
X9358333Y58009048D01*
X9358333Y57866191D01*
X9310714Y57675715D01*
X9263095Y57580477D01*
X9167857Y57485239D01*
X9025000Y57437620D01*
X8786904Y57437620D01*
X10215476Y58104286D02*
X10215476Y57437620D01*
X9977380Y58485239D02*
X9739285Y57770953D01*
X10358333Y57770953D01*
X8786904Y59977620D02*
X8786904Y60977620D01*
X9025000Y60977620D01*
X9167857Y60930000D01*
X9263095Y60834762D01*
X9310714Y60739524D01*
X9358333Y60549048D01*
X9358333Y60406191D01*
X9310714Y60215715D01*
X9263095Y60120477D01*
X9167857Y60025239D01*
X9025000Y59977620D01*
X8786904Y59977620D01*
X10263095Y60977620D02*
X9786904Y60977620D01*
X9739285Y60501429D01*
X9786904Y60549048D01*
X9882142Y60596667D01*
X10120238Y60596667D01*
X10215476Y60549048D01*
X10263095Y60501429D01*
X10310714Y60406191D01*
X10310714Y60168096D01*
X10263095Y60072858D01*
X10215476Y60025239D01*
X10120238Y59977620D01*
X9882142Y59977620D01*
X9786904Y60025239D01*
X9739285Y60072858D01*
X8786904Y62517620D02*
X8786904Y63517620D01*
X9025000Y63517620D01*
X9167857Y63470000D01*
X9263095Y63374762D01*
X9310714Y63279524D01*
X9358333Y63089048D01*
X9358333Y62946191D01*
X9310714Y62755715D01*
X9263095Y62660477D01*
X9167857Y62565239D01*
X9025000Y62517620D01*
X8786904Y62517620D01*
X10215476Y63517620D02*
X10025000Y63517620D01*
X9929761Y63470000D01*
X9882142Y63422381D01*
X9786904Y63279524D01*
X9739285Y63089048D01*
X9739285Y62708096D01*
X9786904Y62612858D01*
X9834523Y62565239D01*
X9929761Y62517620D01*
X10120238Y62517620D01*
X10215476Y62565239D01*
X10263095Y62612858D01*
X10310714Y62708096D01*
X10310714Y62946191D01*
X10263095Y63041429D01*
X10215476Y63089048D01*
X10120238Y63136667D01*
X9929761Y63136667D01*
X9834523Y63089048D01*
X9786904Y63041429D01*
X9739285Y62946191D01*
X8786904Y65057620D02*
X8786904Y66057620D01*
X9025000Y66057620D01*
X9167857Y66010000D01*
X9263095Y65914762D01*
X9310714Y65819524D01*
X9358333Y65629048D01*
X9358333Y65486191D01*
X9310714Y65295715D01*
X9263095Y65200477D01*
X9167857Y65105239D01*
X9025000Y65057620D01*
X8786904Y65057620D01*
X9691666Y66057620D02*
X10358333Y66057620D01*
X9929761Y65057620D01*
X8810714Y70423334D02*
X9286904Y70423334D01*
X8715476Y70137620D02*
X9048809Y71137620D01*
X9382142Y70137620D01*
X9905952Y71137620D02*
X10001190Y71137620D01*
X10096428Y71090000D01*
X10144047Y71042381D01*
X10191666Y70947143D01*
X10239285Y70756667D01*
X10239285Y70518572D01*
X10191666Y70328096D01*
X10144047Y70232858D01*
X10096428Y70185239D01*
X10001190Y70137620D01*
X9905952Y70137620D01*
X9810714Y70185239D01*
X9763095Y70232858D01*
X9715476Y70328096D01*
X9667857Y70518572D01*
X9667857Y70756667D01*
X9715476Y70947143D01*
X9763095Y71042381D01*
X9810714Y71090000D01*
X9905952Y71137620D01*
X8810714Y72963334D02*
X9286904Y72963334D01*
X8715476Y72677620D02*
X9048809Y73677620D01*
X9382142Y72677620D01*
X10239285Y72677620D02*
X9667857Y72677620D01*
X9953571Y72677620D02*
X9953571Y73677620D01*
X9858333Y73534762D01*
X9763095Y73439524D01*
X9667857Y73391905D01*
X8810714Y75503334D02*
X9286904Y75503334D01*
X8715476Y75217620D02*
X9048809Y76217620D01*
X9382142Y75217620D01*
X9667857Y76122381D02*
X9715476Y76170000D01*
X9810714Y76217620D01*
X10048809Y76217620D01*
X10144047Y76170000D01*
X10191666Y76122381D01*
X10239285Y76027143D01*
X10239285Y75931905D01*
X10191666Y75789048D01*
X9620238Y75217620D01*
X10239285Y75217620D01*
X8810714Y78043334D02*
X9286904Y78043334D01*
X8715476Y77757620D02*
X9048809Y78757620D01*
X9382142Y77757620D01*
X9620238Y78757620D02*
X10239285Y78757620D01*
X9905952Y78376667D01*
X10048809Y78376667D01*
X10144047Y78329048D01*
X10191666Y78281429D01*
X10239285Y78186191D01*
X10239285Y77948096D01*
X10191666Y77852858D01*
X10144047Y77805239D01*
X10048809Y77757620D01*
X9763095Y77757620D01*
X9667857Y77805239D01*
X9620238Y77852858D01*
X8810714Y80583334D02*
X9286904Y80583334D01*
X8715476Y80297620D02*
X9048809Y81297620D01*
X9382142Y80297620D01*
X10144047Y80964286D02*
X10144047Y80297620D01*
X9905952Y81345239D02*
X9667857Y80630953D01*
X10286904Y80630953D01*
X8810714Y83123334D02*
X9286904Y83123334D01*
X8715476Y82837620D02*
X9048809Y83837620D01*
X9382142Y82837620D01*
X10191666Y83837620D02*
X9715476Y83837620D01*
X9667857Y83361429D01*
X9715476Y83409048D01*
X9810714Y83456667D01*
X10048809Y83456667D01*
X10144047Y83409048D01*
X10191666Y83361429D01*
X10239285Y83266191D01*
X10239285Y83028096D01*
X10191666Y82932858D01*
X10144047Y82885239D01*
X10048809Y82837620D01*
X9810714Y82837620D01*
X9715476Y82885239D01*
X9667857Y82932858D01*
X8810714Y85663334D02*
X9286904Y85663334D01*
X8715476Y85377620D02*
X9048809Y86377620D01*
X9382142Y85377620D01*
X10144047Y86377620D02*
X9953571Y86377620D01*
X9858333Y86330000D01*
X9810714Y86282381D01*
X9715476Y86139524D01*
X9667857Y85949048D01*
X9667857Y85568096D01*
X9715476Y85472858D01*
X9763095Y85425239D01*
X9858333Y85377620D01*
X10048809Y85377620D01*
X10144047Y85425239D01*
X10191666Y85472858D01*
X10239285Y85568096D01*
X10239285Y85806191D01*
X10191666Y85901429D01*
X10144047Y85949048D01*
X10048809Y85996667D01*
X9858333Y85996667D01*
X9763095Y85949048D01*
X9715476Y85901429D01*
X9667857Y85806191D01*
X8810714Y88203334D02*
X9286904Y88203334D01*
X8715476Y87917620D02*
X9048809Y88917620D01*
X9382142Y87917620D01*
X9620238Y88917620D02*
X10286904Y88917620D01*
X9858333Y87917620D01*
X8810714Y90743334D02*
X9286904Y90743334D01*
X8715476Y90457620D02*
X9048809Y91457620D01*
X9382142Y90457620D01*
X9858333Y91029048D02*
X9763095Y91076667D01*
X9715476Y91124286D01*
X9667857Y91219524D01*
X9667857Y91267143D01*
X9715476Y91362381D01*
X9763095Y91410000D01*
X9858333Y91457620D01*
X10048809Y91457620D01*
X10144047Y91410000D01*
X10191666Y91362381D01*
X10239285Y91267143D01*
X10239285Y91219524D01*
X10191666Y91124286D01*
X10144047Y91076667D01*
X10048809Y91029048D01*
X9858333Y91029048D01*
X9763095Y90981429D01*
X9715476Y90933810D01*
X9667857Y90838572D01*
X9667857Y90648096D01*
X9715476Y90552858D01*
X9763095Y90505239D01*
X9858333Y90457620D01*
X10048809Y90457620D01*
X10144047Y90505239D01*
X10191666Y90552858D01*
X10239285Y90648096D01*
X10239285Y90838572D01*
X10191666Y90933810D01*
X10144047Y90981429D01*
X10048809Y91029048D01*
X8810714Y93283334D02*
X9286904Y93283334D01*
X8715476Y92997620D02*
X9048809Y93997620D01*
X9382142Y92997620D01*
X9763095Y92997620D02*
X9953571Y92997620D01*
X10048809Y93045239D01*
X10096428Y93092858D01*
X10191666Y93235715D01*
X10239285Y93426191D01*
X10239285Y93807143D01*
X10191666Y93902381D01*
X10144047Y93950000D01*
X10048809Y93997620D01*
X9858333Y93997620D01*
X9763095Y93950000D01*
X9715476Y93902381D01*
X9667857Y93807143D01*
X9667857Y93569048D01*
X9715476Y93473810D01*
X9763095Y93426191D01*
X9858333Y93378572D01*
X10048809Y93378572D01*
X10144047Y93426191D01*
X10191666Y93473810D01*
X10239285Y93569048D01*
X8334523Y95823334D02*
X8810714Y95823334D01*
X8239285Y95537620D02*
X8572619Y96537620D01*
X8905952Y95537620D01*
X9763095Y95537620D02*
X9191666Y95537620D01*
X9477380Y95537620D02*
X9477380Y96537620D01*
X9382142Y96394762D01*
X9286904Y96299524D01*
X9191666Y96251905D01*
X10382142Y96537620D02*
X10477380Y96537620D01*
X10572619Y96490000D01*
X10620238Y96442381D01*
X10667857Y96347143D01*
X10715476Y96156667D01*
X10715476Y95918572D01*
X10667857Y95728096D01*
X10620238Y95632858D01*
X10572619Y95585239D01*
X10477380Y95537620D01*
X10382142Y95537620D01*
X10286904Y95585239D01*
X10239285Y95632858D01*
X10191666Y95728096D01*
X10144047Y95918572D01*
X10144047Y96156667D01*
X10191666Y96347143D01*
X10239285Y96442381D01*
X10286904Y96490000D01*
X10382142Y96537620D01*
X8334523Y98363334D02*
X8810714Y98363334D01*
X8239285Y98077620D02*
X8572619Y99077620D01*
X8905952Y98077620D01*
X9763095Y98077620D02*
X9191666Y98077620D01*
X9477380Y98077620D02*
X9477380Y99077620D01*
X9382142Y98934762D01*
X9286904Y98839524D01*
X9191666Y98791905D01*
X10715476Y98077620D02*
X10144047Y98077620D01*
X10429761Y98077620D02*
X10429761Y99077620D01*
X10334523Y98934762D01*
X10239285Y98839524D01*
X10144047Y98791905D01*
X8334523Y100903334D02*
X8810714Y100903334D01*
X8239285Y100617620D02*
X8572619Y101617620D01*
X8905952Y100617620D01*
X9763095Y100617620D02*
X9191666Y100617620D01*
X9477380Y100617620D02*
X9477380Y101617620D01*
X9382142Y101474762D01*
X9286904Y101379524D01*
X9191666Y101331905D01*
X10144047Y101522381D02*
X10191666Y101570000D01*
X10286904Y101617620D01*
X10525000Y101617620D01*
X10620238Y101570000D01*
X10667857Y101522381D01*
X10715476Y101427143D01*
X10715476Y101331905D01*
X10667857Y101189048D01*
X10096428Y100617620D01*
X10715476Y100617620D01*
X8334523Y103443334D02*
X8810714Y103443334D01*
X8239285Y103157620D02*
X8572619Y104157620D01*
X8905952Y103157620D01*
X9763095Y103157620D02*
X9191666Y103157620D01*
X9477380Y103157620D02*
X9477380Y104157620D01*
X9382142Y104014762D01*
X9286904Y103919524D01*
X9191666Y103871905D01*
X10096428Y104157620D02*
X10715476Y104157620D01*
X10382142Y103776667D01*
X10525000Y103776667D01*
X10620238Y103729048D01*
X10667857Y103681429D01*
X10715476Y103586191D01*
X10715476Y103348096D01*
X10667857Y103252858D01*
X10620238Y103205239D01*
X10525000Y103157620D01*
X10239285Y103157620D01*
X10144047Y103205239D01*
X10096428Y103252858D01*
X8334523Y105983334D02*
X8810714Y105983334D01*
X8239285Y105697620D02*
X8572619Y106697620D01*
X8905952Y105697620D01*
X9763095Y105697620D02*
X9191666Y105697620D01*
X9477380Y105697620D02*
X9477380Y106697620D01*
X9382142Y106554762D01*
X9286904Y106459524D01*
X9191666Y106411905D01*
X10620238Y106364286D02*
X10620238Y105697620D01*
X10382142Y106745239D02*
X10144047Y106030953D01*
X10763095Y106030953D01*
X8334523Y108523334D02*
X8810714Y108523334D01*
X8239285Y108237620D02*
X8572619Y109237620D01*
X8905952Y108237620D01*
X9763095Y108237620D02*
X9191666Y108237620D01*
X9477380Y108237620D02*
X9477380Y109237620D01*
X9382142Y109094762D01*
X9286904Y108999524D01*
X9191666Y108951905D01*
X10667857Y109237620D02*
X10191666Y109237620D01*
X10144047Y108761429D01*
X10191666Y108809048D01*
X10286904Y108856667D01*
X10525000Y108856667D01*
X10620238Y108809048D01*
X10667857Y108761429D01*
X10715476Y108666191D01*
X10715476Y108428096D01*
X10667857Y108332858D01*
X10620238Y108285239D01*
X10525000Y108237620D01*
X10286904Y108237620D01*
X10191666Y108285239D01*
X10144047Y108332858D01*
D11*
X75357142Y24450572D02*
X72357142Y24450572D01*
X74500000Y25117239D01*
X72357142Y25783905D01*
X75357142Y25783905D01*
X72357142Y26545810D02*
X72357142Y27879143D01*
X75357142Y26545810D01*
X75357142Y27879143D01*
X74214285Y28641048D02*
X74214285Y30164858D01*
X72357142Y30926762D02*
X72357142Y32260096D01*
X75357142Y31402953D01*
X72357142Y33402953D02*
X72357142Y33593429D01*
X72500000Y33783905D01*
X72642857Y33879143D01*
X72928571Y33974381D01*
X73500000Y34069620D01*
X74214285Y34069620D01*
X74785714Y33974381D01*
X75071428Y33879143D01*
X75214285Y33783905D01*
X75357142Y33593429D01*
X75357142Y33402953D01*
X75214285Y33212477D01*
X75071428Y33117239D01*
X74785714Y33022000D01*
X74214285Y32926762D01*
X73500000Y32926762D01*
X72928571Y33022000D01*
X72642857Y33117239D01*
X72500000Y33212477D01*
X72357142Y33402953D01*
X72357142Y35307715D02*
X72357142Y35498191D01*
X72500000Y35688667D01*
X72642857Y35783905D01*
X72928571Y35879143D01*
X73500000Y35974381D01*
X74214285Y35974381D01*
X74785714Y35879143D01*
X75071428Y35783905D01*
X75214285Y35688667D01*
X75357142Y35498191D01*
X75357142Y35307715D01*
X75214285Y35117239D01*
X75071428Y35022000D01*
X74785714Y34926762D01*
X74214285Y34831524D01*
X73500000Y34831524D01*
X72928571Y34926762D01*
X72642857Y35022000D01*
X72500000Y35117239D01*
X72357142Y35307715D01*
X75214285Y38260096D02*
X75357142Y38545810D01*
X75357142Y39022000D01*
X75214285Y39212477D01*
X75071428Y39307715D01*
X74785714Y39402953D01*
X74500000Y39402953D01*
X74214285Y39307715D01*
X74071428Y39212477D01*
X73928571Y39022000D01*
X73785714Y38641048D01*
X73642857Y38450572D01*
X73500000Y38355334D01*
X73214285Y38260096D01*
X72928571Y38260096D01*
X72642857Y38355334D01*
X72500000Y38450572D01*
X72357142Y38641048D01*
X72357142Y39117239D01*
X72500000Y39402953D01*
X75357142Y40260096D02*
X72357142Y40260096D01*
X72357142Y40736286D01*
X72500000Y41022000D01*
X72785714Y41212477D01*
X73071428Y41307715D01*
X73642857Y41402953D01*
X74071428Y41402953D01*
X74642857Y41307715D01*
X74928571Y41212477D01*
X75214285Y41022000D01*
X75357142Y40736286D01*
X75357142Y40260096D01*
X74214285Y42260096D02*
X74214285Y43783905D01*
X75357142Y43022000D02*
X73071428Y43022000D01*
X75357142Y44736286D02*
X72357142Y44736286D01*
X75357142Y45879143D01*
X72357142Y45879143D01*
X75357142Y46831524D02*
X73357142Y46831524D01*
X72357142Y46831524D02*
X72500000Y46736286D01*
X72642857Y46831524D01*
X72500000Y46926762D01*
X72357142Y46831524D01*
X72642857Y46831524D01*
X75214285Y47688667D02*
X75357142Y47879143D01*
X75357142Y48260096D01*
X75214285Y48450572D01*
X74928571Y48545810D01*
X74785714Y48545810D01*
X74500000Y48450572D01*
X74357142Y48260096D01*
X74357142Y47974381D01*
X74214285Y47783905D01*
X73928571Y47688667D01*
X73785714Y47688667D01*
X73500000Y47783905D01*
X73357142Y47974381D01*
X73357142Y48260096D01*
X73500000Y48450572D01*
X75214285Y50164858D02*
X75357142Y49974381D01*
X75357142Y49593429D01*
X75214285Y49402953D01*
X74928571Y49307715D01*
X73785714Y49307715D01*
X73500000Y49402953D01*
X73357142Y49593429D01*
X73357142Y49974381D01*
X73500000Y50164858D01*
X73785714Y50260096D01*
X74071428Y50260096D01*
X74357142Y49307715D01*
X75357142Y52260096D02*
X73928571Y51593429D01*
X75357142Y51117239D02*
X72357142Y51117239D01*
X72357142Y51879143D01*
X72500000Y52069620D01*
X72642857Y52164858D01*
X72928571Y52260096D01*
X73357142Y52260096D01*
X73642857Y52164858D01*
X73785714Y52069620D01*
X73928571Y51879143D01*
X73928571Y51117239D01*
X75357142Y53974381D02*
X73785714Y53974381D01*
X73500000Y53879143D01*
X73357142Y53688667D01*
X73357142Y53307715D01*
X73500000Y53117239D01*
X75214285Y53974381D02*
X75357142Y53783905D01*
X75357142Y53307715D01*
X75214285Y53117239D01*
X74928571Y53022000D01*
X74642857Y53022000D01*
X74357142Y53117239D01*
X74214285Y53307715D01*
X74214285Y53783905D01*
X74071428Y53974381D01*
X75357142Y54926762D02*
X73357142Y54926762D01*
X73642857Y54926762D02*
X73500000Y55022000D01*
X73357142Y55212477D01*
X73357142Y55498191D01*
X73500000Y55688667D01*
X73785714Y55783905D01*
X75357142Y55783905D01*
X73785714Y55783905D02*
X73500000Y55879143D01*
X73357142Y56069620D01*
X73357142Y56355334D01*
X73500000Y56545810D01*
X73785714Y56641048D01*
X75357142Y56641048D01*
X73785714Y58260096D02*
X73785714Y57593429D01*
X75357142Y57593429D02*
X72357142Y57593429D01*
X72357142Y58545810D01*
X75357142Y59307715D02*
X73357142Y59307715D01*
X72357142Y59307715D02*
X72500000Y59212477D01*
X72642857Y59307715D01*
X72500000Y59402953D01*
X72357142Y59307715D01*
X72642857Y59307715D01*
X75357142Y60545810D02*
X75214285Y60355334D01*
X74928571Y60260096D01*
X72357142Y60260096D01*
X75214285Y62069620D02*
X75357142Y61879143D01*
X75357142Y61498191D01*
X75214285Y61307715D01*
X74928571Y61212477D01*
X73785714Y61212477D01*
X73500000Y61307715D01*
X73357142Y61498191D01*
X73357142Y61879143D01*
X73500000Y62069620D01*
X73785714Y62164858D01*
X74071428Y62164858D01*
X74357142Y61212477D01*
X75357142Y65688667D02*
X73928571Y65022000D01*
X75357142Y64545810D02*
X72357142Y64545810D01*
X72357142Y65307715D01*
X72500000Y65498191D01*
X72642857Y65593429D01*
X72928571Y65688667D01*
X73357142Y65688667D01*
X73642857Y65593429D01*
X73785714Y65498191D01*
X73928571Y65307715D01*
X73928571Y64545810D01*
X75214285Y67307715D02*
X75357142Y67117239D01*
X75357142Y66736286D01*
X75214285Y66545810D01*
X74928571Y66450572D01*
X73785714Y66450572D01*
X73500000Y66545810D01*
X73357142Y66736286D01*
X73357142Y67117239D01*
X73500000Y67307715D01*
X73785714Y67402953D01*
X74071428Y67402953D01*
X74357142Y66450572D01*
X73357142Y68069620D02*
X75357142Y68545810D01*
X73357142Y69022000D01*
X75357142Y70831524D02*
X75357142Y69688667D01*
X75357142Y70260096D02*
X72357142Y70260096D01*
X72785714Y70069620D01*
X73071428Y69879143D01*
X73214285Y69688667D01*
X75071428Y71688667D02*
X75214285Y71783905D01*
X75357142Y71688667D01*
X75214285Y71593429D01*
X75071428Y71688667D01*
X75357142Y71688667D01*
X72357142Y73593429D02*
X72357142Y72641048D01*
X73785714Y72545810D01*
X73642857Y72641048D01*
X73500000Y72831524D01*
X73500000Y73307715D01*
X73642857Y73498191D01*
X73785714Y73593429D01*
X74071428Y73688667D01*
X74785714Y73688667D01*
X75071428Y73593429D01*
X75214285Y73498191D01*
X75357142Y73307715D01*
X75357142Y72831524D01*
X75214285Y72641048D01*
X75071428Y72545810D01*
D12*
X23730000Y123730000D02*
X23730000Y125000000D01*
X25000000Y123730000D02*
X23730000Y123730000D01*
X27920000Y126042929D02*
X27920000Y126440000D01*
X27160000Y126042929D02*
X27160000Y126440000D01*
X27920000Y135100000D02*
X27920000Y129100000D01*
X27160000Y135100000D02*
X27920000Y135100000D01*
X27160000Y129100000D02*
X27160000Y135100000D01*
X26270000Y126440000D02*
X26270000Y129100000D01*
X25380000Y126110000D02*
X25380000Y126440000D01*
X24620000Y126110000D02*
X24620000Y126440000D01*
X25280000Y129100000D02*
X25280000Y135100000D01*
X25160000Y129100000D02*
X25160000Y135100000D01*
X25040000Y129100000D02*
X25040000Y135100000D01*
X24920000Y129100000D02*
X24920000Y135100000D01*
X24800000Y129100000D02*
X24800000Y135100000D01*
X24680000Y129100000D02*
X24680000Y135100000D01*
X25380000Y135100000D02*
X25380000Y129100000D01*
X24620000Y135100000D02*
X25380000Y135100000D01*
X24620000Y129100000D02*
X24620000Y135100000D01*
X23670000Y129100000D02*
X23670000Y126440000D01*
X28870000Y129100000D02*
X23670000Y129100000D01*
X28870000Y126440000D02*
X28870000Y129100000D01*
X23670000Y126440000D02*
X28870000Y126440000D01*
X45370000Y116410000D02*
X45370000Y92710000D01*
X77170000Y116410000D02*
X45370000Y116410000D01*
X77170000Y92710000D02*
X77170000Y116410000D01*
X45370000Y92710000D02*
X77170000Y92710000D01*
X45740000Y116060000D02*
X47070000Y116060000D01*
X45740000Y114730000D02*
X45740000Y116060000D01*
X45740000Y113460000D02*
X48400000Y113460000D01*
X48400000Y113460000D02*
X48400000Y93080000D01*
X45740000Y113460000D02*
X45740000Y93080000D01*
X45740000Y93080000D02*
X48400000Y93080000D01*
X14124000Y52566000D02*
X14124000Y56806000D01*
X16864000Y52566000D02*
X16864000Y56806000D01*
X14124000Y52566000D02*
X14829000Y52566000D01*
X16159000Y52566000D02*
X16864000Y52566000D01*
X14124000Y56806000D02*
X14829000Y56806000D01*
X16159000Y56806000D02*
X16864000Y56806000D01*
X41785000Y121020000D02*
X39185000Y121020000D01*
X41785000Y135720000D02*
X41785000Y121020000D01*
X32585000Y121020000D02*
X32585000Y122920000D01*
X35285000Y121020000D02*
X32585000Y121020000D01*
X32585000Y135720000D02*
X41785000Y135720000D01*
X32585000Y126920000D02*
X32585000Y135720000D01*
X41985000Y121870000D02*
X41985000Y120820000D01*
X40935000Y120820000D02*
X41985000Y120820000D01*
X6730000Y110050000D02*
X7840000Y110050000D01*
X7840000Y110050000D02*
X7840000Y108720000D01*
X-5900000Y110050000D02*
X-5900000Y46430000D01*
X-5900000Y46430000D02*
X2730000Y46430000D01*
X2730000Y110050000D02*
X2730000Y46430000D01*
X-5900000Y110050000D02*
X2730000Y110050000D01*
X-5900000Y49030000D02*
X2730000Y49030000D01*
X-5900000Y51570000D02*
X2730000Y51570000D01*
X-5900000Y54110000D02*
X2730000Y54110000D01*
X-5900000Y56650000D02*
X2730000Y56650000D01*
X-5900000Y59190000D02*
X2730000Y59190000D01*
X-5900000Y61730000D02*
X2730000Y61730000D01*
X-5900000Y64270000D02*
X2730000Y64270000D01*
X-5900000Y66810000D02*
X2730000Y66810000D01*
X-5900000Y69350000D02*
X2730000Y69350000D01*
X-5900000Y71890000D02*
X2730000Y71890000D01*
X-5900000Y74430000D02*
X2730000Y74430000D01*
X-5900000Y76970000D02*
X2730000Y76970000D01*
X-5900000Y79510000D02*
X2730000Y79510000D01*
X-5900000Y82050000D02*
X2730000Y82050000D01*
X-5900000Y84590000D02*
X2730000Y84590000D01*
X-5900000Y87130000D02*
X2730000Y87130000D01*
X-5900000Y89670000D02*
X2730000Y89670000D01*
X-5900000Y92210000D02*
X2730000Y92210000D01*
X-5900000Y94750000D02*
X2730000Y94750000D01*
X-5900000Y97290000D02*
X2730000Y97290000D01*
X-5900000Y99830000D02*
X2730000Y99830000D01*
X-5900000Y102370000D02*
X2730000Y102370000D01*
X-5900000Y104910000D02*
X2730000Y104910000D01*
X-5900000Y107450000D02*
X2730000Y107450000D01*
X5240000Y47400000D02*
X5680000Y47400000D01*
X2730000Y47400000D02*
X3140000Y47400000D01*
X5240000Y48120000D02*
X5680000Y48120000D01*
X2730000Y48120000D02*
X3140000Y48120000D01*
X5240000Y49940000D02*
X5680000Y49940000D01*
X2730000Y49940000D02*
X3140000Y49940000D01*
X5240000Y50660000D02*
X5680000Y50660000D01*
X2730000Y50660000D02*
X3140000Y50660000D01*
X5240000Y52480000D02*
X5680000Y52480000D01*
X2730000Y52480000D02*
X3140000Y52480000D01*
X5240000Y53200000D02*
X5680000Y53200000D01*
X2730000Y53200000D02*
X3140000Y53200000D01*
X5240000Y55020000D02*
X5680000Y55020000D01*
X2730000Y55020000D02*
X3140000Y55020000D01*
X5240000Y55740000D02*
X5680000Y55740000D01*
X2730000Y55740000D02*
X3140000Y55740000D01*
X5240000Y57560000D02*
X5680000Y57560000D01*
X2730000Y57560000D02*
X3140000Y57560000D01*
X5240000Y58280000D02*
X5680000Y58280000D01*
X2730000Y58280000D02*
X3140000Y58280000D01*
X5240000Y60100000D02*
X5680000Y60100000D01*
X2730000Y60100000D02*
X3140000Y60100000D01*
X5240000Y60820000D02*
X5680000Y60820000D01*
X2730000Y60820000D02*
X3140000Y60820000D01*
X5240000Y62640000D02*
X5680000Y62640000D01*
X2730000Y62640000D02*
X3140000Y62640000D01*
X5240000Y63360000D02*
X5680000Y63360000D01*
X2730000Y63360000D02*
X3140000Y63360000D01*
X5240000Y65180000D02*
X5680000Y65180000D01*
X2730000Y65180000D02*
X3140000Y65180000D01*
X5240000Y65900000D02*
X5680000Y65900000D01*
X2730000Y65900000D02*
X3140000Y65900000D01*
X5240000Y67720000D02*
X5680000Y67720000D01*
X2730000Y67720000D02*
X3140000Y67720000D01*
X5240000Y68440000D02*
X5680000Y68440000D01*
X2730000Y68440000D02*
X3140000Y68440000D01*
X5240000Y70260000D02*
X5680000Y70260000D01*
X2730000Y70260000D02*
X3140000Y70260000D01*
X5240000Y70980000D02*
X5680000Y70980000D01*
X2730000Y70980000D02*
X3140000Y70980000D01*
X5240000Y72800000D02*
X5680000Y72800000D01*
X2730000Y72800000D02*
X3140000Y72800000D01*
X5240000Y73520000D02*
X5680000Y73520000D01*
X2730000Y73520000D02*
X3140000Y73520000D01*
X5240000Y75340000D02*
X5680000Y75340000D01*
X2730000Y75340000D02*
X3140000Y75340000D01*
X5240000Y76060000D02*
X5680000Y76060000D01*
X2730000Y76060000D02*
X3140000Y76060000D01*
X5240000Y77880000D02*
X5680000Y77880000D01*
X2730000Y77880000D02*
X3140000Y77880000D01*
X5240000Y78600000D02*
X5680000Y78600000D01*
X2730000Y78600000D02*
X3140000Y78600000D01*
X5240000Y80420000D02*
X5680000Y80420000D01*
X2730000Y80420000D02*
X3140000Y80420000D01*
X5240000Y81140000D02*
X5680000Y81140000D01*
X2730000Y81140000D02*
X3140000Y81140000D01*
X5240000Y82960000D02*
X5680000Y82960000D01*
X2730000Y82960000D02*
X3140000Y82960000D01*
X5240000Y83680000D02*
X5680000Y83680000D01*
X2730000Y83680000D02*
X3140000Y83680000D01*
X5240000Y85500000D02*
X5680000Y85500000D01*
X2730000Y85500000D02*
X3140000Y85500000D01*
X5240000Y86220000D02*
X5680000Y86220000D01*
X2730000Y86220000D02*
X3140000Y86220000D01*
X5240000Y88040000D02*
X5680000Y88040000D01*
X2730000Y88040000D02*
X3140000Y88040000D01*
X5240000Y88760000D02*
X5680000Y88760000D01*
X2730000Y88760000D02*
X3140000Y88760000D01*
X5240000Y90580000D02*
X5680000Y90580000D01*
X2730000Y90580000D02*
X3140000Y90580000D01*
X5240000Y91300000D02*
X5680000Y91300000D01*
X2730000Y91300000D02*
X3140000Y91300000D01*
X5240000Y93120000D02*
X5680000Y93120000D01*
X2730000Y93120000D02*
X3140000Y93120000D01*
X5240000Y93840000D02*
X5680000Y93840000D01*
X2730000Y93840000D02*
X3140000Y93840000D01*
X5240000Y95660000D02*
X5680000Y95660000D01*
X2730000Y95660000D02*
X3140000Y95660000D01*
X5240000Y96380000D02*
X5680000Y96380000D01*
X2730000Y96380000D02*
X3140000Y96380000D01*
X5240000Y98200000D02*
X5680000Y98200000D01*
X2730000Y98200000D02*
X3140000Y98200000D01*
X5240000Y98920000D02*
X5680000Y98920000D01*
X2730000Y98920000D02*
X3140000Y98920000D01*
X5240000Y100740000D02*
X5680000Y100740000D01*
X2730000Y100740000D02*
X3140000Y100740000D01*
X5240000Y101460000D02*
X5680000Y101460000D01*
X2730000Y101460000D02*
X3140000Y101460000D01*
X5240000Y103280000D02*
X5680000Y103280000D01*
X2730000Y103280000D02*
X3140000Y103280000D01*
X5240000Y104000000D02*
X5680000Y104000000D01*
X2730000Y104000000D02*
X3140000Y104000000D01*
X5240000Y105820000D02*
X5680000Y105820000D01*
X2730000Y105820000D02*
X3140000Y105820000D01*
X5240000Y106540000D02*
X5680000Y106540000D01*
X2730000Y106540000D02*
X3140000Y106540000D01*
X5240000Y108360000D02*
X5620000Y108360000D01*
X2730000Y108360000D02*
X3140000Y108360000D01*
X5240000Y109080000D02*
X5620000Y109080000D01*
X2730000Y109080000D02*
X3140000Y109080000D01*
X-5900000Y107568100D02*
X2730000Y107568100D01*
X-5900000Y107686195D02*
X2730000Y107686195D01*
X-5900000Y107804290D02*
X2730000Y107804290D01*
X-5900000Y107922385D02*
X2730000Y107922385D01*
X-5900000Y108040480D02*
X2730000Y108040480D01*
X-5900000Y108158575D02*
X2730000Y108158575D01*
X-5900000Y108276670D02*
X2730000Y108276670D01*
X-5900000Y108394765D02*
X2730000Y108394765D01*
X-5900000Y108512860D02*
X2730000Y108512860D01*
X-5900000Y108630955D02*
X2730000Y108630955D01*
X-5900000Y108749050D02*
X2730000Y108749050D01*
X-5900000Y108867145D02*
X2730000Y108867145D01*
X-5900000Y108985240D02*
X2730000Y108985240D01*
X-5900000Y109103335D02*
X2730000Y109103335D01*
X-5900000Y109221430D02*
X2730000Y109221430D01*
X-5900000Y109339525D02*
X2730000Y109339525D01*
X-5900000Y109457620D02*
X2730000Y109457620D01*
X-5900000Y109575715D02*
X2730000Y109575715D01*
X-5900000Y109693810D02*
X2730000Y109693810D01*
X-5900000Y109811905D02*
X2730000Y109811905D01*
X-5900000Y109930000D02*
X2730000Y109930000D01*
X68894000Y56341000D02*
X68894000Y61401000D01*
X68894000Y61401000D02*
X17974000Y61401000D01*
X17974000Y61401000D02*
X17974000Y49281000D01*
X17974000Y49281000D02*
X68894000Y49281000D01*
X68894000Y49281000D02*
X68894000Y54341000D01*
X68894000Y54341000D02*
G75*
G02*
X68894000Y56341000I0J1000000D01*
G01*
X48241000Y128251000D02*
X46911000Y128251000D01*
X48241000Y129581000D02*
X48241000Y128251000D01*
X48241000Y130851000D02*
X45581000Y130851000D01*
X45581000Y130851000D02*
X45581000Y135991000D01*
X48241000Y130851000D02*
X48241000Y135991000D01*
X48241000Y135991000D02*
X45581000Y135991000D01*
X51996225Y133846000D02*
X51996225Y133346000D01*
X51746225Y133596000D02*
X52246225Y133596000D01*
X57152000Y132405000D02*
X57152000Y131837000D01*
X57112000Y132639000D02*
X57112000Y131603000D01*
X57072000Y132798000D02*
X57072000Y131444000D01*
X57032000Y132926000D02*
X57032000Y131316000D01*
X56992000Y133036000D02*
X56992000Y131206000D01*
X56952000Y133132000D02*
X56952000Y131110000D01*
X56912000Y133219000D02*
X56912000Y131023000D01*
X56872000Y133299000D02*
X56872000Y130943000D01*
X56832000Y131081000D02*
X56832000Y130870000D01*
X56832000Y133372000D02*
X56832000Y133161000D01*
X56792000Y131081000D02*
X56792000Y130802000D01*
X56792000Y133440000D02*
X56792000Y133161000D01*
X56752000Y131081000D02*
X56752000Y130738000D01*
X56752000Y133504000D02*
X56752000Y133161000D01*
X56712000Y131081000D02*
X56712000Y130678000D01*
X56712000Y133564000D02*
X56712000Y133161000D01*
X56672000Y131081000D02*
X56672000Y130621000D01*
X56672000Y133621000D02*
X56672000Y133161000D01*
X56632000Y131081000D02*
X56632000Y130567000D01*
X56632000Y133675000D02*
X56632000Y133161000D01*
X56592000Y131081000D02*
X56592000Y130516000D01*
X56592000Y133726000D02*
X56592000Y133161000D01*
X56552000Y131081000D02*
X56552000Y130468000D01*
X56552000Y133774000D02*
X56552000Y133161000D01*
X56512000Y131081000D02*
X56512000Y130422000D01*
X56512000Y133820000D02*
X56512000Y133161000D01*
X56472000Y131081000D02*
X56472000Y130378000D01*
X56472000Y133864000D02*
X56472000Y133161000D01*
X56432000Y131081000D02*
X56432000Y130336000D01*
X56432000Y133906000D02*
X56432000Y133161000D01*
X56392000Y131081000D02*
X56392000Y130295000D01*
X56392000Y133947000D02*
X56392000Y133161000D01*
X56352000Y131081000D02*
X56352000Y130257000D01*
X56352000Y133985000D02*
X56352000Y133161000D01*
X56312000Y131081000D02*
X56312000Y130220000D01*
X56312000Y134022000D02*
X56312000Y133161000D01*
X56272000Y131081000D02*
X56272000Y130184000D01*
X56272000Y134058000D02*
X56272000Y133161000D01*
X56232000Y131081000D02*
X56232000Y130150000D01*
X56232000Y134092000D02*
X56232000Y133161000D01*
X56192000Y131081000D02*
X56192000Y130117000D01*
X56192000Y134125000D02*
X56192000Y133161000D01*
X56152000Y131081000D02*
X56152000Y130086000D01*
X56152000Y134156000D02*
X56152000Y133161000D01*
X56112000Y131081000D02*
X56112000Y130056000D01*
X56112000Y134186000D02*
X56112000Y133161000D01*
X56072000Y131081000D02*
X56072000Y130026000D01*
X56072000Y134216000D02*
X56072000Y133161000D01*
X56032000Y131081000D02*
X56032000Y129999000D01*
X56032000Y134243000D02*
X56032000Y133161000D01*
X55992000Y131081000D02*
X55992000Y129972000D01*
X55992000Y134270000D02*
X55992000Y133161000D01*
X55952000Y131081000D02*
X55952000Y129946000D01*
X55952000Y134296000D02*
X55952000Y133161000D01*
X55912000Y131081000D02*
X55912000Y129921000D01*
X55912000Y134321000D02*
X55912000Y133161000D01*
X55872000Y131081000D02*
X55872000Y129897000D01*
X55872000Y134345000D02*
X55872000Y133161000D01*
X55832000Y131081000D02*
X55832000Y129874000D01*
X55832000Y134368000D02*
X55832000Y133161000D01*
X55792000Y131081000D02*
X55792000Y129853000D01*
X55792000Y134389000D02*
X55792000Y133161000D01*
X55752000Y131081000D02*
X55752000Y129831000D01*
X55752000Y134411000D02*
X55752000Y133161000D01*
X55712000Y131081000D02*
X55712000Y129811000D01*
X55712000Y134431000D02*
X55712000Y133161000D01*
X55672000Y131081000D02*
X55672000Y129792000D01*
X55672000Y134450000D02*
X55672000Y133161000D01*
X55632000Y131081000D02*
X55632000Y129773000D01*
X55632000Y134469000D02*
X55632000Y133161000D01*
X55592000Y131081000D02*
X55592000Y129756000D01*
X55592000Y134486000D02*
X55592000Y133161000D01*
X55552000Y131081000D02*
X55552000Y129739000D01*
X55552000Y134503000D02*
X55552000Y133161000D01*
X55512000Y131081000D02*
X55512000Y129723000D01*
X55512000Y134519000D02*
X55512000Y133161000D01*
X55472000Y131081000D02*
X55472000Y129707000D01*
X55472000Y134535000D02*
X55472000Y133161000D01*
X55432000Y131081000D02*
X55432000Y129693000D01*
X55432000Y134549000D02*
X55432000Y133161000D01*
X55392000Y131081000D02*
X55392000Y129679000D01*
X55392000Y134563000D02*
X55392000Y133161000D01*
X55352000Y131081000D02*
X55352000Y129666000D01*
X55352000Y134576000D02*
X55352000Y133161000D01*
X55312000Y131081000D02*
X55312000Y129653000D01*
X55312000Y134589000D02*
X55312000Y133161000D01*
X55272000Y131081000D02*
X55272000Y129641000D01*
X55272000Y134601000D02*
X55272000Y133161000D01*
X55231000Y131081000D02*
X55231000Y129630000D01*
X55231000Y134612000D02*
X55231000Y133161000D01*
X55191000Y131081000D02*
X55191000Y129620000D01*
X55191000Y134622000D02*
X55191000Y133161000D01*
X55151000Y131081000D02*
X55151000Y129610000D01*
X55151000Y134632000D02*
X55151000Y133161000D01*
X55111000Y131081000D02*
X55111000Y129601000D01*
X55111000Y134641000D02*
X55111000Y133161000D01*
X55071000Y131081000D02*
X55071000Y129593000D01*
X55071000Y134649000D02*
X55071000Y133161000D01*
X55031000Y131081000D02*
X55031000Y129585000D01*
X55031000Y134657000D02*
X55031000Y133161000D01*
X54991000Y131081000D02*
X54991000Y129578000D01*
X54991000Y134664000D02*
X54991000Y133161000D01*
X54951000Y131081000D02*
X54951000Y129571000D01*
X54951000Y134671000D02*
X54951000Y133161000D01*
X54911000Y131081000D02*
X54911000Y129565000D01*
X54911000Y134677000D02*
X54911000Y133161000D01*
X54871000Y131081000D02*
X54871000Y129560000D01*
X54871000Y134682000D02*
X54871000Y133161000D01*
X54831000Y131081000D02*
X54831000Y129556000D01*
X54831000Y134686000D02*
X54831000Y133161000D01*
X54791000Y131081000D02*
X54791000Y129552000D01*
X54791000Y134690000D02*
X54791000Y133161000D01*
X54751000Y134694000D02*
X54751000Y129548000D01*
X54711000Y134697000D02*
X54711000Y129545000D01*
X54671000Y134699000D02*
X54671000Y129543000D01*
X54631000Y134700000D02*
X54631000Y129542000D01*
X54591000Y134701000D02*
X54591000Y129541000D01*
X54551000Y134701000D02*
X54551000Y129541000D01*
X57171000Y132121000D02*
G75*
G03*
X57171000Y132121000I-2620000J0D01*
G01*
X68660000Y72304000D02*
X68660000Y90338000D01*
X35386000Y72304000D02*
X68660000Y72304000D01*
X63453000Y87671000D02*
X35386000Y87671000D01*
X63453000Y87671000D02*
X63453000Y90338000D01*
X35386000Y90338000D02*
X35386000Y72301000D01*
X65993000Y74971000D02*
X35386000Y74971000D01*
X65993000Y74971000D02*
X65993000Y72301000D01*
X68660000Y90338000D02*
X65993000Y90338000D01*
X63453000Y90338000D02*
X35386000Y90338000D01*
X65993000Y87671000D02*
X65993000Y90338000D01*
X63453000Y87671000D02*
X65993000Y87671000D01*
X24792000Y114175000D02*
X24792000Y113470000D01*
X24792000Y116210000D02*
X24792000Y115505000D01*
X20552000Y114175000D02*
X20552000Y113470000D01*
X20552000Y116210000D02*
X20552000Y115505000D01*
X20552000Y113470000D02*
X24792000Y113470000D01*
X20552000Y116210000D02*
X24792000Y116210000D01*
X24792000Y89410000D02*
X24792000Y88705000D01*
X24792000Y91445000D02*
X24792000Y90740000D01*
X20552000Y89410000D02*
X20552000Y88705000D01*
X20552000Y91445000D02*
X20552000Y90740000D01*
X20552000Y88705000D02*
X24792000Y88705000D01*
X20552000Y91445000D02*
X24792000Y91445000D01*
X21692000Y112995000D02*
X20442000Y112995000D01*
X20442000Y112995000D02*
X20442000Y95095000D01*
X20442000Y95095000D02*
X24942000Y95095000D01*
X24942000Y95095000D02*
X24942000Y112995000D01*
X24942000Y112995000D02*
X23692000Y112995000D01*
X23692000Y112995000D02*
G75*
G02*
X21692000Y112995000I-1000000J0D01*
G01*
X24942000Y88230000D02*
X23692000Y88230000D01*
X24942000Y70330000D02*
X24942000Y88230000D01*
X20442000Y70330000D02*
X24942000Y70330000D01*
X20442000Y88230000D02*
X20442000Y70330000D01*
X21692000Y88230000D02*
X20442000Y88230000D01*
X23692000Y88230000D02*
G75*
G02*
X21692000Y88230000I-1000000J0D01*
G01*
X38990000Y112235000D02*
X40320000Y112235000D01*
X40320000Y112235000D02*
X40320000Y110905000D01*
X40320000Y109635000D02*
X40320000Y96875000D01*
X37660000Y96875000D02*
X40320000Y96875000D01*
X37660000Y109635000D02*
X37660000Y96875000D01*
X37660000Y109635000D02*
X40320000Y109635000D01*
X55000Y31103000D02*
X8655000Y31103000D01*
X8655000Y31103000D02*
X8655000Y133000D01*
X8655000Y133000D02*
X55000Y133000D01*
X9549338Y11553000D02*
X9549338Y11053000D01*
X9549338Y11053000D02*
X9116325Y11303000D01*
X9116325Y11303000D02*
X9549338Y11553000D01*
X18772000Y11843000D02*
X18442000Y11843000D01*
X18442000Y11843000D02*
X18442000Y18383000D01*
X18442000Y18383000D02*
X18772000Y18383000D01*
X20852000Y11843000D02*
X21182000Y11843000D01*
X21182000Y11843000D02*
X21182000Y18383000D01*
X21182000Y18383000D02*
X20852000Y18383000D01*
X14578000Y22955000D02*
X14248000Y22955000D01*
X14578000Y16415000D02*
X14578000Y22955000D01*
X14248000Y16415000D02*
X14578000Y16415000D01*
X11838000Y22955000D02*
X12168000Y22955000D01*
X11838000Y16415000D02*
X11838000Y22955000D01*
X12168000Y16415000D02*
X11838000Y16415000D01*
X15470000Y14129000D02*
X15140000Y14129000D01*
X15140000Y14129000D02*
X15140000Y20669000D01*
X15140000Y20669000D02*
X15470000Y20669000D01*
X17550000Y14129000D02*
X17880000Y14129000D01*
X17880000Y14129000D02*
X17880000Y20669000D01*
X17880000Y20669000D02*
X17550000Y20669000D01*
X65640000Y42550000D02*
X65640000Y41220000D01*
X64310000Y42550000D02*
X65640000Y42550000D01*
X65640000Y39950000D02*
X65640000Y37350000D01*
X63040000Y39950000D02*
X65640000Y39950000D01*
X63040000Y42550000D02*
X63040000Y39950000D01*
X65640000Y37350000D02*
X27420000Y37350000D01*
X63040000Y42550000D02*
X27420000Y42550000D01*
X27420000Y42550000D02*
X27420000Y37350000D01*
X27420000Y6990000D02*
X27420000Y1790000D01*
X63040000Y6990000D02*
X27420000Y6990000D01*
X65640000Y1790000D02*
X27420000Y1790000D01*
X63040000Y6990000D02*
X63040000Y4390000D01*
X63040000Y4390000D02*
X65640000Y4390000D01*
X65640000Y4390000D02*
X65640000Y1790000D01*
X64310000Y6990000D02*
X65640000Y6990000D01*
X65640000Y6990000D02*
X65640000Y5660000D01*
X5708200Y127799200D02*
X6413200Y127799200D01*
X3673200Y127799200D02*
X4378200Y127799200D01*
X5708200Y123559200D02*
X6413200Y123559200D01*
X3673200Y123559200D02*
X4378200Y123559200D01*
X6413200Y123559200D02*
X6413200Y127799200D01*
X3673200Y123559200D02*
X3673200Y127799200D01*
D10*
X11000000Y134000000D02*
X11000000Y138000000D01*
X11000000Y140000000D02*
X11000000Y144000000D01*
X3000000Y134000000D02*
X11000000Y134000000D01*
X3000000Y144000000D02*
X11000000Y144000000D01*
X1000000Y136000000D02*
X1000000Y142000000D01*
X-8500000Y134850000D02*
X450000Y134850000D01*
X-8500000Y143150000D02*
X500000Y143150000D01*
X-8500000Y134850000D02*
X-8500000Y143150000D01*
D12*
X8118200Y122429200D02*
X8448200Y122429200D01*
X8118200Y128969200D02*
X8118200Y122429200D01*
X8448200Y128969200D02*
X8118200Y128969200D01*
X10858200Y122429200D02*
X10528200Y122429200D01*
X10858200Y128969200D02*
X10858200Y122429200D01*
X10528200Y128969200D02*
X10858200Y128969200D01*
X67025000Y122025000D02*
X67025000Y126525000D01*
X63025000Y120775000D02*
X64525000Y120775000D01*
X60525000Y126525000D02*
X60525000Y122025000D01*
X64525000Y127775000D02*
X63025000Y127775000D01*
X64525000Y138325000D02*
X63025000Y138325000D01*
X60525000Y137075000D02*
X60525000Y132575000D01*
X63025000Y131325000D02*
X64525000Y131325000D01*
X67025000Y132575000D02*
X67025000Y137075000D01*
D10*
X22608333Y128612381D02*
X22608333Y129326667D01*
X22655952Y129469524D01*
X22751190Y129564762D01*
X22894047Y129612381D01*
X22989285Y129612381D01*
X22227380Y128612381D02*
X21608333Y128612381D01*
X21941666Y128993334D01*
X21798809Y128993334D01*
X21703571Y129040953D01*
X21655952Y129088572D01*
X21608333Y129183810D01*
X21608333Y129421905D01*
X21655952Y129517143D01*
X21703571Y129564762D01*
X21798809Y129612381D01*
X22084523Y129612381D01*
X22179761Y129564762D01*
X22227380Y129517143D01*
X63032380Y97251667D02*
X63746666Y97251667D01*
X63889523Y97204048D01*
X63984761Y97108810D01*
X64032380Y96965953D01*
X64032380Y96870715D01*
X63127619Y97680239D02*
X63080000Y97727858D01*
X63032380Y97823096D01*
X63032380Y98061191D01*
X63080000Y98156429D01*
X63127619Y98204048D01*
X63222857Y98251667D01*
X63318095Y98251667D01*
X63460952Y98204048D01*
X64032380Y97632620D01*
X64032380Y98251667D01*
X54221666Y97308096D02*
X54221666Y97784286D01*
X54507380Y97212858D02*
X53507380Y97546191D01*
X54507380Y97879524D01*
X53983571Y98212858D02*
X53983571Y98546191D01*
X54507380Y98689048D02*
X54507380Y98212858D01*
X53507380Y98212858D01*
X53507380Y98689048D01*
X54126428Y99117620D02*
X54126428Y99879524D01*
X54507380Y100355715D02*
X53840714Y100355715D01*
X53935952Y100355715D02*
X53888333Y100403334D01*
X53840714Y100498572D01*
X53840714Y100641429D01*
X53888333Y100736667D01*
X53983571Y100784286D01*
X54507380Y100784286D01*
X53983571Y100784286D02*
X53888333Y100831905D01*
X53840714Y100927143D01*
X53840714Y101070000D01*
X53888333Y101165239D01*
X53983571Y101212858D01*
X54507380Y101212858D01*
X54507380Y101689048D02*
X53840714Y101689048D01*
X53507380Y101689048D02*
X53555000Y101641429D01*
X53602619Y101689048D01*
X53555000Y101736667D01*
X53507380Y101689048D01*
X53602619Y101689048D01*
X54459761Y102593810D02*
X54507380Y102498572D01*
X54507380Y102308096D01*
X54459761Y102212858D01*
X54412142Y102165239D01*
X54316904Y102117620D01*
X54031190Y102117620D01*
X53935952Y102165239D01*
X53888333Y102212858D01*
X53840714Y102308096D01*
X53840714Y102498572D01*
X53888333Y102593810D01*
X54507380Y103022381D02*
X53840714Y103022381D01*
X54031190Y103022381D02*
X53935952Y103070000D01*
X53888333Y103117620D01*
X53840714Y103212858D01*
X53840714Y103308096D01*
X54507380Y103784286D02*
X54459761Y103689048D01*
X54412142Y103641429D01*
X54316904Y103593810D01*
X54031190Y103593810D01*
X53935952Y103641429D01*
X53888333Y103689048D01*
X53840714Y103784286D01*
X53840714Y103927143D01*
X53888333Y104022381D01*
X53935952Y104070000D01*
X54031190Y104117620D01*
X54316904Y104117620D01*
X54412142Y104070000D01*
X54459761Y104022381D01*
X54507380Y103927143D01*
X54507380Y103784286D01*
X54459761Y104498572D02*
X54507380Y104641429D01*
X54507380Y104879524D01*
X54459761Y104974762D01*
X54412142Y105022381D01*
X54316904Y105070000D01*
X54221666Y105070000D01*
X54126428Y105022381D01*
X54078809Y104974762D01*
X54031190Y104879524D01*
X53983571Y104689048D01*
X53935952Y104593810D01*
X53888333Y104546191D01*
X53793095Y104498572D01*
X53697857Y104498572D01*
X53602619Y104546191D01*
X53555000Y104593810D01*
X53507380Y104689048D01*
X53507380Y104927143D01*
X53555000Y105070000D01*
X54507380Y105498572D02*
X53507380Y105498572D01*
X53507380Y105736667D01*
X53555000Y105879524D01*
X53650238Y105974762D01*
X53745476Y106022381D01*
X53935952Y106070000D01*
X54078809Y106070000D01*
X54269285Y106022381D01*
X54364523Y105974762D01*
X54459761Y105879524D01*
X54507380Y105736667D01*
X54507380Y105498572D01*
X54126428Y106498572D02*
X54126428Y107260477D01*
X54507380Y108212858D02*
X54507380Y107736667D01*
X53507380Y107736667D01*
X54507380Y109022381D02*
X54507380Y108546191D01*
X53507380Y108546191D01*
X54412142Y109927143D02*
X54459761Y109879524D01*
X54507380Y109736667D01*
X54507380Y109641429D01*
X54459761Y109498572D01*
X54364523Y109403334D01*
X54269285Y109355715D01*
X54078809Y109308096D01*
X53935952Y109308096D01*
X53745476Y109355715D01*
X53650238Y109403334D01*
X53555000Y109498572D01*
X53507380Y109641429D01*
X53507380Y109736667D01*
X53555000Y109879524D01*
X53602619Y109927143D01*
X54507380Y110355715D02*
X53507380Y110355715D01*
X54507380Y110927143D01*
X53507380Y110927143D01*
X53507380Y111260477D02*
X54507380Y111593810D01*
X53507380Y111927143D01*
X15327333Y57396858D02*
X15279714Y57349239D01*
X15136857Y57301620D01*
X15041619Y57301620D01*
X14898761Y57349239D01*
X14803523Y57444477D01*
X14755904Y57539715D01*
X14708285Y57730191D01*
X14708285Y57873048D01*
X14755904Y58063524D01*
X14803523Y58158762D01*
X14898761Y58254000D01*
X15041619Y58301620D01*
X15136857Y58301620D01*
X15279714Y58254000D01*
X15327333Y58206381D01*
X15660666Y58301620D02*
X16279714Y58301620D01*
X15946380Y57920667D01*
X16089238Y57920667D01*
X16184476Y57873048D01*
X16232095Y57825429D01*
X16279714Y57730191D01*
X16279714Y57492096D01*
X16232095Y57396858D01*
X16184476Y57349239D01*
X16089238Y57301620D01*
X15803523Y57301620D01*
X15708285Y57349239D01*
X15660666Y57396858D01*
X33356666Y119377620D02*
X33356666Y118663334D01*
X33309047Y118520477D01*
X33213809Y118425239D01*
X33070952Y118377620D01*
X32975714Y118377620D01*
X34261428Y119044286D02*
X34261428Y118377620D01*
X34023333Y119425239D02*
X33785238Y118710953D01*
X34404285Y118710953D01*
X896666Y111767620D02*
X896666Y111053334D01*
X849047Y110910477D01*
X753809Y110815239D01*
X610952Y110767620D01*
X515714Y110767620D01*
X1896666Y110767620D02*
X1325238Y110767620D01*
X1610952Y110767620D02*
X1610952Y111767620D01*
X1515714Y111624762D01*
X1420476Y111529524D01*
X1325238Y111481905D01*
X36243095Y45267620D02*
X36243095Y44458096D01*
X36290714Y44362858D01*
X36338333Y44315239D01*
X36433571Y44267620D01*
X36624047Y44267620D01*
X36719285Y44315239D01*
X36766904Y44362858D01*
X36814523Y44458096D01*
X36814523Y45267620D01*
X37195476Y45267620D02*
X37814523Y45267620D01*
X37481190Y44886667D01*
X37624047Y44886667D01*
X37719285Y44839048D01*
X37766904Y44791429D01*
X37814523Y44696191D01*
X37814523Y44458096D01*
X37766904Y44362858D01*
X37719285Y44315239D01*
X37624047Y44267620D01*
X37338333Y44267620D01*
X37243095Y44315239D01*
X37195476Y44362858D01*
X49855761Y126279096D02*
X49903380Y126421953D01*
X49903380Y126660048D01*
X49855761Y126755286D01*
X49808142Y126802905D01*
X49712904Y126850524D01*
X49617666Y126850524D01*
X49522428Y126802905D01*
X49474809Y126755286D01*
X49427190Y126660048D01*
X49379571Y126469572D01*
X49331952Y126374334D01*
X49284333Y126326715D01*
X49189095Y126279096D01*
X49093857Y126279096D01*
X48998619Y126326715D01*
X48951000Y126374334D01*
X48903380Y126469572D01*
X48903380Y126707667D01*
X48951000Y126850524D01*
X49903380Y127802905D02*
X49903380Y127231477D01*
X49903380Y127517191D02*
X48903380Y127517191D01*
X49046238Y127421953D01*
X49141476Y127326715D01*
X49189095Y127231477D01*
X54531333Y128080858D02*
X54483714Y128033239D01*
X54340857Y127985620D01*
X54245619Y127985620D01*
X54102761Y128033239D01*
X54007523Y128128477D01*
X53959904Y128223715D01*
X53912285Y128414191D01*
X53912285Y128557048D01*
X53959904Y128747524D01*
X54007523Y128842762D01*
X54102761Y128938000D01*
X54245619Y128985620D01*
X54340857Y128985620D01*
X54483714Y128938000D01*
X54531333Y128890381D01*
X55388476Y128985620D02*
X55198000Y128985620D01*
X55102761Y128938000D01*
X55055142Y128890381D01*
X54959904Y128747524D01*
X54912285Y128557048D01*
X54912285Y128176096D01*
X54959904Y128080858D01*
X55007523Y128033239D01*
X55102761Y127985620D01*
X55293238Y127985620D01*
X55388476Y128033239D01*
X55436095Y128080858D01*
X55483714Y128176096D01*
X55483714Y128414191D01*
X55436095Y128509429D01*
X55388476Y128557048D01*
X55293238Y128604667D01*
X55102761Y128604667D01*
X55007523Y128557048D01*
X54959904Y128509429D01*
X54912285Y128414191D01*
X45165095Y71708620D02*
X45165095Y70899096D01*
X45212714Y70803858D01*
X45260333Y70756239D01*
X45355571Y70708620D01*
X45546047Y70708620D01*
X45641285Y70756239D01*
X45688904Y70803858D01*
X45736523Y70899096D01*
X45736523Y71708620D01*
X46641285Y71375286D02*
X46641285Y70708620D01*
X46403190Y71756239D02*
X46165095Y71041953D01*
X46784142Y71041953D01*
X19747142Y114673334D02*
X19794761Y114625715D01*
X19842380Y114482858D01*
X19842380Y114387620D01*
X19794761Y114244762D01*
X19699523Y114149524D01*
X19604285Y114101905D01*
X19413809Y114054286D01*
X19270952Y114054286D01*
X19080476Y114101905D01*
X18985238Y114149524D01*
X18890000Y114244762D01*
X18842380Y114387620D01*
X18842380Y114482858D01*
X18890000Y114625715D01*
X18937619Y114673334D01*
X19842380Y115625715D02*
X19842380Y115054286D01*
X19842380Y115340000D02*
X18842380Y115340000D01*
X18985238Y115244762D01*
X19080476Y115149524D01*
X19128095Y115054286D01*
X20128142Y89908334D02*
X20175761Y89860715D01*
X20223380Y89717858D01*
X20223380Y89622620D01*
X20175761Y89479762D01*
X20080523Y89384524D01*
X19985285Y89336905D01*
X19794809Y89289286D01*
X19651952Y89289286D01*
X19461476Y89336905D01*
X19366238Y89384524D01*
X19271000Y89479762D01*
X19223380Y89622620D01*
X19223380Y89717858D01*
X19271000Y89860715D01*
X19318619Y89908334D01*
X19223380Y90813096D02*
X19223380Y90336905D01*
X19699571Y90289286D01*
X19651952Y90336905D01*
X19604333Y90432143D01*
X19604333Y90670239D01*
X19651952Y90765477D01*
X19699571Y90813096D01*
X19794809Y90860715D01*
X20032904Y90860715D01*
X20128142Y90813096D01*
X20175761Y90765477D01*
X20223380Y90670239D01*
X20223380Y90432143D01*
X20175761Y90336905D01*
X20128142Y90289286D01*
X28113380Y99854096D02*
X28922904Y99854096D01*
X29018142Y99901715D01*
X29065761Y99949334D01*
X29113380Y100044572D01*
X29113380Y100235048D01*
X29065761Y100330286D01*
X29018142Y100377905D01*
X28922904Y100425524D01*
X28113380Y100425524D01*
X29113380Y101425524D02*
X29113380Y100854096D01*
X29113380Y101139810D02*
X28113380Y101139810D01*
X28256238Y101044572D01*
X28351476Y100949334D01*
X28399095Y100854096D01*
X28240380Y76486096D02*
X29049904Y76486096D01*
X29145142Y76533715D01*
X29192761Y76581334D01*
X29240380Y76676572D01*
X29240380Y76867048D01*
X29192761Y76962286D01*
X29145142Y77009905D01*
X29049904Y77057524D01*
X28240380Y77057524D01*
X28240380Y77962286D02*
X28240380Y77771810D01*
X28288000Y77676572D01*
X28335619Y77628953D01*
X28478476Y77533715D01*
X28668952Y77486096D01*
X29049904Y77486096D01*
X29145142Y77533715D01*
X29192761Y77581334D01*
X29240380Y77676572D01*
X29240380Y77867048D01*
X29192761Y77962286D01*
X29145142Y78009905D01*
X29049904Y78057524D01*
X28811809Y78057524D01*
X28716571Y78009905D01*
X28668952Y77962286D01*
X28621333Y77867048D01*
X28621333Y77676572D01*
X28668952Y77581334D01*
X28716571Y77533715D01*
X28811809Y77486096D01*
X38656666Y114222620D02*
X38656666Y113508334D01*
X38609047Y113365477D01*
X38513809Y113270239D01*
X38370952Y113222620D01*
X38275714Y113222620D01*
X39609047Y114222620D02*
X39132857Y114222620D01*
X39085238Y113746429D01*
X39132857Y113794048D01*
X39228095Y113841667D01*
X39466190Y113841667D01*
X39561428Y113794048D01*
X39609047Y113746429D01*
X39656666Y113651191D01*
X39656666Y113413096D01*
X39609047Y113317858D01*
X39561428Y113270239D01*
X39466190Y113222620D01*
X39228095Y113222620D01*
X39132857Y113270239D01*
X39085238Y113317858D01*
X9047380Y15284667D02*
X9761666Y15284667D01*
X9904523Y15237048D01*
X9999761Y15141810D01*
X10047380Y14998953D01*
X10047380Y14903715D01*
X9475952Y15903715D02*
X9428333Y15808477D01*
X9380714Y15760858D01*
X9285476Y15713239D01*
X9237857Y15713239D01*
X9142619Y15760858D01*
X9095000Y15808477D01*
X9047380Y15903715D01*
X9047380Y16094191D01*
X9095000Y16189429D01*
X9142619Y16237048D01*
X9237857Y16284667D01*
X9285476Y16284667D01*
X9380714Y16237048D01*
X9428333Y16189429D01*
X9475952Y16094191D01*
X9475952Y15903715D01*
X9523571Y15808477D01*
X9571190Y15760858D01*
X9666428Y15713239D01*
X9856904Y15713239D01*
X9952142Y15760858D01*
X9999761Y15808477D01*
X10047380Y15903715D01*
X10047380Y16094191D01*
X9999761Y16189429D01*
X9952142Y16237048D01*
X9856904Y16284667D01*
X9666428Y16284667D01*
X9571190Y16237048D01*
X9523571Y16189429D01*
X9475952Y16094191D01*
X20137380Y8723334D02*
X19661190Y8390000D01*
X20137380Y8151905D02*
X19137380Y8151905D01*
X19137380Y8532858D01*
X19185000Y8628096D01*
X19232619Y8675715D01*
X19327857Y8723334D01*
X19470714Y8723334D01*
X19565952Y8675715D01*
X19613571Y8628096D01*
X19661190Y8532858D01*
X19661190Y8151905D01*
X20137380Y9675715D02*
X20137380Y9104286D01*
X20137380Y9390000D02*
X19137380Y9390000D01*
X19280238Y9294762D01*
X19375476Y9199524D01*
X19423095Y9104286D01*
X13787380Y13168334D02*
X13311190Y12835000D01*
X13787380Y12596905D02*
X12787380Y12596905D01*
X12787380Y12977858D01*
X12835000Y13073096D01*
X12882619Y13120715D01*
X12977857Y13168334D01*
X13120714Y13168334D01*
X13215952Y13120715D01*
X13263571Y13073096D01*
X13311190Y12977858D01*
X13311190Y12596905D01*
X12882619Y13549286D02*
X12835000Y13596905D01*
X12787380Y13692143D01*
X12787380Y13930239D01*
X12835000Y14025477D01*
X12882619Y14073096D01*
X12977857Y14120715D01*
X13073095Y14120715D01*
X13215952Y14073096D01*
X13787380Y13501667D01*
X13787380Y14120715D01*
X16962380Y10628334D02*
X16486190Y10295000D01*
X16962380Y10056905D02*
X15962380Y10056905D01*
X15962380Y10437858D01*
X16010000Y10533096D01*
X16057619Y10580715D01*
X16152857Y10628334D01*
X16295714Y10628334D01*
X16390952Y10580715D01*
X16438571Y10533096D01*
X16486190Y10437858D01*
X16486190Y10056905D01*
X15962380Y10961667D02*
X15962380Y11580715D01*
X16343333Y11247381D01*
X16343333Y11390239D01*
X16390952Y11485477D01*
X16438571Y11533096D01*
X16533809Y11580715D01*
X16771904Y11580715D01*
X16867142Y11533096D01*
X16914761Y11485477D01*
X16962380Y11390239D01*
X16962380Y11104524D01*
X16914761Y11009286D01*
X16867142Y10961667D01*
X66092380Y38166667D02*
X66806666Y38166667D01*
X66949523Y38119048D01*
X67044761Y38023810D01*
X67092380Y37880953D01*
X67092380Y37785715D01*
X66092380Y39071429D02*
X66092380Y38880953D01*
X66140000Y38785715D01*
X66187619Y38738096D01*
X66330476Y38642858D01*
X66520952Y38595239D01*
X66901904Y38595239D01*
X66997142Y38642858D01*
X67044761Y38690477D01*
X67092380Y38785715D01*
X67092380Y38976191D01*
X67044761Y39071429D01*
X66997142Y39119048D01*
X66901904Y39166667D01*
X66663809Y39166667D01*
X66568571Y39119048D01*
X66520952Y39071429D01*
X66473333Y38976191D01*
X66473333Y38785715D01*
X66520952Y38690477D01*
X66568571Y38642858D01*
X66663809Y38595239D01*
X66452380Y5166667D02*
X67166666Y5166667D01*
X67309523Y5119048D01*
X67404761Y5023810D01*
X67452380Y4880953D01*
X67452380Y4785715D01*
X66452380Y5547620D02*
X66452380Y6214286D01*
X67452380Y5785715D01*
X4876533Y129152058D02*
X4828914Y129104439D01*
X4686057Y129056820D01*
X4590819Y129056820D01*
X4447961Y129104439D01*
X4352723Y129199677D01*
X4305104Y129294915D01*
X4257485Y129485391D01*
X4257485Y129628248D01*
X4305104Y129818724D01*
X4352723Y129913962D01*
X4447961Y130009200D01*
X4590819Y130056820D01*
X4686057Y130056820D01*
X4828914Y130009200D01*
X4876533Y129961581D01*
X5257485Y129961581D02*
X5305104Y130009200D01*
X5400342Y130056820D01*
X5638438Y130056820D01*
X5733676Y130009200D01*
X5781295Y129961581D01*
X5828914Y129866343D01*
X5828914Y129771105D01*
X5781295Y129628248D01*
X5209866Y129056820D01*
X5828914Y129056820D01*
X12202380Y138766667D02*
X12916666Y138766667D01*
X13059523Y138719048D01*
X13154761Y138623810D01*
X13202380Y138480953D01*
X13202380Y138385715D01*
X13202380Y139290477D02*
X13202380Y139480953D01*
X13154761Y139576191D01*
X13107142Y139623810D01*
X12964285Y139719048D01*
X12773809Y139766667D01*
X12392857Y139766667D01*
X12297619Y139719048D01*
X12250000Y139671429D01*
X12202380Y139576191D01*
X12202380Y139385715D01*
X12250000Y139290477D01*
X12297619Y139242858D01*
X12392857Y139195239D01*
X12630952Y139195239D01*
X12726190Y139242858D01*
X12773809Y139290477D01*
X12821428Y139385715D01*
X12821428Y139576191D01*
X12773809Y139671429D01*
X12726190Y139719048D01*
X12630952Y139766667D01*
X9194533Y119150820D02*
X8861200Y119627010D01*
X8623104Y119150820D02*
X8623104Y120150820D01*
X9004057Y120150820D01*
X9099295Y120103200D01*
X9146914Y120055581D01*
X9194533Y119960343D01*
X9194533Y119817486D01*
X9146914Y119722248D01*
X9099295Y119674629D01*
X9004057Y119627010D01*
X8623104Y119627010D01*
X10051676Y119817486D02*
X10051676Y119150820D01*
X9813580Y120198439D02*
X9575485Y119484153D01*
X10194533Y119484153D01*
X59929761Y122941667D02*
X59977380Y123084524D01*
X59977380Y123322620D01*
X59929761Y123417858D01*
X59882142Y123465477D01*
X59786904Y123513096D01*
X59691666Y123513096D01*
X59596428Y123465477D01*
X59548809Y123417858D01*
X59501190Y123322620D01*
X59453571Y123132143D01*
X59405952Y123036905D01*
X59358333Y122989286D01*
X59263095Y122941667D01*
X59167857Y122941667D01*
X59072619Y122989286D01*
X59025000Y123036905D01*
X58977380Y123132143D01*
X58977380Y123370239D01*
X59025000Y123513096D01*
X58977380Y123846429D02*
X59977380Y124084524D01*
X59263095Y124275000D01*
X59977380Y124465477D01*
X58977380Y124703572D01*
X59977380Y125608334D02*
X59977380Y125036905D01*
X59977380Y125322620D02*
X58977380Y125322620D01*
X59120238Y125227381D01*
X59215476Y125132143D01*
X59263095Y125036905D01*
X59929761Y133491667D02*
X59977380Y133634524D01*
X59977380Y133872620D01*
X59929761Y133967858D01*
X59882142Y134015477D01*
X59786904Y134063096D01*
X59691666Y134063096D01*
X59596428Y134015477D01*
X59548809Y133967858D01*
X59501190Y133872620D01*
X59453571Y133682143D01*
X59405952Y133586905D01*
X59358333Y133539286D01*
X59263095Y133491667D01*
X59167857Y133491667D01*
X59072619Y133539286D01*
X59025000Y133586905D01*
X58977380Y133682143D01*
X58977380Y133920239D01*
X59025000Y134063096D01*
X58977380Y134396429D02*
X59977380Y134634524D01*
X59263095Y134825000D01*
X59977380Y135015477D01*
X58977380Y135253572D01*
X59072619Y135586905D02*
X59025000Y135634524D01*
X58977380Y135729762D01*
X58977380Y135967858D01*
X59025000Y136063096D01*
X59072619Y136110715D01*
X59167857Y136158334D01*
X59263095Y136158334D01*
X59405952Y136110715D01*
X59977380Y135539286D01*
X59977380Y136158334D01*
M02*
