G04 #@! TF.GenerationSoftware,KiCad,Pcbnew,(5.1.9)-1*
G04 #@! TF.CreationDate,2026-04-13T15:19:08+09:00*
G04 #@! TF.ProjectId,MZ-700_SD+NRF,4d5a2d37-3030-45f5-9344-2b4e52462e6b,rev?*
G04 #@! TF.SameCoordinates,PX53920b0PY93c3260*
G04 #@! TF.FileFunction,Legend,Top*
G04 #@! TF.FilePolarity,Positive*
%FSLAX46Y46*%
G04 Gerber Fmt 4.6, Leading zero omitted, Abs format (unit mm)*
G04 Created by KiCad (PCBNEW (5.1.9)-1) date 2026-04-13 15:19:08*
%MOMM*%
%LPD*%
G01*
G04 APERTURE LIST*
%ADD10C,0.150000*%
%ADD11C,0.500000*%
%ADD12C,0.120000*%
G04 APERTURE END LIST*
D10*
X27580952Y105358620D02*
X27009523Y105358620D01*
X27295238Y105358620D02*
X27295238Y106358620D01*
X27200000Y106215762D01*
X27104761Y106120524D01*
X27009523Y106072905D01*
X28009523Y105358620D02*
X28009523Y106358620D01*
X28104761Y105739572D02*
X28390476Y105358620D01*
X28390476Y106025286D02*
X28009523Y105644334D01*
X18564142Y107374620D02*
X18659380Y107374620D01*
X18754619Y107327000D01*
X18802238Y107279381D01*
X18849857Y107184143D01*
X18897476Y106993667D01*
X18897476Y106755572D01*
X18849857Y106565096D01*
X18802238Y106469858D01*
X18754619Y106422239D01*
X18659380Y106374620D01*
X18564142Y106374620D01*
X18468904Y106422239D01*
X18421285Y106469858D01*
X18373666Y106565096D01*
X18326047Y106755572D01*
X18326047Y106993667D01*
X18373666Y107184143D01*
X18421285Y107279381D01*
X18468904Y107327000D01*
X18564142Y107374620D01*
X19326047Y106469858D02*
X19373666Y106422239D01*
X19326047Y106374620D01*
X19278428Y106422239D01*
X19326047Y106469858D01*
X19326047Y106374620D01*
X20326047Y106374620D02*
X19754619Y106374620D01*
X20040333Y106374620D02*
X20040333Y107374620D01*
X19945095Y107231762D01*
X19849857Y107136524D01*
X19754619Y107088905D01*
X21183190Y107041286D02*
X21183190Y106374620D01*
X20754619Y107041286D02*
X20754619Y106517477D01*
X20802238Y106422239D01*
X20897476Y106374620D01*
X21040333Y106374620D01*
X21135571Y106422239D01*
X21183190Y106469858D01*
X21992714Y106898429D02*
X21659380Y106898429D01*
X21659380Y106374620D02*
X21659380Y107374620D01*
X22135571Y107374620D01*
X19264380Y20736286D02*
X19264380Y21355334D01*
X19645333Y21022000D01*
X19645333Y21164858D01*
X19692952Y21260096D01*
X19740571Y21307715D01*
X19835809Y21355334D01*
X20073904Y21355334D01*
X20169142Y21307715D01*
X20216761Y21260096D01*
X20264380Y21164858D01*
X20264380Y20879143D01*
X20216761Y20783905D01*
X20169142Y20736286D01*
X19264380Y21688667D02*
X19264380Y22307715D01*
X19645333Y21974381D01*
X19645333Y22117239D01*
X19692952Y22212477D01*
X19740571Y22260096D01*
X19835809Y22307715D01*
X20073904Y22307715D01*
X20169142Y22260096D01*
X20216761Y22212477D01*
X20264380Y22117239D01*
X20264380Y21831524D01*
X20216761Y21736286D01*
X20169142Y21688667D01*
X19264380Y22926762D02*
X19264380Y23022000D01*
X19312000Y23117239D01*
X19359619Y23164858D01*
X19454857Y23212477D01*
X19645333Y23260096D01*
X19883428Y23260096D01*
X20073904Y23212477D01*
X20169142Y23164858D01*
X20216761Y23117239D01*
X20264380Y23022000D01*
X20264380Y22926762D01*
X20216761Y22831524D01*
X20169142Y22783905D01*
X20073904Y22736286D01*
X19883428Y22688667D01*
X19645333Y22688667D01*
X19454857Y22736286D01*
X19359619Y22783905D01*
X19312000Y22831524D01*
X19264380Y22926762D01*
X16034380Y23236286D02*
X16034380Y23855334D01*
X16415333Y23522000D01*
X16415333Y23664858D01*
X16462952Y23760096D01*
X16510571Y23807715D01*
X16605809Y23855334D01*
X16843904Y23855334D01*
X16939142Y23807715D01*
X16986761Y23760096D01*
X17034380Y23664858D01*
X17034380Y23379143D01*
X16986761Y23283905D01*
X16939142Y23236286D01*
X16034380Y24188667D02*
X16034380Y24807715D01*
X16415333Y24474381D01*
X16415333Y24617239D01*
X16462952Y24712477D01*
X16510571Y24760096D01*
X16605809Y24807715D01*
X16843904Y24807715D01*
X16939142Y24760096D01*
X16986761Y24712477D01*
X17034380Y24617239D01*
X17034380Y24331524D01*
X16986761Y24236286D01*
X16939142Y24188667D01*
X16034380Y25426762D02*
X16034380Y25522000D01*
X16082000Y25617239D01*
X16129619Y25664858D01*
X16224857Y25712477D01*
X16415333Y25760096D01*
X16653428Y25760096D01*
X16843904Y25712477D01*
X16939142Y25664858D01*
X16986761Y25617239D01*
X17034380Y25522000D01*
X17034380Y25426762D01*
X16986761Y25331524D01*
X16939142Y25283905D01*
X16843904Y25236286D01*
X16653428Y25188667D01*
X16415333Y25188667D01*
X16224857Y25236286D01*
X16129619Y25283905D01*
X16082000Y25331524D01*
X16034380Y25426762D01*
X12804380Y25736286D02*
X12804380Y26355334D01*
X13185333Y26022000D01*
X13185333Y26164858D01*
X13232952Y26260096D01*
X13280571Y26307715D01*
X13375809Y26355334D01*
X13613904Y26355334D01*
X13709142Y26307715D01*
X13756761Y26260096D01*
X13804380Y26164858D01*
X13804380Y25879143D01*
X13756761Y25783905D01*
X13709142Y25736286D01*
X12804380Y26688667D02*
X12804380Y27307715D01*
X13185333Y26974381D01*
X13185333Y27117239D01*
X13232952Y27212477D01*
X13280571Y27260096D01*
X13375809Y27307715D01*
X13613904Y27307715D01*
X13709142Y27260096D01*
X13756761Y27212477D01*
X13804380Y27117239D01*
X13804380Y26831524D01*
X13756761Y26736286D01*
X13709142Y26688667D01*
X12804380Y27926762D02*
X12804380Y28022000D01*
X12852000Y28117239D01*
X12899619Y28164858D01*
X12994857Y28212477D01*
X13185333Y28260096D01*
X13423428Y28260096D01*
X13613904Y28212477D01*
X13709142Y28164858D01*
X13756761Y28117239D01*
X13804380Y28022000D01*
X13804380Y27926762D01*
X13756761Y27831524D01*
X13709142Y27783905D01*
X13613904Y27736286D01*
X13423428Y27688667D01*
X13185333Y27688667D01*
X12994857Y27736286D01*
X12899619Y27783905D01*
X12852000Y27831524D01*
X12804380Y27926762D01*
X72588380Y22931762D02*
X72112190Y22598429D01*
X72588380Y22360334D02*
X71588380Y22360334D01*
X71588380Y22741286D01*
X71636000Y22836524D01*
X71683619Y22884143D01*
X71778857Y22931762D01*
X71921714Y22931762D01*
X72016952Y22884143D01*
X72064571Y22836524D01*
X72112190Y22741286D01*
X72112190Y22360334D01*
X72588380Y23360334D02*
X71588380Y23360334D01*
X71588380Y23741286D01*
X71636000Y23836524D01*
X71683619Y23884143D01*
X71778857Y23931762D01*
X71921714Y23931762D01*
X72016952Y23884143D01*
X72064571Y23836524D01*
X72112190Y23741286D01*
X72112190Y23360334D01*
X71683619Y24312715D02*
X71636000Y24360334D01*
X71588380Y24455572D01*
X71588380Y24693667D01*
X71636000Y24788905D01*
X71683619Y24836524D01*
X71778857Y24884143D01*
X71874095Y24884143D01*
X72016952Y24836524D01*
X72588380Y24265096D01*
X72588380Y24884143D01*
X71588380Y25217477D02*
X71588380Y25836524D01*
X71969333Y25503191D01*
X71969333Y25646048D01*
X72016952Y25741286D01*
X72064571Y25788905D01*
X72159809Y25836524D01*
X72397904Y25836524D01*
X72493142Y25788905D01*
X72540761Y25741286D01*
X72588380Y25646048D01*
X72588380Y25360334D01*
X72540761Y25265096D01*
X72493142Y25217477D01*
X71588380Y26741286D02*
X71588380Y26265096D01*
X72064571Y26217477D01*
X72016952Y26265096D01*
X71969333Y26360334D01*
X71969333Y26598429D01*
X72016952Y26693667D01*
X72064571Y26741286D01*
X72159809Y26788905D01*
X72397904Y26788905D01*
X72493142Y26741286D01*
X72540761Y26693667D01*
X72588380Y26598429D01*
X72588380Y26360334D01*
X72540761Y26265096D01*
X72493142Y26217477D01*
X71588380Y27407953D02*
X71588380Y27503191D01*
X71636000Y27598429D01*
X71683619Y27646048D01*
X71778857Y27693667D01*
X71969333Y27741286D01*
X72207428Y27741286D01*
X72397904Y27693667D01*
X72493142Y27646048D01*
X72540761Y27598429D01*
X72588380Y27503191D01*
X72588380Y27407953D01*
X72540761Y27312715D01*
X72493142Y27265096D01*
X72397904Y27217477D01*
X72207428Y27169858D01*
X71969333Y27169858D01*
X71778857Y27217477D01*
X71683619Y27265096D01*
X71636000Y27312715D01*
X71588380Y27407953D01*
X72064571Y28503191D02*
X72112190Y28646048D01*
X72159809Y28693667D01*
X72255047Y28741286D01*
X72397904Y28741286D01*
X72493142Y28693667D01*
X72540761Y28646048D01*
X72588380Y28550810D01*
X72588380Y28169858D01*
X71588380Y28169858D01*
X71588380Y28503191D01*
X71636000Y28598429D01*
X71683619Y28646048D01*
X71778857Y28693667D01*
X71874095Y28693667D01*
X71969333Y28646048D01*
X72016952Y28598429D01*
X72064571Y28503191D01*
X72064571Y28169858D01*
X69452380Y41309524D02*
X69452380Y40833334D01*
X69928571Y40785715D01*
X69880952Y40833334D01*
X69833333Y40928572D01*
X69833333Y41166667D01*
X69880952Y41261905D01*
X69928571Y41309524D01*
X70023809Y41357143D01*
X70261904Y41357143D01*
X70357142Y41309524D01*
X70404761Y41261905D01*
X70452380Y41166667D01*
X70452380Y40928572D01*
X70404761Y40833334D01*
X70357142Y40785715D01*
X69452380Y41642858D02*
X70452380Y41976191D01*
X69452380Y42309524D01*
X69500000Y1238096D02*
X69452380Y1142858D01*
X69452380Y1000000D01*
X69500000Y857143D01*
X69595238Y761905D01*
X69690476Y714286D01*
X69880952Y666667D01*
X70023809Y666667D01*
X70214285Y714286D01*
X70309523Y761905D01*
X70404761Y857143D01*
X70452380Y1000000D01*
X70452380Y1095239D01*
X70404761Y1238096D01*
X70357142Y1285715D01*
X70023809Y1285715D01*
X70023809Y1095239D01*
X70452380Y1714286D02*
X69452380Y1714286D01*
X70452380Y2285715D01*
X69452380Y2285715D01*
X70452380Y2761905D02*
X69452380Y2761905D01*
X69452380Y3000000D01*
X69500000Y3142858D01*
X69595238Y3238096D01*
X69690476Y3285715D01*
X69880952Y3333334D01*
X70023809Y3333334D01*
X70214285Y3285715D01*
X70309523Y3238096D01*
X70404761Y3142858D01*
X70452380Y3000000D01*
X70452380Y2761905D01*
X47442380Y96546191D02*
X46442380Y96546191D01*
X47156666Y96879524D01*
X46442380Y97212858D01*
X47442380Y97212858D01*
X47442380Y97689048D02*
X46775714Y97689048D01*
X46442380Y97689048D02*
X46490000Y97641429D01*
X46537619Y97689048D01*
X46490000Y97736667D01*
X46442380Y97689048D01*
X46537619Y97689048D01*
X47394761Y98593810D02*
X47442380Y98498572D01*
X47442380Y98308096D01*
X47394761Y98212858D01*
X47347142Y98165239D01*
X47251904Y98117620D01*
X46966190Y98117620D01*
X46870952Y98165239D01*
X46823333Y98212858D01*
X46775714Y98308096D01*
X46775714Y98498572D01*
X46823333Y98593810D01*
X47442380Y99022381D02*
X46775714Y99022381D01*
X46966190Y99022381D02*
X46870952Y99070000D01*
X46823333Y99117620D01*
X46775714Y99212858D01*
X46775714Y99308096D01*
X47442380Y99784286D02*
X47394761Y99689048D01*
X47347142Y99641429D01*
X47251904Y99593810D01*
X46966190Y99593810D01*
X46870952Y99641429D01*
X46823333Y99689048D01*
X46775714Y99784286D01*
X46775714Y99927143D01*
X46823333Y100022381D01*
X46870952Y100070000D01*
X46966190Y100117620D01*
X47251904Y100117620D01*
X47347142Y100070000D01*
X47394761Y100022381D01*
X47442380Y99927143D01*
X47442380Y99784286D01*
X47394761Y100498572D02*
X47442380Y100641429D01*
X47442380Y100879524D01*
X47394761Y100974762D01*
X47347142Y101022381D01*
X47251904Y101070000D01*
X47156666Y101070000D01*
X47061428Y101022381D01*
X47013809Y100974762D01*
X46966190Y100879524D01*
X46918571Y100689048D01*
X46870952Y100593810D01*
X46823333Y100546191D01*
X46728095Y100498572D01*
X46632857Y100498572D01*
X46537619Y100546191D01*
X46490000Y100593810D01*
X46442380Y100689048D01*
X46442380Y100927143D01*
X46490000Y101070000D01*
X47442380Y101498572D02*
X46442380Y101498572D01*
X46442380Y101736667D01*
X46490000Y101879524D01*
X46585238Y101974762D01*
X46680476Y102022381D01*
X46870952Y102070000D01*
X47013809Y102070000D01*
X47204285Y102022381D01*
X47299523Y101974762D01*
X47394761Y101879524D01*
X47442380Y101736667D01*
X47442380Y101498572D01*
X47347142Y103831905D02*
X47394761Y103784286D01*
X47442380Y103641429D01*
X47442380Y103546191D01*
X47394761Y103403334D01*
X47299523Y103308096D01*
X47204285Y103260477D01*
X47013809Y103212858D01*
X46870952Y103212858D01*
X46680476Y103260477D01*
X46585238Y103308096D01*
X46490000Y103403334D01*
X46442380Y103546191D01*
X46442380Y103641429D01*
X46490000Y103784286D01*
X46537619Y103831905D01*
X47442380Y104689048D02*
X46918571Y104689048D01*
X46823333Y104641429D01*
X46775714Y104546191D01*
X46775714Y104355715D01*
X46823333Y104260477D01*
X47394761Y104689048D02*
X47442380Y104593810D01*
X47442380Y104355715D01*
X47394761Y104260477D01*
X47299523Y104212858D01*
X47204285Y104212858D01*
X47109047Y104260477D01*
X47061428Y104355715D01*
X47061428Y104593810D01*
X47013809Y104689048D01*
X47442380Y105165239D02*
X46775714Y105165239D01*
X46966190Y105165239D02*
X46870952Y105212858D01*
X46823333Y105260477D01*
X46775714Y105355715D01*
X46775714Y105450953D01*
X47442380Y106212858D02*
X46442380Y106212858D01*
X47394761Y106212858D02*
X47442380Y106117620D01*
X47442380Y105927143D01*
X47394761Y105831905D01*
X47347142Y105784286D01*
X47251904Y105736667D01*
X46966190Y105736667D01*
X46870952Y105784286D01*
X46823333Y105831905D01*
X46775714Y105927143D01*
X46775714Y106117620D01*
X46823333Y106212858D01*
X47156666Y107403334D02*
X47156666Y107879524D01*
X47442380Y107308096D02*
X46442380Y107641429D01*
X47442380Y107974762D01*
X47442380Y108736667D02*
X46442380Y108736667D01*
X47394761Y108736667D02*
X47442380Y108641429D01*
X47442380Y108450953D01*
X47394761Y108355715D01*
X47347142Y108308096D01*
X47251904Y108260477D01*
X46966190Y108260477D01*
X46870952Y108308096D01*
X46823333Y108355715D01*
X46775714Y108450953D01*
X46775714Y108641429D01*
X46823333Y108736667D01*
X47442380Y109641429D02*
X46918571Y109641429D01*
X46823333Y109593810D01*
X46775714Y109498572D01*
X46775714Y109308096D01*
X46823333Y109212858D01*
X47394761Y109641429D02*
X47442380Y109546191D01*
X47442380Y109308096D01*
X47394761Y109212858D01*
X47299523Y109165239D01*
X47204285Y109165239D01*
X47109047Y109212858D01*
X47061428Y109308096D01*
X47061428Y109546191D01*
X47013809Y109641429D01*
X46775714Y110117620D02*
X47775714Y110117620D01*
X46823333Y110117620D02*
X46775714Y110212858D01*
X46775714Y110403334D01*
X46823333Y110498572D01*
X46870952Y110546191D01*
X46966190Y110593810D01*
X47251904Y110593810D01*
X47347142Y110546191D01*
X47394761Y110498572D01*
X47442380Y110403334D01*
X47442380Y110212858D01*
X47394761Y110117620D01*
X46775714Y110879524D02*
X46775714Y111260477D01*
X46442380Y111022381D02*
X47299523Y111022381D01*
X47394761Y111070000D01*
X47442380Y111165239D01*
X47442380Y111260477D01*
X47394761Y111974762D02*
X47442380Y111879524D01*
X47442380Y111689048D01*
X47394761Y111593810D01*
X47299523Y111546191D01*
X46918571Y111546191D01*
X46823333Y111593810D01*
X46775714Y111689048D01*
X46775714Y111879524D01*
X46823333Y111974762D01*
X46918571Y112022381D01*
X47013809Y112022381D01*
X47109047Y111546191D01*
X47442380Y112450953D02*
X46775714Y112450953D01*
X46966190Y112450953D02*
X46870952Y112498572D01*
X46823333Y112546191D01*
X46775714Y112641429D01*
X46775714Y112736667D01*
X54628095Y107605000D02*
X54532857Y107652620D01*
X54390000Y107652620D01*
X54247142Y107605000D01*
X54151904Y107509762D01*
X54104285Y107414524D01*
X54056666Y107224048D01*
X54056666Y107081191D01*
X54104285Y106890715D01*
X54151904Y106795477D01*
X54247142Y106700239D01*
X54390000Y106652620D01*
X54485238Y106652620D01*
X54628095Y106700239D01*
X54675714Y106747858D01*
X54675714Y107081191D01*
X54485238Y107081191D01*
X55104285Y106652620D02*
X55104285Y107652620D01*
X55675714Y106652620D01*
X55675714Y107652620D01*
X56151904Y106652620D02*
X56151904Y107652620D01*
X56390000Y107652620D01*
X56532857Y107605000D01*
X56628095Y107509762D01*
X56675714Y107414524D01*
X56723333Y107224048D01*
X56723333Y107081191D01*
X56675714Y106890715D01*
X56628095Y106795477D01*
X56532857Y106700239D01*
X56390000Y106652620D01*
X56151904Y106652620D01*
X54304285Y114633572D02*
X55066190Y114633572D01*
X54685238Y114252620D02*
X54685238Y115014524D01*
X56018571Y115252620D02*
X55542380Y115252620D01*
X55494761Y114776429D01*
X55542380Y114824048D01*
X55637619Y114871667D01*
X55875714Y114871667D01*
X55970952Y114824048D01*
X56018571Y114776429D01*
X56066190Y114681191D01*
X56066190Y114443096D01*
X56018571Y114347858D01*
X55970952Y114300239D01*
X55875714Y114252620D01*
X55637619Y114252620D01*
X55542380Y114300239D01*
X55494761Y114347858D01*
X56351904Y115252620D02*
X56685238Y114252620D01*
X57018571Y115252620D01*
X54118571Y101552620D02*
X54118571Y102552620D01*
X54356666Y102552620D01*
X54499523Y102505000D01*
X54594761Y102409762D01*
X54642380Y102314524D01*
X54690000Y102124048D01*
X54690000Y101981191D01*
X54642380Y101790715D01*
X54594761Y101695477D01*
X54499523Y101600239D01*
X54356666Y101552620D01*
X54118571Y101552620D01*
X55070952Y101838334D02*
X55547142Y101838334D01*
X54975714Y101552620D02*
X55309047Y102552620D01*
X55642380Y101552620D01*
X55832857Y102552620D02*
X56404285Y102552620D01*
X56118571Y101552620D02*
X56118571Y102552620D01*
X54728095Y99147858D02*
X54680476Y99100239D01*
X54537619Y99052620D01*
X54442380Y99052620D01*
X54299523Y99100239D01*
X54204285Y99195477D01*
X54156666Y99290715D01*
X54109047Y99481191D01*
X54109047Y99624048D01*
X54156666Y99814524D01*
X54204285Y99909762D01*
X54299523Y100005000D01*
X54442380Y100052620D01*
X54537619Y100052620D01*
X54680476Y100005000D01*
X54728095Y99957381D01*
X55156666Y99052620D02*
X55156666Y100052620D01*
X55490000Y99338334D01*
X55823333Y100052620D01*
X55823333Y99052620D01*
X56299523Y99052620D02*
X56299523Y100052620D01*
X56537619Y100052620D01*
X56680476Y100005000D01*
X56775714Y99909762D01*
X56823333Y99814524D01*
X56870952Y99624048D01*
X56870952Y99481191D01*
X56823333Y99290715D01*
X56775714Y99195477D01*
X56680476Y99100239D01*
X56537619Y99052620D01*
X56299523Y99052620D01*
X54794761Y104147858D02*
X54747142Y104100239D01*
X54604285Y104052620D01*
X54509047Y104052620D01*
X54366190Y104100239D01*
X54270952Y104195477D01*
X54223333Y104290715D01*
X54175714Y104481191D01*
X54175714Y104624048D01*
X54223333Y104814524D01*
X54270952Y104909762D01*
X54366190Y105005000D01*
X54509047Y105052620D01*
X54604285Y105052620D01*
X54747142Y105005000D01*
X54794761Y104957381D01*
X55699523Y104052620D02*
X55223333Y104052620D01*
X55223333Y105052620D01*
X56032857Y104052620D02*
X56032857Y105052620D01*
X56604285Y104052620D02*
X56175714Y104624048D01*
X56604285Y105052620D02*
X56032857Y104481191D01*
X54013809Y97820000D02*
X55013809Y97820000D01*
X54823333Y96547858D02*
X54775714Y96500239D01*
X54632857Y96452620D01*
X54537619Y96452620D01*
X54394761Y96500239D01*
X54299523Y96595477D01*
X54251904Y96690715D01*
X54204285Y96881191D01*
X54204285Y97024048D01*
X54251904Y97214524D01*
X54299523Y97309762D01*
X54394761Y97405000D01*
X54537619Y97452620D01*
X54632857Y97452620D01*
X54775714Y97405000D01*
X54823333Y97357381D01*
X55013809Y97820000D02*
X55966190Y97820000D01*
X55204285Y96500239D02*
X55347142Y96452620D01*
X55585238Y96452620D01*
X55680476Y96500239D01*
X55728095Y96547858D01*
X55775714Y96643096D01*
X55775714Y96738334D01*
X55728095Y96833572D01*
X55680476Y96881191D01*
X55585238Y96928810D01*
X55394761Y96976429D01*
X55299523Y97024048D01*
X55251904Y97071667D01*
X55204285Y97166905D01*
X55204285Y97262143D01*
X55251904Y97357381D01*
X55299523Y97405000D01*
X55394761Y97452620D01*
X55632857Y97452620D01*
X55775714Y97405000D01*
X39928095Y111405000D02*
X39832857Y111452620D01*
X39690000Y111452620D01*
X39547142Y111405000D01*
X39451904Y111309762D01*
X39404285Y111214524D01*
X39356666Y111024048D01*
X39356666Y110881191D01*
X39404285Y110690715D01*
X39451904Y110595477D01*
X39547142Y110500239D01*
X39690000Y110452620D01*
X39785238Y110452620D01*
X39928095Y110500239D01*
X39975714Y110547858D01*
X39975714Y110881191D01*
X39785238Y110881191D01*
X40404285Y110452620D02*
X40404285Y111452620D01*
X40975714Y110452620D01*
X40975714Y111452620D01*
X41451904Y110452620D02*
X41451904Y111452620D01*
X41690000Y111452620D01*
X41832857Y111405000D01*
X41928095Y111309762D01*
X41975714Y111214524D01*
X42023333Y111024048D01*
X42023333Y110881191D01*
X41975714Y110690715D01*
X41928095Y110595477D01*
X41832857Y110500239D01*
X41690000Y110452620D01*
X41451904Y110452620D01*
X39304285Y108333572D02*
X40066190Y108333572D01*
X39685238Y107952620D02*
X39685238Y108714524D01*
X41018571Y108952620D02*
X40542380Y108952620D01*
X40494761Y108476429D01*
X40542380Y108524048D01*
X40637619Y108571667D01*
X40875714Y108571667D01*
X40970952Y108524048D01*
X41018571Y108476429D01*
X41066190Y108381191D01*
X41066190Y108143096D01*
X41018571Y108047858D01*
X40970952Y108000239D01*
X40875714Y107952620D01*
X40637619Y107952620D01*
X40542380Y108000239D01*
X40494761Y108047858D01*
X41351904Y108952620D02*
X41685238Y107952620D01*
X42018571Y108952620D01*
X38818571Y105352620D02*
X38818571Y106352620D01*
X39151904Y105638334D01*
X39485238Y106352620D01*
X39485238Y105352620D01*
X39961428Y105352620D02*
X39961428Y106352620D01*
X40390000Y105400239D02*
X40532857Y105352620D01*
X40770952Y105352620D01*
X40866190Y105400239D01*
X40913809Y105447858D01*
X40961428Y105543096D01*
X40961428Y105638334D01*
X40913809Y105733572D01*
X40866190Y105781191D01*
X40770952Y105828810D01*
X40580476Y105876429D01*
X40485238Y105924048D01*
X40437619Y105971667D01*
X40390000Y106066905D01*
X40390000Y106162143D01*
X40437619Y106257381D01*
X40485238Y106305000D01*
X40580476Y106352620D01*
X40818571Y106352620D01*
X40961428Y106305000D01*
X41580476Y106352620D02*
X41770952Y106352620D01*
X41866190Y106305000D01*
X41961428Y106209762D01*
X42009047Y106019286D01*
X42009047Y105685953D01*
X41961428Y105495477D01*
X41866190Y105400239D01*
X41770952Y105352620D01*
X41580476Y105352620D01*
X41485238Y105400239D01*
X41390000Y105495477D01*
X41342380Y105685953D01*
X41342380Y106019286D01*
X41390000Y106209762D01*
X41485238Y106305000D01*
X41580476Y106352620D01*
X38818571Y102852620D02*
X38818571Y103852620D01*
X39151904Y103138334D01*
X39485238Y103852620D01*
X39485238Y102852620D01*
X40151904Y103852620D02*
X40342380Y103852620D01*
X40437619Y103805000D01*
X40532857Y103709762D01*
X40580476Y103519286D01*
X40580476Y103185953D01*
X40532857Y102995477D01*
X40437619Y102900239D01*
X40342380Y102852620D01*
X40151904Y102852620D01*
X40056666Y102900239D01*
X39961428Y102995477D01*
X39913809Y103185953D01*
X39913809Y103519286D01*
X39961428Y103709762D01*
X40056666Y103805000D01*
X40151904Y103852620D01*
X40961428Y102900239D02*
X41104285Y102852620D01*
X41342380Y102852620D01*
X41437619Y102900239D01*
X41485238Y102947858D01*
X41532857Y103043096D01*
X41532857Y103138334D01*
X41485238Y103233572D01*
X41437619Y103281191D01*
X41342380Y103328810D01*
X41151904Y103376429D01*
X41056666Y103424048D01*
X41009047Y103471667D01*
X40961428Y103566905D01*
X40961428Y103662143D01*
X41009047Y103757381D01*
X41056666Y103805000D01*
X41151904Y103852620D01*
X41390000Y103852620D01*
X41532857Y103805000D01*
X41961428Y102852620D02*
X41961428Y103852620D01*
X39404285Y100300239D02*
X39547142Y100252620D01*
X39785238Y100252620D01*
X39880476Y100300239D01*
X39928095Y100347858D01*
X39975714Y100443096D01*
X39975714Y100538334D01*
X39928095Y100633572D01*
X39880476Y100681191D01*
X39785238Y100728810D01*
X39594761Y100776429D01*
X39499523Y100824048D01*
X39451904Y100871667D01*
X39404285Y100966905D01*
X39404285Y101062143D01*
X39451904Y101157381D01*
X39499523Y101205000D01*
X39594761Y101252620D01*
X39832857Y101252620D01*
X39975714Y101205000D01*
X40975714Y100347858D02*
X40928095Y100300239D01*
X40785238Y100252620D01*
X40690000Y100252620D01*
X40547142Y100300239D01*
X40451904Y100395477D01*
X40404285Y100490715D01*
X40356666Y100681191D01*
X40356666Y100824048D01*
X40404285Y101014524D01*
X40451904Y101109762D01*
X40547142Y101205000D01*
X40690000Y101252620D01*
X40785238Y101252620D01*
X40928095Y101205000D01*
X40975714Y101157381D01*
X41404285Y100252620D02*
X41404285Y101252620D01*
X41975714Y100252620D02*
X41547142Y100824048D01*
X41975714Y101252620D02*
X41404285Y100681191D01*
X41023333Y97847858D02*
X40975714Y97800239D01*
X40832857Y97752620D01*
X40737619Y97752620D01*
X40594761Y97800239D01*
X40499523Y97895477D01*
X40451904Y97990715D01*
X40404285Y98181191D01*
X40404285Y98324048D01*
X40451904Y98514524D01*
X40499523Y98609762D01*
X40594761Y98705000D01*
X40737619Y98752620D01*
X40832857Y98752620D01*
X40975714Y98705000D01*
X41023333Y98657381D01*
X41404285Y97800239D02*
X41547142Y97752620D01*
X41785238Y97752620D01*
X41880476Y97800239D01*
X41928095Y97847858D01*
X41975714Y97943096D01*
X41975714Y98038334D01*
X41928095Y98133572D01*
X41880476Y98181191D01*
X41785238Y98228810D01*
X41594761Y98276429D01*
X41499523Y98324048D01*
X41451904Y98371667D01*
X41404285Y98466905D01*
X41404285Y98562143D01*
X41451904Y98657381D01*
X41499523Y98705000D01*
X41594761Y98752620D01*
X41832857Y98752620D01*
X41975714Y98705000D01*
X23265142Y79709620D02*
X23931809Y79709620D01*
X23503238Y78709620D01*
X24741333Y79376286D02*
X24741333Y78709620D01*
X24503238Y79757239D02*
X24265142Y79042953D01*
X24884190Y79042953D01*
X25741333Y78709620D02*
X25265142Y78709620D01*
X25265142Y79709620D01*
X26027047Y78757239D02*
X26169904Y78709620D01*
X26408000Y78709620D01*
X26503238Y78757239D01*
X26550857Y78804858D01*
X26598476Y78900096D01*
X26598476Y78995334D01*
X26550857Y79090572D01*
X26503238Y79138191D01*
X26408000Y79185810D01*
X26217523Y79233429D01*
X26122285Y79281048D01*
X26074666Y79328667D01*
X26027047Y79423905D01*
X26027047Y79519143D01*
X26074666Y79614381D01*
X26122285Y79662000D01*
X26217523Y79709620D01*
X26455619Y79709620D01*
X26598476Y79662000D01*
X27217523Y79709620D02*
X27312761Y79709620D01*
X27408000Y79662000D01*
X27455619Y79614381D01*
X27503238Y79519143D01*
X27550857Y79328667D01*
X27550857Y79090572D01*
X27503238Y78900096D01*
X27455619Y78804858D01*
X27408000Y78757239D01*
X27312761Y78709620D01*
X27217523Y78709620D01*
X27122285Y78757239D01*
X27074666Y78804858D01*
X27027047Y78900096D01*
X26979428Y79090572D01*
X26979428Y79328667D01*
X27027047Y79519143D01*
X27074666Y79614381D01*
X27122285Y79662000D01*
X27217523Y79709620D01*
X28408000Y79376286D02*
X28408000Y78709620D01*
X28169904Y79757239D02*
X27931809Y79042953D01*
X28550857Y79042953D01*
X25043142Y67644620D02*
X25709809Y67644620D01*
X25281238Y66644620D01*
X26519333Y67311286D02*
X26519333Y66644620D01*
X26281238Y67692239D02*
X26043142Y66977953D01*
X26662190Y66977953D01*
X27519333Y66644620D02*
X27043142Y66644620D01*
X27043142Y67644620D01*
X27805047Y66692239D02*
X27947904Y66644620D01*
X28186000Y66644620D01*
X28281238Y66692239D01*
X28328857Y66739858D01*
X28376476Y66835096D01*
X28376476Y66930334D01*
X28328857Y67025572D01*
X28281238Y67073191D01*
X28186000Y67120810D01*
X27995523Y67168429D01*
X27900285Y67216048D01*
X27852666Y67263667D01*
X27805047Y67358905D01*
X27805047Y67454143D01*
X27852666Y67549381D01*
X27900285Y67597000D01*
X27995523Y67644620D01*
X28233619Y67644620D01*
X28376476Y67597000D01*
X28709809Y67644620D02*
X29328857Y67644620D01*
X28995523Y67263667D01*
X29138380Y67263667D01*
X29233619Y67216048D01*
X29281238Y67168429D01*
X29328857Y67073191D01*
X29328857Y66835096D01*
X29281238Y66739858D01*
X29233619Y66692239D01*
X29138380Y66644620D01*
X28852666Y66644620D01*
X28757428Y66692239D01*
X28709809Y66739858D01*
X29947904Y67644620D02*
X30043142Y67644620D01*
X30138380Y67597000D01*
X30186000Y67549381D01*
X30233619Y67454143D01*
X30281238Y67263667D01*
X30281238Y67025572D01*
X30233619Y66835096D01*
X30186000Y66739858D01*
X30138380Y66692239D01*
X30043142Y66644620D01*
X29947904Y66644620D01*
X29852666Y66692239D01*
X29805047Y66739858D01*
X29757428Y66835096D01*
X29709809Y67025572D01*
X29709809Y67263667D01*
X29757428Y67454143D01*
X29805047Y67549381D01*
X29852666Y67597000D01*
X29947904Y67644620D01*
X32139142Y82630620D02*
X32234380Y82630620D01*
X32329619Y82583000D01*
X32377238Y82535381D01*
X32424857Y82440143D01*
X32472476Y82249667D01*
X32472476Y82011572D01*
X32424857Y81821096D01*
X32377238Y81725858D01*
X32329619Y81678239D01*
X32234380Y81630620D01*
X32139142Y81630620D01*
X32043904Y81678239D01*
X31996285Y81725858D01*
X31948666Y81821096D01*
X31901047Y82011572D01*
X31901047Y82249667D01*
X31948666Y82440143D01*
X31996285Y82535381D01*
X32043904Y82583000D01*
X32139142Y82630620D01*
X32901047Y81725858D02*
X32948666Y81678239D01*
X32901047Y81630620D01*
X32853428Y81678239D01*
X32901047Y81725858D01*
X32901047Y81630620D01*
X33901047Y81630620D02*
X33329619Y81630620D01*
X33615333Y81630620D02*
X33615333Y82630620D01*
X33520095Y82487762D01*
X33424857Y82392524D01*
X33329619Y82344905D01*
X34758190Y82297286D02*
X34758190Y81630620D01*
X34329619Y82297286D02*
X34329619Y81773477D01*
X34377238Y81678239D01*
X34472476Y81630620D01*
X34615333Y81630620D01*
X34710571Y81678239D01*
X34758190Y81725858D01*
X35567714Y82154429D02*
X35234380Y82154429D01*
X35234380Y81630620D02*
X35234380Y82630620D01*
X35710571Y82630620D01*
X32647142Y70184620D02*
X32742380Y70184620D01*
X32837619Y70137000D01*
X32885238Y70089381D01*
X32932857Y69994143D01*
X32980476Y69803667D01*
X32980476Y69565572D01*
X32932857Y69375096D01*
X32885238Y69279858D01*
X32837619Y69232239D01*
X32742380Y69184620D01*
X32647142Y69184620D01*
X32551904Y69232239D01*
X32504285Y69279858D01*
X32456666Y69375096D01*
X32409047Y69565572D01*
X32409047Y69803667D01*
X32456666Y69994143D01*
X32504285Y70089381D01*
X32551904Y70137000D01*
X32647142Y70184620D01*
X33409047Y69279858D02*
X33456666Y69232239D01*
X33409047Y69184620D01*
X33361428Y69232239D01*
X33409047Y69279858D01*
X33409047Y69184620D01*
X34409047Y69184620D02*
X33837619Y69184620D01*
X34123333Y69184620D02*
X34123333Y70184620D01*
X34028095Y70041762D01*
X33932857Y69946524D01*
X33837619Y69898905D01*
X35266190Y69851286D02*
X35266190Y69184620D01*
X34837619Y69851286D02*
X34837619Y69327477D01*
X34885238Y69232239D01*
X34980476Y69184620D01*
X35123333Y69184620D01*
X35218571Y69232239D01*
X35266190Y69279858D01*
X36075714Y69708429D02*
X35742380Y69708429D01*
X35742380Y69184620D02*
X35742380Y70184620D01*
X36218571Y70184620D01*
X508095Y104110000D02*
X412857Y104157620D01*
X270000Y104157620D01*
X127142Y104110000D01*
X31904Y104014762D01*
X-15715Y103919524D01*
X-63334Y103729048D01*
X-63334Y103586191D01*
X-15715Y103395715D01*
X31904Y103300477D01*
X127142Y103205239D01*
X270000Y103157620D01*
X365238Y103157620D01*
X508095Y103205239D01*
X555714Y103252858D01*
X555714Y103586191D01*
X365238Y103586191D01*
X984285Y103157620D02*
X984285Y104157620D01*
X1555714Y103157620D01*
X1555714Y104157620D01*
X2031904Y103157620D02*
X2031904Y104157620D01*
X2270000Y104157620D01*
X2412857Y104110000D01*
X2508095Y104014762D01*
X2555714Y103919524D01*
X2603333Y103729048D01*
X2603333Y103586191D01*
X2555714Y103395715D01*
X2508095Y103300477D01*
X2412857Y103205239D01*
X2270000Y103157620D01*
X2031904Y103157620D01*
X508095Y99030000D02*
X412857Y99077620D01*
X270000Y99077620D01*
X127142Y99030000D01*
X31904Y98934762D01*
X-15715Y98839524D01*
X-63334Y98649048D01*
X-63334Y98506191D01*
X-15715Y98315715D01*
X31904Y98220477D01*
X127142Y98125239D01*
X270000Y98077620D01*
X365238Y98077620D01*
X508095Y98125239D01*
X555714Y98172858D01*
X555714Y98506191D01*
X365238Y98506191D01*
X984285Y98077620D02*
X984285Y99077620D01*
X1555714Y98077620D01*
X1555714Y99077620D01*
X2031904Y98077620D02*
X2031904Y99077620D01*
X2270000Y99077620D01*
X2412857Y99030000D01*
X2508095Y98934762D01*
X2555714Y98839524D01*
X2603333Y98649048D01*
X2603333Y98506191D01*
X2555714Y98315715D01*
X2508095Y98220477D01*
X2412857Y98125239D01*
X2270000Y98077620D01*
X2031904Y98077620D01*
X508095Y93950000D02*
X412857Y93997620D01*
X270000Y93997620D01*
X127142Y93950000D01*
X31904Y93854762D01*
X-15715Y93759524D01*
X-63334Y93569048D01*
X-63334Y93426191D01*
X-15715Y93235715D01*
X31904Y93140477D01*
X127142Y93045239D01*
X270000Y92997620D01*
X365238Y92997620D01*
X508095Y93045239D01*
X555714Y93092858D01*
X555714Y93426191D01*
X365238Y93426191D01*
X984285Y92997620D02*
X984285Y93997620D01*
X1555714Y92997620D01*
X1555714Y93997620D01*
X2031904Y92997620D02*
X2031904Y93997620D01*
X2270000Y93997620D01*
X2412857Y93950000D01*
X2508095Y93854762D01*
X2555714Y93759524D01*
X2603333Y93569048D01*
X2603333Y93426191D01*
X2555714Y93235715D01*
X2508095Y93140477D01*
X2412857Y93045239D01*
X2270000Y92997620D01*
X2031904Y92997620D01*
X508095Y88870000D02*
X412857Y88917620D01*
X270000Y88917620D01*
X127142Y88870000D01*
X31904Y88774762D01*
X-15715Y88679524D01*
X-63334Y88489048D01*
X-63334Y88346191D01*
X-15715Y88155715D01*
X31904Y88060477D01*
X127142Y87965239D01*
X270000Y87917620D01*
X365238Y87917620D01*
X508095Y87965239D01*
X555714Y88012858D01*
X555714Y88346191D01*
X365238Y88346191D01*
X984285Y87917620D02*
X984285Y88917620D01*
X1555714Y87917620D01*
X1555714Y88917620D01*
X2031904Y87917620D02*
X2031904Y88917620D01*
X2270000Y88917620D01*
X2412857Y88870000D01*
X2508095Y88774762D01*
X2555714Y88679524D01*
X2603333Y88489048D01*
X2603333Y88346191D01*
X2555714Y88155715D01*
X2508095Y88060477D01*
X2412857Y87965239D01*
X2270000Y87917620D01*
X2031904Y87917620D01*
X508095Y78710000D02*
X412857Y78757620D01*
X270000Y78757620D01*
X127142Y78710000D01*
X31904Y78614762D01*
X-15715Y78519524D01*
X-63334Y78329048D01*
X-63334Y78186191D01*
X-15715Y77995715D01*
X31904Y77900477D01*
X127142Y77805239D01*
X270000Y77757620D01*
X365238Y77757620D01*
X508095Y77805239D01*
X555714Y77852858D01*
X555714Y78186191D01*
X365238Y78186191D01*
X984285Y77757620D02*
X984285Y78757620D01*
X1555714Y77757620D01*
X1555714Y78757620D01*
X2031904Y77757620D02*
X2031904Y78757620D01*
X2270000Y78757620D01*
X2412857Y78710000D01*
X2508095Y78614762D01*
X2555714Y78519524D01*
X2603333Y78329048D01*
X2603333Y78186191D01*
X2555714Y77995715D01*
X2508095Y77900477D01*
X2412857Y77805239D01*
X2270000Y77757620D01*
X2031904Y77757620D01*
X508095Y48230000D02*
X412857Y48277620D01*
X270000Y48277620D01*
X127142Y48230000D01*
X31904Y48134762D01*
X-15715Y48039524D01*
X-63334Y47849048D01*
X-63334Y47706191D01*
X-15715Y47515715D01*
X31904Y47420477D01*
X127142Y47325239D01*
X270000Y47277620D01*
X365238Y47277620D01*
X508095Y47325239D01*
X555714Y47372858D01*
X555714Y47706191D01*
X365238Y47706191D01*
X984285Y47277620D02*
X984285Y48277620D01*
X1555714Y47277620D01*
X1555714Y48277620D01*
X2031904Y47277620D02*
X2031904Y48277620D01*
X2270000Y48277620D01*
X2412857Y48230000D01*
X2508095Y48134762D01*
X2555714Y48039524D01*
X2603333Y47849048D01*
X2603333Y47706191D01*
X2555714Y47515715D01*
X2508095Y47420477D01*
X2412857Y47325239D01*
X2270000Y47277620D01*
X2031904Y47277620D01*
X508095Y50770000D02*
X412857Y50817620D01*
X270000Y50817620D01*
X127142Y50770000D01*
X31904Y50674762D01*
X-15715Y50579524D01*
X-63334Y50389048D01*
X-63334Y50246191D01*
X-15715Y50055715D01*
X31904Y49960477D01*
X127142Y49865239D01*
X270000Y49817620D01*
X365238Y49817620D01*
X508095Y49865239D01*
X555714Y49912858D01*
X555714Y50246191D01*
X365238Y50246191D01*
X984285Y49817620D02*
X984285Y50817620D01*
X1555714Y49817620D01*
X1555714Y50817620D01*
X2031904Y49817620D02*
X2031904Y50817620D01*
X2270000Y50817620D01*
X2412857Y50770000D01*
X2508095Y50674762D01*
X2555714Y50579524D01*
X2603333Y50389048D01*
X2603333Y50246191D01*
X2555714Y50055715D01*
X2508095Y49960477D01*
X2412857Y49865239D01*
X2270000Y49817620D01*
X2031904Y49817620D01*
X508095Y53310000D02*
X412857Y53357620D01*
X270000Y53357620D01*
X127142Y53310000D01*
X31904Y53214762D01*
X-15715Y53119524D01*
X-63334Y52929048D01*
X-63334Y52786191D01*
X-15715Y52595715D01*
X31904Y52500477D01*
X127142Y52405239D01*
X270000Y52357620D01*
X365238Y52357620D01*
X508095Y52405239D01*
X555714Y52452858D01*
X555714Y52786191D01*
X365238Y52786191D01*
X984285Y52357620D02*
X984285Y53357620D01*
X1555714Y52357620D01*
X1555714Y53357620D01*
X2031904Y52357620D02*
X2031904Y53357620D01*
X2270000Y53357620D01*
X2412857Y53310000D01*
X2508095Y53214762D01*
X2555714Y53119524D01*
X2603333Y52929048D01*
X2603333Y52786191D01*
X2555714Y52595715D01*
X2508095Y52500477D01*
X2412857Y52405239D01*
X2270000Y52357620D01*
X2031904Y52357620D01*
X508095Y55850000D02*
X412857Y55897620D01*
X270000Y55897620D01*
X127142Y55850000D01*
X31904Y55754762D01*
X-15715Y55659524D01*
X-63334Y55469048D01*
X-63334Y55326191D01*
X-15715Y55135715D01*
X31904Y55040477D01*
X127142Y54945239D01*
X270000Y54897620D01*
X365238Y54897620D01*
X508095Y54945239D01*
X555714Y54992858D01*
X555714Y55326191D01*
X365238Y55326191D01*
X984285Y54897620D02*
X984285Y55897620D01*
X1555714Y54897620D01*
X1555714Y55897620D01*
X2031904Y54897620D02*
X2031904Y55897620D01*
X2270000Y55897620D01*
X2412857Y55850000D01*
X2508095Y55754762D01*
X2555714Y55659524D01*
X2603333Y55469048D01*
X2603333Y55326191D01*
X2555714Y55135715D01*
X2508095Y55040477D01*
X2412857Y54945239D01*
X2270000Y54897620D01*
X2031904Y54897620D01*
X508095Y58390000D02*
X412857Y58437620D01*
X270000Y58437620D01*
X127142Y58390000D01*
X31904Y58294762D01*
X-15715Y58199524D01*
X-63334Y58009048D01*
X-63334Y57866191D01*
X-15715Y57675715D01*
X31904Y57580477D01*
X127142Y57485239D01*
X270000Y57437620D01*
X365238Y57437620D01*
X508095Y57485239D01*
X555714Y57532858D01*
X555714Y57866191D01*
X365238Y57866191D01*
X984285Y57437620D02*
X984285Y58437620D01*
X1555714Y57437620D01*
X1555714Y58437620D01*
X2031904Y57437620D02*
X2031904Y58437620D01*
X2270000Y58437620D01*
X2412857Y58390000D01*
X2508095Y58294762D01*
X2555714Y58199524D01*
X2603333Y58009048D01*
X2603333Y57866191D01*
X2555714Y57675715D01*
X2508095Y57580477D01*
X2412857Y57485239D01*
X2270000Y57437620D01*
X2031904Y57437620D01*
X508095Y60930000D02*
X412857Y60977620D01*
X270000Y60977620D01*
X127142Y60930000D01*
X31904Y60834762D01*
X-15715Y60739524D01*
X-63334Y60549048D01*
X-63334Y60406191D01*
X-15715Y60215715D01*
X31904Y60120477D01*
X127142Y60025239D01*
X270000Y59977620D01*
X365238Y59977620D01*
X508095Y60025239D01*
X555714Y60072858D01*
X555714Y60406191D01*
X365238Y60406191D01*
X984285Y59977620D02*
X984285Y60977620D01*
X1555714Y59977620D01*
X1555714Y60977620D01*
X2031904Y59977620D02*
X2031904Y60977620D01*
X2270000Y60977620D01*
X2412857Y60930000D01*
X2508095Y60834762D01*
X2555714Y60739524D01*
X2603333Y60549048D01*
X2603333Y60406191D01*
X2555714Y60215715D01*
X2508095Y60120477D01*
X2412857Y60025239D01*
X2270000Y59977620D01*
X2031904Y59977620D01*
X508095Y63470000D02*
X412857Y63517620D01*
X270000Y63517620D01*
X127142Y63470000D01*
X31904Y63374762D01*
X-15715Y63279524D01*
X-63334Y63089048D01*
X-63334Y62946191D01*
X-15715Y62755715D01*
X31904Y62660477D01*
X127142Y62565239D01*
X270000Y62517620D01*
X365238Y62517620D01*
X508095Y62565239D01*
X555714Y62612858D01*
X555714Y62946191D01*
X365238Y62946191D01*
X984285Y62517620D02*
X984285Y63517620D01*
X1555714Y62517620D01*
X1555714Y63517620D01*
X2031904Y62517620D02*
X2031904Y63517620D01*
X2270000Y63517620D01*
X2412857Y63470000D01*
X2508095Y63374762D01*
X2555714Y63279524D01*
X2603333Y63089048D01*
X2603333Y62946191D01*
X2555714Y62755715D01*
X2508095Y62660477D01*
X2412857Y62565239D01*
X2270000Y62517620D01*
X2031904Y62517620D01*
X508095Y66010000D02*
X412857Y66057620D01*
X270000Y66057620D01*
X127142Y66010000D01*
X31904Y65914762D01*
X-15715Y65819524D01*
X-63334Y65629048D01*
X-63334Y65486191D01*
X-15715Y65295715D01*
X31904Y65200477D01*
X127142Y65105239D01*
X270000Y65057620D01*
X365238Y65057620D01*
X508095Y65105239D01*
X555714Y65152858D01*
X555714Y65486191D01*
X365238Y65486191D01*
X984285Y65057620D02*
X984285Y66057620D01*
X1555714Y65057620D01*
X1555714Y66057620D01*
X2031904Y65057620D02*
X2031904Y66057620D01*
X2270000Y66057620D01*
X2412857Y66010000D01*
X2508095Y65914762D01*
X2555714Y65819524D01*
X2603333Y65629048D01*
X2603333Y65486191D01*
X2555714Y65295715D01*
X2508095Y65200477D01*
X2412857Y65105239D01*
X2270000Y65057620D01*
X2031904Y65057620D01*
X70873952Y53817191D02*
X70826333Y53721953D01*
X70778714Y53674334D01*
X70683476Y53626715D01*
X70635857Y53626715D01*
X70540619Y53674334D01*
X70493000Y53721953D01*
X70445380Y53817191D01*
X70445380Y54007667D01*
X70493000Y54102905D01*
X70540619Y54150524D01*
X70635857Y54198143D01*
X70683476Y54198143D01*
X70778714Y54150524D01*
X70826333Y54102905D01*
X70873952Y54007667D01*
X70873952Y53817191D01*
X70921571Y53721953D01*
X70969190Y53674334D01*
X71064428Y53626715D01*
X71254904Y53626715D01*
X71350142Y53674334D01*
X71397761Y53721953D01*
X71445380Y53817191D01*
X71445380Y54007667D01*
X71397761Y54102905D01*
X71350142Y54150524D01*
X71254904Y54198143D01*
X71064428Y54198143D01*
X70969190Y54150524D01*
X70921571Y54102905D01*
X70873952Y54007667D01*
X70540619Y54579096D02*
X70493000Y54626715D01*
X70445380Y54721953D01*
X70445380Y54960048D01*
X70493000Y55055286D01*
X70540619Y55102905D01*
X70635857Y55150524D01*
X70731095Y55150524D01*
X70873952Y55102905D01*
X71445380Y54531477D01*
X71445380Y55150524D01*
X70445380Y56055286D02*
X70445380Y55579096D01*
X70921571Y55531477D01*
X70873952Y55579096D01*
X70826333Y55674334D01*
X70826333Y55912429D01*
X70873952Y56007667D01*
X70921571Y56055286D01*
X71016809Y56102905D01*
X71254904Y56102905D01*
X71350142Y56055286D01*
X71397761Y56007667D01*
X71445380Y55912429D01*
X71445380Y55674334D01*
X71397761Y55579096D01*
X71350142Y55531477D01*
X70445380Y57007667D02*
X70445380Y56531477D01*
X70921571Y56483858D01*
X70873952Y56531477D01*
X70826333Y56626715D01*
X70826333Y56864810D01*
X70873952Y56960048D01*
X70921571Y57007667D01*
X71016809Y57055286D01*
X71254904Y57055286D01*
X71350142Y57007667D01*
X71397761Y56960048D01*
X71445380Y56864810D01*
X71445380Y56626715D01*
X71397761Y56531477D01*
X71350142Y56483858D01*
X13978142Y52078620D02*
X14073380Y52078620D01*
X14168619Y52031000D01*
X14216238Y51983381D01*
X14263857Y51888143D01*
X14311476Y51697667D01*
X14311476Y51459572D01*
X14263857Y51269096D01*
X14216238Y51173858D01*
X14168619Y51126239D01*
X14073380Y51078620D01*
X13978142Y51078620D01*
X13882904Y51126239D01*
X13835285Y51173858D01*
X13787666Y51269096D01*
X13740047Y51459572D01*
X13740047Y51697667D01*
X13787666Y51888143D01*
X13835285Y51983381D01*
X13882904Y52031000D01*
X13978142Y52078620D01*
X14740047Y51173858D02*
X14787666Y51126239D01*
X14740047Y51078620D01*
X14692428Y51126239D01*
X14740047Y51173858D01*
X14740047Y51078620D01*
X15740047Y51078620D02*
X15168619Y51078620D01*
X15454333Y51078620D02*
X15454333Y52078620D01*
X15359095Y51935762D01*
X15263857Y51840524D01*
X15168619Y51792905D01*
X16597190Y51745286D02*
X16597190Y51078620D01*
X16168619Y51745286D02*
X16168619Y51221477D01*
X16216238Y51126239D01*
X16311476Y51078620D01*
X16454333Y51078620D01*
X16549571Y51126239D01*
X16597190Y51173858D01*
X17406714Y51602429D02*
X17073380Y51602429D01*
X17073380Y51078620D02*
X17073380Y52078620D01*
X17549571Y52078620D01*
X55460238Y70486334D02*
X55936428Y70486334D01*
X55365000Y70200620D02*
X55698333Y71200620D01*
X56031666Y70200620D01*
X56365000Y70200620D02*
X56365000Y70867286D01*
X56365000Y70676810D02*
X56412619Y70772048D01*
X56460238Y70819667D01*
X56555476Y70867286D01*
X56650714Y70867286D01*
X57412619Y70200620D02*
X57412619Y71200620D01*
X57412619Y70248239D02*
X57317380Y70200620D01*
X57126904Y70200620D01*
X57031666Y70248239D01*
X56984047Y70295858D01*
X56936428Y70391096D01*
X56936428Y70676810D01*
X56984047Y70772048D01*
X57031666Y70819667D01*
X57126904Y70867286D01*
X57317380Y70867286D01*
X57412619Y70819667D01*
X58317380Y70867286D02*
X58317380Y70200620D01*
X57888809Y70867286D02*
X57888809Y70343477D01*
X57936428Y70248239D01*
X58031666Y70200620D01*
X58174523Y70200620D01*
X58269761Y70248239D01*
X58317380Y70295858D01*
X58793571Y70200620D02*
X58793571Y70867286D01*
X58793571Y71200620D02*
X58745952Y71153000D01*
X58793571Y71105381D01*
X58841190Y71153000D01*
X58793571Y71200620D01*
X58793571Y71105381D01*
X59269761Y70867286D02*
X59269761Y70200620D01*
X59269761Y70772048D02*
X59317380Y70819667D01*
X59412619Y70867286D01*
X59555476Y70867286D01*
X59650714Y70819667D01*
X59698333Y70724429D01*
X59698333Y70200620D01*
X60317380Y70200620D02*
X60222142Y70248239D01*
X60174523Y70295858D01*
X60126904Y70391096D01*
X60126904Y70676810D01*
X60174523Y70772048D01*
X60222142Y70819667D01*
X60317380Y70867286D01*
X60460238Y70867286D01*
X60555476Y70819667D01*
X60603095Y70772048D01*
X60650714Y70676810D01*
X60650714Y70391096D01*
X60603095Y70295858D01*
X60555476Y70248239D01*
X60460238Y70200620D01*
X60317380Y70200620D01*
X61841190Y70200620D02*
X61841190Y71200620D01*
X62222142Y71200620D01*
X62317380Y71153000D01*
X62365000Y71105381D01*
X62412619Y71010143D01*
X62412619Y70867286D01*
X62365000Y70772048D01*
X62317380Y70724429D01*
X62222142Y70676810D01*
X61841190Y70676810D01*
X62841190Y70200620D02*
X62841190Y70867286D01*
X62841190Y70676810D02*
X62888809Y70772048D01*
X62936428Y70819667D01*
X63031666Y70867286D01*
X63126904Y70867286D01*
X63603095Y70200620D02*
X63507857Y70248239D01*
X63460238Y70295858D01*
X63412619Y70391096D01*
X63412619Y70676810D01*
X63460238Y70772048D01*
X63507857Y70819667D01*
X63603095Y70867286D01*
X63745952Y70867286D01*
X63841190Y70819667D01*
X63888809Y70772048D01*
X63936428Y70676810D01*
X63936428Y70391096D01*
X63888809Y70295858D01*
X63841190Y70248239D01*
X63745952Y70200620D01*
X63603095Y70200620D01*
X65126904Y70200620D02*
X65126904Y71200620D01*
X65460238Y70486334D01*
X65793571Y71200620D01*
X65793571Y70200620D01*
X66269761Y70200620D02*
X66269761Y70867286D01*
X66269761Y71200620D02*
X66222142Y71153000D01*
X66269761Y71105381D01*
X66317380Y71153000D01*
X66269761Y71200620D01*
X66269761Y71105381D01*
X66745952Y70867286D02*
X66745952Y70200620D01*
X66745952Y70772048D02*
X66793571Y70819667D01*
X66888809Y70867286D01*
X67031666Y70867286D01*
X67126904Y70819667D01*
X67174523Y70724429D01*
X67174523Y70200620D01*
X67650714Y70200620D02*
X67650714Y70867286D01*
X67650714Y71200620D02*
X67603095Y71153000D01*
X67650714Y71105381D01*
X67698333Y71153000D01*
X67650714Y71200620D01*
X67650714Y71105381D01*
X69365000Y71200620D02*
X68888809Y71200620D01*
X68841190Y70724429D01*
X68888809Y70772048D01*
X68984047Y70819667D01*
X69222142Y70819667D01*
X69317380Y70772048D01*
X69365000Y70724429D01*
X69412619Y70629191D01*
X69412619Y70391096D01*
X69365000Y70295858D01*
X69317380Y70248239D01*
X69222142Y70200620D01*
X68984047Y70200620D01*
X68888809Y70248239D01*
X68841190Y70295858D01*
X69698333Y71200620D02*
X70031666Y70200620D01*
X70365000Y71200620D01*
X4001095Y110777620D02*
X4001095Y111777620D01*
X4334428Y111063334D01*
X4667761Y111777620D01*
X4667761Y110777620D01*
X5048714Y111777620D02*
X5715380Y111777620D01*
X5048714Y110777620D01*
X5715380Y110777620D01*
X6096333Y111158572D02*
X6858238Y111158572D01*
X7477285Y111349048D02*
X7382047Y111396667D01*
X7334428Y111444286D01*
X7286809Y111539524D01*
X7286809Y111587143D01*
X7334428Y111682381D01*
X7382047Y111730000D01*
X7477285Y111777620D01*
X7667761Y111777620D01*
X7763000Y111730000D01*
X7810619Y111682381D01*
X7858238Y111587143D01*
X7858238Y111539524D01*
X7810619Y111444286D01*
X7763000Y111396667D01*
X7667761Y111349048D01*
X7477285Y111349048D01*
X7382047Y111301429D01*
X7334428Y111253810D01*
X7286809Y111158572D01*
X7286809Y110968096D01*
X7334428Y110872858D01*
X7382047Y110825239D01*
X7477285Y110777620D01*
X7667761Y110777620D01*
X7763000Y110825239D01*
X7810619Y110872858D01*
X7858238Y110968096D01*
X7858238Y111158572D01*
X7810619Y111253810D01*
X7763000Y111301429D01*
X7667761Y111349048D01*
X8477285Y111777620D02*
X8572523Y111777620D01*
X8667761Y111730000D01*
X8715380Y111682381D01*
X8763000Y111587143D01*
X8810619Y111396667D01*
X8810619Y111158572D01*
X8763000Y110968096D01*
X8715380Y110872858D01*
X8667761Y110825239D01*
X8572523Y110777620D01*
X8477285Y110777620D01*
X8382047Y110825239D01*
X8334428Y110872858D01*
X8286809Y110968096D01*
X8239190Y111158572D01*
X8239190Y111396667D01*
X8286809Y111587143D01*
X8334428Y111682381D01*
X8382047Y111730000D01*
X8477285Y111777620D01*
X9239190Y110777620D02*
X9239190Y111777620D01*
X9810619Y110777620D02*
X9382047Y111349048D01*
X9810619Y111777620D02*
X9239190Y111206191D01*
X11334428Y111301429D02*
X11477285Y111253810D01*
X11524904Y111206191D01*
X11572523Y111110953D01*
X11572523Y110968096D01*
X11524904Y110872858D01*
X11477285Y110825239D01*
X11382047Y110777620D01*
X11001095Y110777620D01*
X11001095Y111777620D01*
X11334428Y111777620D01*
X11429666Y111730000D01*
X11477285Y111682381D01*
X11524904Y111587143D01*
X11524904Y111491905D01*
X11477285Y111396667D01*
X11429666Y111349048D01*
X11334428Y111301429D01*
X11001095Y111301429D01*
X12001095Y111777620D02*
X12001095Y110968096D01*
X12048714Y110872858D01*
X12096333Y110825239D01*
X12191571Y110777620D01*
X12382047Y110777620D01*
X12477285Y110825239D01*
X12524904Y110872858D01*
X12572523Y110968096D01*
X12572523Y111777620D01*
X13001095Y110825239D02*
X13143952Y110777620D01*
X13382047Y110777620D01*
X13477285Y110825239D01*
X13524904Y110872858D01*
X13572523Y110968096D01*
X13572523Y111063334D01*
X13524904Y111158572D01*
X13477285Y111206191D01*
X13382047Y111253810D01*
X13191571Y111301429D01*
X13096333Y111349048D01*
X13048714Y111396667D01*
X13001095Y111491905D01*
X13001095Y111587143D01*
X13048714Y111682381D01*
X13096333Y111730000D01*
X13191571Y111777620D01*
X13429666Y111777620D01*
X13572523Y111730000D01*
X23574714Y121721620D02*
X23574714Y122721620D01*
X24050904Y121721620D02*
X24050904Y122721620D01*
X24622333Y121721620D01*
X24622333Y122721620D01*
X24955666Y122721620D02*
X25527095Y122721620D01*
X25241380Y121721620D02*
X25241380Y122721620D01*
X26479476Y122721620D02*
X26812809Y121721620D01*
X27146142Y122721620D01*
X28050904Y121816858D02*
X28003285Y121769239D01*
X27860428Y121721620D01*
X27765190Y121721620D01*
X27622333Y121769239D01*
X27527095Y121864477D01*
X27479476Y121959715D01*
X27431857Y122150191D01*
X27431857Y122293048D01*
X27479476Y122483524D01*
X27527095Y122578762D01*
X27622333Y122674000D01*
X27765190Y122721620D01*
X27860428Y122721620D01*
X28003285Y122674000D01*
X28050904Y122626381D01*
X29050904Y121816858D02*
X29003285Y121769239D01*
X28860428Y121721620D01*
X28765190Y121721620D01*
X28622333Y121769239D01*
X28527095Y121864477D01*
X28479476Y121959715D01*
X28431857Y122150191D01*
X28431857Y122293048D01*
X28479476Y122483524D01*
X28527095Y122578762D01*
X28622333Y122674000D01*
X28765190Y122721620D01*
X28860428Y122721620D01*
X29003285Y122674000D01*
X29050904Y122626381D01*
X40832857Y121841429D02*
X41166190Y121841429D01*
X41309047Y121317620D02*
X40832857Y121317620D01*
X40832857Y122317620D01*
X41309047Y122317620D01*
X41642380Y122317620D02*
X42309047Y121317620D01*
X42309047Y122317620D02*
X41642380Y121317620D01*
X42547142Y122317620D02*
X43118571Y122317620D01*
X42832857Y121317620D02*
X42832857Y122317620D01*
X44690000Y122317620D02*
X44213809Y122317620D01*
X44166190Y121841429D01*
X44213809Y121889048D01*
X44309047Y121936667D01*
X44547142Y121936667D01*
X44642380Y121889048D01*
X44690000Y121841429D01*
X44737619Y121746191D01*
X44737619Y121508096D01*
X44690000Y121412858D01*
X44642380Y121365239D01*
X44547142Y121317620D01*
X44309047Y121317620D01*
X44213809Y121365239D01*
X44166190Y121412858D01*
X45023333Y122317620D02*
X45356666Y121317620D01*
X45690000Y122317620D01*
X57023380Y135478620D02*
X56451952Y135478620D01*
X56737666Y135478620D02*
X56737666Y136478620D01*
X56642428Y136335762D01*
X56547190Y136240524D01*
X56451952Y136192905D01*
X57642428Y136478620D02*
X57737666Y136478620D01*
X57832904Y136431000D01*
X57880523Y136383381D01*
X57928142Y136288143D01*
X57975761Y136097667D01*
X57975761Y135859572D01*
X57928142Y135669096D01*
X57880523Y135573858D01*
X57832904Y135526239D01*
X57737666Y135478620D01*
X57642428Y135478620D01*
X57547190Y135526239D01*
X57499571Y135573858D01*
X57451952Y135669096D01*
X57404333Y135859572D01*
X57404333Y136097667D01*
X57451952Y136288143D01*
X57499571Y136383381D01*
X57547190Y136431000D01*
X57642428Y136478620D01*
X58594809Y136478620D02*
X58690047Y136478620D01*
X58785285Y136431000D01*
X58832904Y136383381D01*
X58880523Y136288143D01*
X58928142Y136097667D01*
X58928142Y135859572D01*
X58880523Y135669096D01*
X58832904Y135573858D01*
X58785285Y135526239D01*
X58690047Y135478620D01*
X58594809Y135478620D01*
X58499571Y135526239D01*
X58451952Y135573858D01*
X58404333Y135669096D01*
X58356714Y135859572D01*
X58356714Y136097667D01*
X58404333Y136288143D01*
X58451952Y136383381D01*
X58499571Y136431000D01*
X58594809Y136478620D01*
X59785285Y136145286D02*
X59785285Y135478620D01*
X59356714Y136145286D02*
X59356714Y135621477D01*
X59404333Y135526239D01*
X59499571Y135478620D01*
X59642428Y135478620D01*
X59737666Y135526239D01*
X59785285Y135573858D01*
X60594809Y136002429D02*
X60261476Y136002429D01*
X60261476Y135478620D02*
X60261476Y136478620D01*
X60737666Y136478620D01*
X53538380Y129382905D02*
X52538380Y129382905D01*
X53538380Y129859096D02*
X52538380Y129859096D01*
X53538380Y130430524D01*
X52538380Y130430524D01*
X52538380Y130763858D02*
X52538380Y131335286D01*
X53538380Y131049572D02*
X52538380Y131049572D01*
X52490761Y132382905D02*
X53776476Y131525762D01*
X53014571Y132716239D02*
X53014571Y133049572D01*
X53538380Y133192429D02*
X53538380Y132716239D01*
X52538380Y132716239D01*
X52538380Y133192429D01*
X52538380Y133525762D02*
X53538380Y134192429D01*
X52538380Y134192429D02*
X53538380Y133525762D01*
X52538380Y134430524D02*
X52538380Y135001953D01*
X53538380Y134716239D02*
X52538380Y134716239D01*
X341428Y86377620D02*
X579523Y85377620D01*
X770000Y86091905D01*
X960476Y85377620D01*
X1198571Y86377620D01*
X2150952Y85377620D02*
X1817619Y85853810D01*
X1579523Y85377620D02*
X1579523Y86377620D01*
X1960476Y86377620D01*
X2055714Y86330000D01*
X2103333Y86282381D01*
X2150952Y86187143D01*
X2150952Y86044286D01*
X2103333Y85949048D01*
X2055714Y85901429D01*
X1960476Y85853810D01*
X1579523Y85853810D01*
X1079523Y90457620D02*
X746190Y90933810D01*
X508095Y90457620D02*
X508095Y91457620D01*
X889047Y91457620D01*
X984285Y91410000D01*
X1031904Y91362381D01*
X1079523Y91267143D01*
X1079523Y91124286D01*
X1031904Y91029048D01*
X984285Y90981429D01*
X889047Y90933810D01*
X508095Y90933810D01*
X1508095Y90457620D02*
X1508095Y91457620D01*
X1746190Y91457620D01*
X1889047Y91410000D01*
X1984285Y91314762D01*
X2031904Y91219524D01*
X2079523Y91029048D01*
X2079523Y90886191D01*
X2031904Y90695715D01*
X1984285Y90600477D01*
X1889047Y90505239D01*
X1746190Y90457620D01*
X1508095Y90457620D01*
X246190Y95537620D02*
X246190Y96537620D01*
X1293809Y95537620D02*
X960476Y96013810D01*
X722380Y95537620D02*
X722380Y96537620D01*
X1103333Y96537620D01*
X1198571Y96490000D01*
X1246190Y96442381D01*
X1293809Y96347143D01*
X1293809Y96204286D01*
X1246190Y96109048D01*
X1198571Y96061429D01*
X1103333Y96013810D01*
X722380Y96013810D01*
X2389047Y95442381D02*
X2293809Y95490000D01*
X2198571Y95585239D01*
X2055714Y95728096D01*
X1960476Y95775715D01*
X1865238Y95775715D01*
X1912857Y95537620D02*
X1817619Y95585239D01*
X1722380Y95680477D01*
X1674761Y95870953D01*
X1674761Y96204286D01*
X1722380Y96394762D01*
X1817619Y96490000D01*
X1912857Y96537620D01*
X2103333Y96537620D01*
X2198571Y96490000D01*
X2293809Y96394762D01*
X2341428Y96204286D01*
X2341428Y95870953D01*
X2293809Y95680477D01*
X2198571Y95585239D01*
X2103333Y95537620D01*
X1912857Y95537620D01*
X-87143Y100617620D02*
X-87143Y101617620D01*
X246190Y100903334D01*
X579523Y101617620D01*
X579523Y100617620D01*
X1627142Y100617620D02*
X1293809Y101093810D01*
X1055714Y100617620D02*
X1055714Y101617620D01*
X1436666Y101617620D01*
X1531904Y101570000D01*
X1579523Y101522381D01*
X1627142Y101427143D01*
X1627142Y101284286D01*
X1579523Y101189048D01*
X1531904Y101141429D01*
X1436666Y101093810D01*
X1055714Y101093810D01*
X2722380Y100522381D02*
X2627142Y100570000D01*
X2531904Y100665239D01*
X2389047Y100808096D01*
X2293809Y100855715D01*
X2198571Y100855715D01*
X2246190Y100617620D02*
X2150952Y100665239D01*
X2055714Y100760477D01*
X2008095Y100950953D01*
X2008095Y101284286D01*
X2055714Y101474762D01*
X2150952Y101570000D01*
X2246190Y101617620D01*
X2436666Y101617620D01*
X2531904Y101570000D01*
X2627142Y101474762D01*
X2674761Y101284286D01*
X2674761Y100950953D01*
X2627142Y100760477D01*
X2531904Y100665239D01*
X2436666Y100617620D01*
X2246190Y100617620D01*
X650952Y70137620D02*
X317619Y70613810D01*
X79523Y70137620D02*
X79523Y71137620D01*
X460476Y71137620D01*
X555714Y71090000D01*
X603333Y71042381D01*
X650952Y70947143D01*
X650952Y70804286D01*
X603333Y70709048D01*
X555714Y70661429D01*
X460476Y70613810D01*
X79523Y70613810D01*
X1079523Y70661429D02*
X1412857Y70661429D01*
X1555714Y70137620D02*
X1079523Y70137620D01*
X1079523Y71137620D01*
X1555714Y71137620D01*
X1936666Y70185239D02*
X2079523Y70137620D01*
X2317619Y70137620D01*
X2412857Y70185239D01*
X2460476Y70232858D01*
X2508095Y70328096D01*
X2508095Y70423334D01*
X2460476Y70518572D01*
X2412857Y70566191D01*
X2317619Y70613810D01*
X2127142Y70661429D01*
X2031904Y70709048D01*
X1984285Y70756667D01*
X1936666Y70851905D01*
X1936666Y70947143D01*
X1984285Y71042381D01*
X2031904Y71090000D01*
X2127142Y71137620D01*
X2365238Y71137620D01*
X2508095Y71090000D01*
X508095Y68550000D02*
X412857Y68597620D01*
X270000Y68597620D01*
X127142Y68550000D01*
X31904Y68454762D01*
X-15715Y68359524D01*
X-63334Y68169048D01*
X-63334Y68026191D01*
X-15715Y67835715D01*
X31904Y67740477D01*
X127142Y67645239D01*
X270000Y67597620D01*
X365238Y67597620D01*
X508095Y67645239D01*
X555714Y67692858D01*
X555714Y68026191D01*
X365238Y68026191D01*
X984285Y67597620D02*
X984285Y68597620D01*
X1555714Y67597620D01*
X1555714Y68597620D01*
X2031904Y67597620D02*
X2031904Y68597620D01*
X2270000Y68597620D01*
X2412857Y68550000D01*
X2508095Y68454762D01*
X2555714Y68359524D01*
X2603333Y68169048D01*
X2603333Y68026191D01*
X2555714Y67835715D01*
X2508095Y67740477D01*
X2412857Y67645239D01*
X2270000Y67597620D01*
X2031904Y67597620D01*
X8786904Y47277620D02*
X8786904Y48277620D01*
X9025000Y48277620D01*
X9167857Y48230000D01*
X9263095Y48134762D01*
X9310714Y48039524D01*
X9358333Y47849048D01*
X9358333Y47706191D01*
X9310714Y47515715D01*
X9263095Y47420477D01*
X9167857Y47325239D01*
X9025000Y47277620D01*
X8786904Y47277620D01*
X9977380Y48277620D02*
X10072619Y48277620D01*
X10167857Y48230000D01*
X10215476Y48182381D01*
X10263095Y48087143D01*
X10310714Y47896667D01*
X10310714Y47658572D01*
X10263095Y47468096D01*
X10215476Y47372858D01*
X10167857Y47325239D01*
X10072619Y47277620D01*
X9977380Y47277620D01*
X9882142Y47325239D01*
X9834523Y47372858D01*
X9786904Y47468096D01*
X9739285Y47658572D01*
X9739285Y47896667D01*
X9786904Y48087143D01*
X9834523Y48182381D01*
X9882142Y48230000D01*
X9977380Y48277620D01*
X8786904Y49817620D02*
X8786904Y50817620D01*
X9025000Y50817620D01*
X9167857Y50770000D01*
X9263095Y50674762D01*
X9310714Y50579524D01*
X9358333Y50389048D01*
X9358333Y50246191D01*
X9310714Y50055715D01*
X9263095Y49960477D01*
X9167857Y49865239D01*
X9025000Y49817620D01*
X8786904Y49817620D01*
X10310714Y49817620D02*
X9739285Y49817620D01*
X10025000Y49817620D02*
X10025000Y50817620D01*
X9929761Y50674762D01*
X9834523Y50579524D01*
X9739285Y50531905D01*
X8786904Y52357620D02*
X8786904Y53357620D01*
X9025000Y53357620D01*
X9167857Y53310000D01*
X9263095Y53214762D01*
X9310714Y53119524D01*
X9358333Y52929048D01*
X9358333Y52786191D01*
X9310714Y52595715D01*
X9263095Y52500477D01*
X9167857Y52405239D01*
X9025000Y52357620D01*
X8786904Y52357620D01*
X9739285Y53262381D02*
X9786904Y53310000D01*
X9882142Y53357620D01*
X10120238Y53357620D01*
X10215476Y53310000D01*
X10263095Y53262381D01*
X10310714Y53167143D01*
X10310714Y53071905D01*
X10263095Y52929048D01*
X9691666Y52357620D01*
X10310714Y52357620D01*
X8786904Y54897620D02*
X8786904Y55897620D01*
X9025000Y55897620D01*
X9167857Y55850000D01*
X9263095Y55754762D01*
X9310714Y55659524D01*
X9358333Y55469048D01*
X9358333Y55326191D01*
X9310714Y55135715D01*
X9263095Y55040477D01*
X9167857Y54945239D01*
X9025000Y54897620D01*
X8786904Y54897620D01*
X9691666Y55897620D02*
X10310714Y55897620D01*
X9977380Y55516667D01*
X10120238Y55516667D01*
X10215476Y55469048D01*
X10263095Y55421429D01*
X10310714Y55326191D01*
X10310714Y55088096D01*
X10263095Y54992858D01*
X10215476Y54945239D01*
X10120238Y54897620D01*
X9834523Y54897620D01*
X9739285Y54945239D01*
X9691666Y54992858D01*
X8786904Y57437620D02*
X8786904Y58437620D01*
X9025000Y58437620D01*
X9167857Y58390000D01*
X9263095Y58294762D01*
X9310714Y58199524D01*
X9358333Y58009048D01*
X9358333Y57866191D01*
X9310714Y57675715D01*
X9263095Y57580477D01*
X9167857Y57485239D01*
X9025000Y57437620D01*
X8786904Y57437620D01*
X10215476Y58104286D02*
X10215476Y57437620D01*
X9977380Y58485239D02*
X9739285Y57770953D01*
X10358333Y57770953D01*
X8786904Y59977620D02*
X8786904Y60977620D01*
X9025000Y60977620D01*
X9167857Y60930000D01*
X9263095Y60834762D01*
X9310714Y60739524D01*
X9358333Y60549048D01*
X9358333Y60406191D01*
X9310714Y60215715D01*
X9263095Y60120477D01*
X9167857Y60025239D01*
X9025000Y59977620D01*
X8786904Y59977620D01*
X10263095Y60977620D02*
X9786904Y60977620D01*
X9739285Y60501429D01*
X9786904Y60549048D01*
X9882142Y60596667D01*
X10120238Y60596667D01*
X10215476Y60549048D01*
X10263095Y60501429D01*
X10310714Y60406191D01*
X10310714Y60168096D01*
X10263095Y60072858D01*
X10215476Y60025239D01*
X10120238Y59977620D01*
X9882142Y59977620D01*
X9786904Y60025239D01*
X9739285Y60072858D01*
X8786904Y62517620D02*
X8786904Y63517620D01*
X9025000Y63517620D01*
X9167857Y63470000D01*
X9263095Y63374762D01*
X9310714Y63279524D01*
X9358333Y63089048D01*
X9358333Y62946191D01*
X9310714Y62755715D01*
X9263095Y62660477D01*
X9167857Y62565239D01*
X9025000Y62517620D01*
X8786904Y62517620D01*
X10215476Y63517620D02*
X10025000Y63517620D01*
X9929761Y63470000D01*
X9882142Y63422381D01*
X9786904Y63279524D01*
X9739285Y63089048D01*
X9739285Y62708096D01*
X9786904Y62612858D01*
X9834523Y62565239D01*
X9929761Y62517620D01*
X10120238Y62517620D01*
X10215476Y62565239D01*
X10263095Y62612858D01*
X10310714Y62708096D01*
X10310714Y62946191D01*
X10263095Y63041429D01*
X10215476Y63089048D01*
X10120238Y63136667D01*
X9929761Y63136667D01*
X9834523Y63089048D01*
X9786904Y63041429D01*
X9739285Y62946191D01*
X8786904Y65057620D02*
X8786904Y66057620D01*
X9025000Y66057620D01*
X9167857Y66010000D01*
X9263095Y65914762D01*
X9310714Y65819524D01*
X9358333Y65629048D01*
X9358333Y65486191D01*
X9310714Y65295715D01*
X9263095Y65200477D01*
X9167857Y65105239D01*
X9025000Y65057620D01*
X8786904Y65057620D01*
X9691666Y66057620D02*
X10358333Y66057620D01*
X9929761Y65057620D01*
X8810714Y70423334D02*
X9286904Y70423334D01*
X8715476Y70137620D02*
X9048809Y71137620D01*
X9382142Y70137620D01*
X9905952Y71137620D02*
X10001190Y71137620D01*
X10096428Y71090000D01*
X10144047Y71042381D01*
X10191666Y70947143D01*
X10239285Y70756667D01*
X10239285Y70518572D01*
X10191666Y70328096D01*
X10144047Y70232858D01*
X10096428Y70185239D01*
X10001190Y70137620D01*
X9905952Y70137620D01*
X9810714Y70185239D01*
X9763095Y70232858D01*
X9715476Y70328096D01*
X9667857Y70518572D01*
X9667857Y70756667D01*
X9715476Y70947143D01*
X9763095Y71042381D01*
X9810714Y71090000D01*
X9905952Y71137620D01*
X8810714Y72963334D02*
X9286904Y72963334D01*
X8715476Y72677620D02*
X9048809Y73677620D01*
X9382142Y72677620D01*
X10239285Y72677620D02*
X9667857Y72677620D01*
X9953571Y72677620D02*
X9953571Y73677620D01*
X9858333Y73534762D01*
X9763095Y73439524D01*
X9667857Y73391905D01*
X8810714Y75503334D02*
X9286904Y75503334D01*
X8715476Y75217620D02*
X9048809Y76217620D01*
X9382142Y75217620D01*
X9667857Y76122381D02*
X9715476Y76170000D01*
X9810714Y76217620D01*
X10048809Y76217620D01*
X10144047Y76170000D01*
X10191666Y76122381D01*
X10239285Y76027143D01*
X10239285Y75931905D01*
X10191666Y75789048D01*
X9620238Y75217620D01*
X10239285Y75217620D01*
X8810714Y78043334D02*
X9286904Y78043334D01*
X8715476Y77757620D02*
X9048809Y78757620D01*
X9382142Y77757620D01*
X9620238Y78757620D02*
X10239285Y78757620D01*
X9905952Y78376667D01*
X10048809Y78376667D01*
X10144047Y78329048D01*
X10191666Y78281429D01*
X10239285Y78186191D01*
X10239285Y77948096D01*
X10191666Y77852858D01*
X10144047Y77805239D01*
X10048809Y77757620D01*
X9763095Y77757620D01*
X9667857Y77805239D01*
X9620238Y77852858D01*
X8810714Y80583334D02*
X9286904Y80583334D01*
X8715476Y80297620D02*
X9048809Y81297620D01*
X9382142Y80297620D01*
X10144047Y80964286D02*
X10144047Y80297620D01*
X9905952Y81345239D02*
X9667857Y80630953D01*
X10286904Y80630953D01*
X8810714Y83123334D02*
X9286904Y83123334D01*
X8715476Y82837620D02*
X9048809Y83837620D01*
X9382142Y82837620D01*
X10191666Y83837620D02*
X9715476Y83837620D01*
X9667857Y83361429D01*
X9715476Y83409048D01*
X9810714Y83456667D01*
X10048809Y83456667D01*
X10144047Y83409048D01*
X10191666Y83361429D01*
X10239285Y83266191D01*
X10239285Y83028096D01*
X10191666Y82932858D01*
X10144047Y82885239D01*
X10048809Y82837620D01*
X9810714Y82837620D01*
X9715476Y82885239D01*
X9667857Y82932858D01*
X8810714Y85663334D02*
X9286904Y85663334D01*
X8715476Y85377620D02*
X9048809Y86377620D01*
X9382142Y85377620D01*
X10144047Y86377620D02*
X9953571Y86377620D01*
X9858333Y86330000D01*
X9810714Y86282381D01*
X9715476Y86139524D01*
X9667857Y85949048D01*
X9667857Y85568096D01*
X9715476Y85472858D01*
X9763095Y85425239D01*
X9858333Y85377620D01*
X10048809Y85377620D01*
X10144047Y85425239D01*
X10191666Y85472858D01*
X10239285Y85568096D01*
X10239285Y85806191D01*
X10191666Y85901429D01*
X10144047Y85949048D01*
X10048809Y85996667D01*
X9858333Y85996667D01*
X9763095Y85949048D01*
X9715476Y85901429D01*
X9667857Y85806191D01*
X8810714Y88203334D02*
X9286904Y88203334D01*
X8715476Y87917620D02*
X9048809Y88917620D01*
X9382142Y87917620D01*
X9620238Y88917620D02*
X10286904Y88917620D01*
X9858333Y87917620D01*
X8810714Y90743334D02*
X9286904Y90743334D01*
X8715476Y90457620D02*
X9048809Y91457620D01*
X9382142Y90457620D01*
X9858333Y91029048D02*
X9763095Y91076667D01*
X9715476Y91124286D01*
X9667857Y91219524D01*
X9667857Y91267143D01*
X9715476Y91362381D01*
X9763095Y91410000D01*
X9858333Y91457620D01*
X10048809Y91457620D01*
X10144047Y91410000D01*
X10191666Y91362381D01*
X10239285Y91267143D01*
X10239285Y91219524D01*
X10191666Y91124286D01*
X10144047Y91076667D01*
X10048809Y91029048D01*
X9858333Y91029048D01*
X9763095Y90981429D01*
X9715476Y90933810D01*
X9667857Y90838572D01*
X9667857Y90648096D01*
X9715476Y90552858D01*
X9763095Y90505239D01*
X9858333Y90457620D01*
X10048809Y90457620D01*
X10144047Y90505239D01*
X10191666Y90552858D01*
X10239285Y90648096D01*
X10239285Y90838572D01*
X10191666Y90933810D01*
X10144047Y90981429D01*
X10048809Y91029048D01*
X8810714Y93283334D02*
X9286904Y93283334D01*
X8715476Y92997620D02*
X9048809Y93997620D01*
X9382142Y92997620D01*
X9763095Y92997620D02*
X9953571Y92997620D01*
X10048809Y93045239D01*
X10096428Y93092858D01*
X10191666Y93235715D01*
X10239285Y93426191D01*
X10239285Y93807143D01*
X10191666Y93902381D01*
X10144047Y93950000D01*
X10048809Y93997620D01*
X9858333Y93997620D01*
X9763095Y93950000D01*
X9715476Y93902381D01*
X9667857Y93807143D01*
X9667857Y93569048D01*
X9715476Y93473810D01*
X9763095Y93426191D01*
X9858333Y93378572D01*
X10048809Y93378572D01*
X10144047Y93426191D01*
X10191666Y93473810D01*
X10239285Y93569048D01*
X8334523Y95823334D02*
X8810714Y95823334D01*
X8239285Y95537620D02*
X8572619Y96537620D01*
X8905952Y95537620D01*
X9763095Y95537620D02*
X9191666Y95537620D01*
X9477380Y95537620D02*
X9477380Y96537620D01*
X9382142Y96394762D01*
X9286904Y96299524D01*
X9191666Y96251905D01*
X10382142Y96537620D02*
X10477380Y96537620D01*
X10572619Y96490000D01*
X10620238Y96442381D01*
X10667857Y96347143D01*
X10715476Y96156667D01*
X10715476Y95918572D01*
X10667857Y95728096D01*
X10620238Y95632858D01*
X10572619Y95585239D01*
X10477380Y95537620D01*
X10382142Y95537620D01*
X10286904Y95585239D01*
X10239285Y95632858D01*
X10191666Y95728096D01*
X10144047Y95918572D01*
X10144047Y96156667D01*
X10191666Y96347143D01*
X10239285Y96442381D01*
X10286904Y96490000D01*
X10382142Y96537620D01*
X8334523Y98363334D02*
X8810714Y98363334D01*
X8239285Y98077620D02*
X8572619Y99077620D01*
X8905952Y98077620D01*
X9763095Y98077620D02*
X9191666Y98077620D01*
X9477380Y98077620D02*
X9477380Y99077620D01*
X9382142Y98934762D01*
X9286904Y98839524D01*
X9191666Y98791905D01*
X10715476Y98077620D02*
X10144047Y98077620D01*
X10429761Y98077620D02*
X10429761Y99077620D01*
X10334523Y98934762D01*
X10239285Y98839524D01*
X10144047Y98791905D01*
X8334523Y100903334D02*
X8810714Y100903334D01*
X8239285Y100617620D02*
X8572619Y101617620D01*
X8905952Y100617620D01*
X9763095Y100617620D02*
X9191666Y100617620D01*
X9477380Y100617620D02*
X9477380Y101617620D01*
X9382142Y101474762D01*
X9286904Y101379524D01*
X9191666Y101331905D01*
X10144047Y101522381D02*
X10191666Y101570000D01*
X10286904Y101617620D01*
X10525000Y101617620D01*
X10620238Y101570000D01*
X10667857Y101522381D01*
X10715476Y101427143D01*
X10715476Y101331905D01*
X10667857Y101189048D01*
X10096428Y100617620D01*
X10715476Y100617620D01*
X8334523Y103443334D02*
X8810714Y103443334D01*
X8239285Y103157620D02*
X8572619Y104157620D01*
X8905952Y103157620D01*
X9763095Y103157620D02*
X9191666Y103157620D01*
X9477380Y103157620D02*
X9477380Y104157620D01*
X9382142Y104014762D01*
X9286904Y103919524D01*
X9191666Y103871905D01*
X10096428Y104157620D02*
X10715476Y104157620D01*
X10382142Y103776667D01*
X10525000Y103776667D01*
X10620238Y103729048D01*
X10667857Y103681429D01*
X10715476Y103586191D01*
X10715476Y103348096D01*
X10667857Y103252858D01*
X10620238Y103205239D01*
X10525000Y103157620D01*
X10239285Y103157620D01*
X10144047Y103205239D01*
X10096428Y103252858D01*
X8334523Y105983334D02*
X8810714Y105983334D01*
X8239285Y105697620D02*
X8572619Y106697620D01*
X8905952Y105697620D01*
X9763095Y105697620D02*
X9191666Y105697620D01*
X9477380Y105697620D02*
X9477380Y106697620D01*
X9382142Y106554762D01*
X9286904Y106459524D01*
X9191666Y106411905D01*
X10620238Y106364286D02*
X10620238Y105697620D01*
X10382142Y106745239D02*
X10144047Y106030953D01*
X10763095Y106030953D01*
X8334523Y108523334D02*
X8810714Y108523334D01*
X8239285Y108237620D02*
X8572619Y109237620D01*
X8905952Y108237620D01*
X9763095Y108237620D02*
X9191666Y108237620D01*
X9477380Y108237620D02*
X9477380Y109237620D01*
X9382142Y109094762D01*
X9286904Y108999524D01*
X9191666Y108951905D01*
X10667857Y109237620D02*
X10191666Y109237620D01*
X10144047Y108761429D01*
X10191666Y108809048D01*
X10286904Y108856667D01*
X10525000Y108856667D01*
X10620238Y108809048D01*
X10667857Y108761429D01*
X10715476Y108666191D01*
X10715476Y108428096D01*
X10667857Y108332858D01*
X10620238Y108285239D01*
X10525000Y108237620D01*
X10286904Y108237620D01*
X10191666Y108285239D01*
X10144047Y108332858D01*
D11*
X79208142Y24450572D02*
X76208142Y24450572D01*
X78351000Y25117239D01*
X76208142Y25783905D01*
X79208142Y25783905D01*
X76208142Y26545810D02*
X76208142Y27879143D01*
X79208142Y26545810D01*
X79208142Y27879143D01*
X78065285Y28641048D02*
X78065285Y30164858D01*
X76208142Y30926762D02*
X76208142Y32260096D01*
X79208142Y31402953D01*
X76208142Y33402953D02*
X76208142Y33593429D01*
X76351000Y33783905D01*
X76493857Y33879143D01*
X76779571Y33974381D01*
X77351000Y34069620D01*
X78065285Y34069620D01*
X78636714Y33974381D01*
X78922428Y33879143D01*
X79065285Y33783905D01*
X79208142Y33593429D01*
X79208142Y33402953D01*
X79065285Y33212477D01*
X78922428Y33117239D01*
X78636714Y33022000D01*
X78065285Y32926762D01*
X77351000Y32926762D01*
X76779571Y33022000D01*
X76493857Y33117239D01*
X76351000Y33212477D01*
X76208142Y33402953D01*
X76208142Y35307715D02*
X76208142Y35498191D01*
X76351000Y35688667D01*
X76493857Y35783905D01*
X76779571Y35879143D01*
X77351000Y35974381D01*
X78065285Y35974381D01*
X78636714Y35879143D01*
X78922428Y35783905D01*
X79065285Y35688667D01*
X79208142Y35498191D01*
X79208142Y35307715D01*
X79065285Y35117239D01*
X78922428Y35022000D01*
X78636714Y34926762D01*
X78065285Y34831524D01*
X77351000Y34831524D01*
X76779571Y34926762D01*
X76493857Y35022000D01*
X76351000Y35117239D01*
X76208142Y35307715D01*
X79065285Y38260096D02*
X79208142Y38545810D01*
X79208142Y39022000D01*
X79065285Y39212477D01*
X78922428Y39307715D01*
X78636714Y39402953D01*
X78351000Y39402953D01*
X78065285Y39307715D01*
X77922428Y39212477D01*
X77779571Y39022000D01*
X77636714Y38641048D01*
X77493857Y38450572D01*
X77351000Y38355334D01*
X77065285Y38260096D01*
X76779571Y38260096D01*
X76493857Y38355334D01*
X76351000Y38450572D01*
X76208142Y38641048D01*
X76208142Y39117239D01*
X76351000Y39402953D01*
X79208142Y40260096D02*
X76208142Y40260096D01*
X76208142Y40736286D01*
X76351000Y41022000D01*
X76636714Y41212477D01*
X76922428Y41307715D01*
X77493857Y41402953D01*
X77922428Y41402953D01*
X78493857Y41307715D01*
X78779571Y41212477D01*
X79065285Y41022000D01*
X79208142Y40736286D01*
X79208142Y40260096D01*
X78065285Y42260096D02*
X78065285Y43783905D01*
X79208142Y43022000D02*
X76922428Y43022000D01*
X79208142Y44736286D02*
X76208142Y44736286D01*
X79208142Y45879143D01*
X76208142Y45879143D01*
X79208142Y46831524D02*
X77208142Y46831524D01*
X76208142Y46831524D02*
X76351000Y46736286D01*
X76493857Y46831524D01*
X76351000Y46926762D01*
X76208142Y46831524D01*
X76493857Y46831524D01*
X79065285Y47688667D02*
X79208142Y47879143D01*
X79208142Y48260096D01*
X79065285Y48450572D01*
X78779571Y48545810D01*
X78636714Y48545810D01*
X78351000Y48450572D01*
X78208142Y48260096D01*
X78208142Y47974381D01*
X78065285Y47783905D01*
X77779571Y47688667D01*
X77636714Y47688667D01*
X77351000Y47783905D01*
X77208142Y47974381D01*
X77208142Y48260096D01*
X77351000Y48450572D01*
X79065285Y50164858D02*
X79208142Y49974381D01*
X79208142Y49593429D01*
X79065285Y49402953D01*
X78779571Y49307715D01*
X77636714Y49307715D01*
X77351000Y49402953D01*
X77208142Y49593429D01*
X77208142Y49974381D01*
X77351000Y50164858D01*
X77636714Y50260096D01*
X77922428Y50260096D01*
X78208142Y49307715D01*
X79208142Y52260096D02*
X77779571Y51593429D01*
X79208142Y51117239D02*
X76208142Y51117239D01*
X76208142Y51879143D01*
X76351000Y52069620D01*
X76493857Y52164858D01*
X76779571Y52260096D01*
X77208142Y52260096D01*
X77493857Y52164858D01*
X77636714Y52069620D01*
X77779571Y51879143D01*
X77779571Y51117239D01*
X79208142Y53974381D02*
X77636714Y53974381D01*
X77351000Y53879143D01*
X77208142Y53688667D01*
X77208142Y53307715D01*
X77351000Y53117239D01*
X79065285Y53974381D02*
X79208142Y53783905D01*
X79208142Y53307715D01*
X79065285Y53117239D01*
X78779571Y53022000D01*
X78493857Y53022000D01*
X78208142Y53117239D01*
X78065285Y53307715D01*
X78065285Y53783905D01*
X77922428Y53974381D01*
X79208142Y54926762D02*
X77208142Y54926762D01*
X77493857Y54926762D02*
X77351000Y55022000D01*
X77208142Y55212477D01*
X77208142Y55498191D01*
X77351000Y55688667D01*
X77636714Y55783905D01*
X79208142Y55783905D01*
X77636714Y55783905D02*
X77351000Y55879143D01*
X77208142Y56069620D01*
X77208142Y56355334D01*
X77351000Y56545810D01*
X77636714Y56641048D01*
X79208142Y56641048D01*
X77636714Y58260096D02*
X77636714Y57593429D01*
X79208142Y57593429D02*
X76208142Y57593429D01*
X76208142Y58545810D01*
X79208142Y59307715D02*
X77208142Y59307715D01*
X76208142Y59307715D02*
X76351000Y59212477D01*
X76493857Y59307715D01*
X76351000Y59402953D01*
X76208142Y59307715D01*
X76493857Y59307715D01*
X79208142Y60545810D02*
X79065285Y60355334D01*
X78779571Y60260096D01*
X76208142Y60260096D01*
X79065285Y62069620D02*
X79208142Y61879143D01*
X79208142Y61498191D01*
X79065285Y61307715D01*
X78779571Y61212477D01*
X77636714Y61212477D01*
X77351000Y61307715D01*
X77208142Y61498191D01*
X77208142Y61879143D01*
X77351000Y62069620D01*
X77636714Y62164858D01*
X77922428Y62164858D01*
X78208142Y61212477D01*
X79208142Y65688667D02*
X77779571Y65022000D01*
X79208142Y64545810D02*
X76208142Y64545810D01*
X76208142Y65307715D01*
X76351000Y65498191D01*
X76493857Y65593429D01*
X76779571Y65688667D01*
X77208142Y65688667D01*
X77493857Y65593429D01*
X77636714Y65498191D01*
X77779571Y65307715D01*
X77779571Y64545810D01*
X79065285Y67307715D02*
X79208142Y67117239D01*
X79208142Y66736286D01*
X79065285Y66545810D01*
X78779571Y66450572D01*
X77636714Y66450572D01*
X77351000Y66545810D01*
X77208142Y66736286D01*
X77208142Y67117239D01*
X77351000Y67307715D01*
X77636714Y67402953D01*
X77922428Y67402953D01*
X78208142Y66450572D01*
X77208142Y68069620D02*
X79208142Y68545810D01*
X77208142Y69022000D01*
X79208142Y70831524D02*
X79208142Y69688667D01*
X79208142Y70260096D02*
X76208142Y70260096D01*
X76636714Y70069620D01*
X76922428Y69879143D01*
X77065285Y69688667D01*
X78922428Y71688667D02*
X79065285Y71783905D01*
X79208142Y71688667D01*
X79065285Y71593429D01*
X78922428Y71688667D01*
X79208142Y71688667D01*
X76493857Y72545810D02*
X76351000Y72641048D01*
X76208142Y72831524D01*
X76208142Y73307715D01*
X76351000Y73498191D01*
X76493857Y73593429D01*
X76779571Y73688667D01*
X77065285Y73688667D01*
X77493857Y73593429D01*
X79208142Y72450572D01*
X79208142Y73688667D01*
D12*
X23670000Y126440000D02*
X28870000Y126440000D01*
X28870000Y126440000D02*
X28870000Y129100000D01*
X28870000Y129100000D02*
X23670000Y129100000D01*
X23670000Y129100000D02*
X23670000Y126440000D01*
X24620000Y129100000D02*
X24620000Y135100000D01*
X24620000Y135100000D02*
X25380000Y135100000D01*
X25380000Y135100000D02*
X25380000Y129100000D01*
X24680000Y129100000D02*
X24680000Y135100000D01*
X24800000Y129100000D02*
X24800000Y135100000D01*
X24920000Y129100000D02*
X24920000Y135100000D01*
X25040000Y129100000D02*
X25040000Y135100000D01*
X25160000Y129100000D02*
X25160000Y135100000D01*
X25280000Y129100000D02*
X25280000Y135100000D01*
X24620000Y126110000D02*
X24620000Y126440000D01*
X25380000Y126110000D02*
X25380000Y126440000D01*
X26270000Y126440000D02*
X26270000Y129100000D01*
X27160000Y129100000D02*
X27160000Y135100000D01*
X27160000Y135100000D02*
X27920000Y135100000D01*
X27920000Y135100000D02*
X27920000Y129100000D01*
X27160000Y126042929D02*
X27160000Y126440000D01*
X27920000Y126042929D02*
X27920000Y126440000D01*
X25000000Y123730000D02*
X23730000Y123730000D01*
X23730000Y123730000D02*
X23730000Y125000000D01*
X50740000Y93080000D02*
X53400000Y93080000D01*
X50740000Y113460000D02*
X50740000Y93080000D01*
X53400000Y113460000D02*
X53400000Y93080000D01*
X50740000Y113460000D02*
X53400000Y113460000D01*
X50740000Y114730000D02*
X50740000Y116060000D01*
X50740000Y116060000D02*
X52070000Y116060000D01*
X50370000Y92710000D02*
X82170000Y92710000D01*
X82170000Y92710000D02*
X82170000Y116410000D01*
X82170000Y116410000D02*
X50370000Y116410000D01*
X50370000Y116410000D02*
X50370000Y92710000D01*
X16159000Y56806000D02*
X16864000Y56806000D01*
X14124000Y56806000D02*
X14829000Y56806000D01*
X16159000Y52566000D02*
X16864000Y52566000D01*
X14124000Y52566000D02*
X14829000Y52566000D01*
X16864000Y52566000D02*
X16864000Y56806000D01*
X14124000Y52566000D02*
X14124000Y56806000D01*
X42935000Y123760000D02*
X43985000Y123760000D01*
X43985000Y124810000D02*
X43985000Y123760000D01*
X34585000Y129860000D02*
X34585000Y138660000D01*
X34585000Y138660000D02*
X43785000Y138660000D01*
X37285000Y123960000D02*
X34585000Y123960000D01*
X34585000Y123960000D02*
X34585000Y125860000D01*
X43785000Y138660000D02*
X43785000Y123960000D01*
X43785000Y123960000D02*
X41185000Y123960000D01*
X-5900000Y109930000D02*
X2730000Y109930000D01*
X-5900000Y109811905D02*
X2730000Y109811905D01*
X-5900000Y109693810D02*
X2730000Y109693810D01*
X-5900000Y109575715D02*
X2730000Y109575715D01*
X-5900000Y109457620D02*
X2730000Y109457620D01*
X-5900000Y109339525D02*
X2730000Y109339525D01*
X-5900000Y109221430D02*
X2730000Y109221430D01*
X-5900000Y109103335D02*
X2730000Y109103335D01*
X-5900000Y108985240D02*
X2730000Y108985240D01*
X-5900000Y108867145D02*
X2730000Y108867145D01*
X-5900000Y108749050D02*
X2730000Y108749050D01*
X-5900000Y108630955D02*
X2730000Y108630955D01*
X-5900000Y108512860D02*
X2730000Y108512860D01*
X-5900000Y108394765D02*
X2730000Y108394765D01*
X-5900000Y108276670D02*
X2730000Y108276670D01*
X-5900000Y108158575D02*
X2730000Y108158575D01*
X-5900000Y108040480D02*
X2730000Y108040480D01*
X-5900000Y107922385D02*
X2730000Y107922385D01*
X-5900000Y107804290D02*
X2730000Y107804290D01*
X-5900000Y107686195D02*
X2730000Y107686195D01*
X-5900000Y107568100D02*
X2730000Y107568100D01*
X2730000Y109080000D02*
X3140000Y109080000D01*
X5240000Y109080000D02*
X5620000Y109080000D01*
X2730000Y108360000D02*
X3140000Y108360000D01*
X5240000Y108360000D02*
X5620000Y108360000D01*
X2730000Y106540000D02*
X3140000Y106540000D01*
X5240000Y106540000D02*
X5680000Y106540000D01*
X2730000Y105820000D02*
X3140000Y105820000D01*
X5240000Y105820000D02*
X5680000Y105820000D01*
X2730000Y104000000D02*
X3140000Y104000000D01*
X5240000Y104000000D02*
X5680000Y104000000D01*
X2730000Y103280000D02*
X3140000Y103280000D01*
X5240000Y103280000D02*
X5680000Y103280000D01*
X2730000Y101460000D02*
X3140000Y101460000D01*
X5240000Y101460000D02*
X5680000Y101460000D01*
X2730000Y100740000D02*
X3140000Y100740000D01*
X5240000Y100740000D02*
X5680000Y100740000D01*
X2730000Y98920000D02*
X3140000Y98920000D01*
X5240000Y98920000D02*
X5680000Y98920000D01*
X2730000Y98200000D02*
X3140000Y98200000D01*
X5240000Y98200000D02*
X5680000Y98200000D01*
X2730000Y96380000D02*
X3140000Y96380000D01*
X5240000Y96380000D02*
X5680000Y96380000D01*
X2730000Y95660000D02*
X3140000Y95660000D01*
X5240000Y95660000D02*
X5680000Y95660000D01*
X2730000Y93840000D02*
X3140000Y93840000D01*
X5240000Y93840000D02*
X5680000Y93840000D01*
X2730000Y93120000D02*
X3140000Y93120000D01*
X5240000Y93120000D02*
X5680000Y93120000D01*
X2730000Y91300000D02*
X3140000Y91300000D01*
X5240000Y91300000D02*
X5680000Y91300000D01*
X2730000Y90580000D02*
X3140000Y90580000D01*
X5240000Y90580000D02*
X5680000Y90580000D01*
X2730000Y88760000D02*
X3140000Y88760000D01*
X5240000Y88760000D02*
X5680000Y88760000D01*
X2730000Y88040000D02*
X3140000Y88040000D01*
X5240000Y88040000D02*
X5680000Y88040000D01*
X2730000Y86220000D02*
X3140000Y86220000D01*
X5240000Y86220000D02*
X5680000Y86220000D01*
X2730000Y85500000D02*
X3140000Y85500000D01*
X5240000Y85500000D02*
X5680000Y85500000D01*
X2730000Y83680000D02*
X3140000Y83680000D01*
X5240000Y83680000D02*
X5680000Y83680000D01*
X2730000Y82960000D02*
X3140000Y82960000D01*
X5240000Y82960000D02*
X5680000Y82960000D01*
X2730000Y81140000D02*
X3140000Y81140000D01*
X5240000Y81140000D02*
X5680000Y81140000D01*
X2730000Y80420000D02*
X3140000Y80420000D01*
X5240000Y80420000D02*
X5680000Y80420000D01*
X2730000Y78600000D02*
X3140000Y78600000D01*
X5240000Y78600000D02*
X5680000Y78600000D01*
X2730000Y77880000D02*
X3140000Y77880000D01*
X5240000Y77880000D02*
X5680000Y77880000D01*
X2730000Y76060000D02*
X3140000Y76060000D01*
X5240000Y76060000D02*
X5680000Y76060000D01*
X2730000Y75340000D02*
X3140000Y75340000D01*
X5240000Y75340000D02*
X5680000Y75340000D01*
X2730000Y73520000D02*
X3140000Y73520000D01*
X5240000Y73520000D02*
X5680000Y73520000D01*
X2730000Y72800000D02*
X3140000Y72800000D01*
X5240000Y72800000D02*
X5680000Y72800000D01*
X2730000Y70980000D02*
X3140000Y70980000D01*
X5240000Y70980000D02*
X5680000Y70980000D01*
X2730000Y70260000D02*
X3140000Y70260000D01*
X5240000Y70260000D02*
X5680000Y70260000D01*
X2730000Y68440000D02*
X3140000Y68440000D01*
X5240000Y68440000D02*
X5680000Y68440000D01*
X2730000Y67720000D02*
X3140000Y67720000D01*
X5240000Y67720000D02*
X5680000Y67720000D01*
X2730000Y65900000D02*
X3140000Y65900000D01*
X5240000Y65900000D02*
X5680000Y65900000D01*
X2730000Y65180000D02*
X3140000Y65180000D01*
X5240000Y65180000D02*
X5680000Y65180000D01*
X2730000Y63360000D02*
X3140000Y63360000D01*
X5240000Y63360000D02*
X5680000Y63360000D01*
X2730000Y62640000D02*
X3140000Y62640000D01*
X5240000Y62640000D02*
X5680000Y62640000D01*
X2730000Y60820000D02*
X3140000Y60820000D01*
X5240000Y60820000D02*
X5680000Y60820000D01*
X2730000Y60100000D02*
X3140000Y60100000D01*
X5240000Y60100000D02*
X5680000Y60100000D01*
X2730000Y58280000D02*
X3140000Y58280000D01*
X5240000Y58280000D02*
X5680000Y58280000D01*
X2730000Y57560000D02*
X3140000Y57560000D01*
X5240000Y57560000D02*
X5680000Y57560000D01*
X2730000Y55740000D02*
X3140000Y55740000D01*
X5240000Y55740000D02*
X5680000Y55740000D01*
X2730000Y55020000D02*
X3140000Y55020000D01*
X5240000Y55020000D02*
X5680000Y55020000D01*
X2730000Y53200000D02*
X3140000Y53200000D01*
X5240000Y53200000D02*
X5680000Y53200000D01*
X2730000Y52480000D02*
X3140000Y52480000D01*
X5240000Y52480000D02*
X5680000Y52480000D01*
X2730000Y50660000D02*
X3140000Y50660000D01*
X5240000Y50660000D02*
X5680000Y50660000D01*
X2730000Y49940000D02*
X3140000Y49940000D01*
X5240000Y49940000D02*
X5680000Y49940000D01*
X2730000Y48120000D02*
X3140000Y48120000D01*
X5240000Y48120000D02*
X5680000Y48120000D01*
X2730000Y47400000D02*
X3140000Y47400000D01*
X5240000Y47400000D02*
X5680000Y47400000D01*
X-5900000Y107450000D02*
X2730000Y107450000D01*
X-5900000Y104910000D02*
X2730000Y104910000D01*
X-5900000Y102370000D02*
X2730000Y102370000D01*
X-5900000Y99830000D02*
X2730000Y99830000D01*
X-5900000Y97290000D02*
X2730000Y97290000D01*
X-5900000Y94750000D02*
X2730000Y94750000D01*
X-5900000Y92210000D02*
X2730000Y92210000D01*
X-5900000Y89670000D02*
X2730000Y89670000D01*
X-5900000Y87130000D02*
X2730000Y87130000D01*
X-5900000Y84590000D02*
X2730000Y84590000D01*
X-5900000Y82050000D02*
X2730000Y82050000D01*
X-5900000Y79510000D02*
X2730000Y79510000D01*
X-5900000Y76970000D02*
X2730000Y76970000D01*
X-5900000Y74430000D02*
X2730000Y74430000D01*
X-5900000Y71890000D02*
X2730000Y71890000D01*
X-5900000Y69350000D02*
X2730000Y69350000D01*
X-5900000Y66810000D02*
X2730000Y66810000D01*
X-5900000Y64270000D02*
X2730000Y64270000D01*
X-5900000Y61730000D02*
X2730000Y61730000D01*
X-5900000Y59190000D02*
X2730000Y59190000D01*
X-5900000Y56650000D02*
X2730000Y56650000D01*
X-5900000Y54110000D02*
X2730000Y54110000D01*
X-5900000Y51570000D02*
X2730000Y51570000D01*
X-5900000Y49030000D02*
X2730000Y49030000D01*
X-5900000Y110050000D02*
X2730000Y110050000D01*
X2730000Y110050000D02*
X2730000Y46430000D01*
X-5900000Y46430000D02*
X2730000Y46430000D01*
X-5900000Y110050000D02*
X-5900000Y46430000D01*
X7840000Y110050000D02*
X7840000Y108720000D01*
X6730000Y110050000D02*
X7840000Y110050000D01*
X68894000Y49281000D02*
X68894000Y54341000D01*
X17974000Y49281000D02*
X68894000Y49281000D01*
X17974000Y61401000D02*
X17974000Y49281000D01*
X68894000Y61401000D02*
X17974000Y61401000D01*
X68894000Y56341000D02*
X68894000Y61401000D01*
X68894000Y54341000D02*
G75*
G02*
X68894000Y56341000I0J1000000D01*
G01*
X51241000Y135991000D02*
X48581000Y135991000D01*
X51241000Y130851000D02*
X51241000Y135991000D01*
X48581000Y130851000D02*
X48581000Y135991000D01*
X51241000Y130851000D02*
X48581000Y130851000D01*
X51241000Y129581000D02*
X51241000Y128251000D01*
X51241000Y128251000D02*
X49911000Y128251000D01*
X61171000Y132121000D02*
G75*
G03*
X61171000Y132121000I-2620000J0D01*
G01*
X58551000Y134701000D02*
X58551000Y129541000D01*
X58591000Y134701000D02*
X58591000Y129541000D01*
X58631000Y134700000D02*
X58631000Y129542000D01*
X58671000Y134699000D02*
X58671000Y129543000D01*
X58711000Y134697000D02*
X58711000Y129545000D01*
X58751000Y134694000D02*
X58751000Y129548000D01*
X58791000Y134690000D02*
X58791000Y133161000D01*
X58791000Y131081000D02*
X58791000Y129552000D01*
X58831000Y134686000D02*
X58831000Y133161000D01*
X58831000Y131081000D02*
X58831000Y129556000D01*
X58871000Y134682000D02*
X58871000Y133161000D01*
X58871000Y131081000D02*
X58871000Y129560000D01*
X58911000Y134677000D02*
X58911000Y133161000D01*
X58911000Y131081000D02*
X58911000Y129565000D01*
X58951000Y134671000D02*
X58951000Y133161000D01*
X58951000Y131081000D02*
X58951000Y129571000D01*
X58991000Y134664000D02*
X58991000Y133161000D01*
X58991000Y131081000D02*
X58991000Y129578000D01*
X59031000Y134657000D02*
X59031000Y133161000D01*
X59031000Y131081000D02*
X59031000Y129585000D01*
X59071000Y134649000D02*
X59071000Y133161000D01*
X59071000Y131081000D02*
X59071000Y129593000D01*
X59111000Y134641000D02*
X59111000Y133161000D01*
X59111000Y131081000D02*
X59111000Y129601000D01*
X59151000Y134632000D02*
X59151000Y133161000D01*
X59151000Y131081000D02*
X59151000Y129610000D01*
X59191000Y134622000D02*
X59191000Y133161000D01*
X59191000Y131081000D02*
X59191000Y129620000D01*
X59231000Y134612000D02*
X59231000Y133161000D01*
X59231000Y131081000D02*
X59231000Y129630000D01*
X59272000Y134601000D02*
X59272000Y133161000D01*
X59272000Y131081000D02*
X59272000Y129641000D01*
X59312000Y134589000D02*
X59312000Y133161000D01*
X59312000Y131081000D02*
X59312000Y129653000D01*
X59352000Y134576000D02*
X59352000Y133161000D01*
X59352000Y131081000D02*
X59352000Y129666000D01*
X59392000Y134563000D02*
X59392000Y133161000D01*
X59392000Y131081000D02*
X59392000Y129679000D01*
X59432000Y134549000D02*
X59432000Y133161000D01*
X59432000Y131081000D02*
X59432000Y129693000D01*
X59472000Y134535000D02*
X59472000Y133161000D01*
X59472000Y131081000D02*
X59472000Y129707000D01*
X59512000Y134519000D02*
X59512000Y133161000D01*
X59512000Y131081000D02*
X59512000Y129723000D01*
X59552000Y134503000D02*
X59552000Y133161000D01*
X59552000Y131081000D02*
X59552000Y129739000D01*
X59592000Y134486000D02*
X59592000Y133161000D01*
X59592000Y131081000D02*
X59592000Y129756000D01*
X59632000Y134469000D02*
X59632000Y133161000D01*
X59632000Y131081000D02*
X59632000Y129773000D01*
X59672000Y134450000D02*
X59672000Y133161000D01*
X59672000Y131081000D02*
X59672000Y129792000D01*
X59712000Y134431000D02*
X59712000Y133161000D01*
X59712000Y131081000D02*
X59712000Y129811000D01*
X59752000Y134411000D02*
X59752000Y133161000D01*
X59752000Y131081000D02*
X59752000Y129831000D01*
X59792000Y134389000D02*
X59792000Y133161000D01*
X59792000Y131081000D02*
X59792000Y129853000D01*
X59832000Y134368000D02*
X59832000Y133161000D01*
X59832000Y131081000D02*
X59832000Y129874000D01*
X59872000Y134345000D02*
X59872000Y133161000D01*
X59872000Y131081000D02*
X59872000Y129897000D01*
X59912000Y134321000D02*
X59912000Y133161000D01*
X59912000Y131081000D02*
X59912000Y129921000D01*
X59952000Y134296000D02*
X59952000Y133161000D01*
X59952000Y131081000D02*
X59952000Y129946000D01*
X59992000Y134270000D02*
X59992000Y133161000D01*
X59992000Y131081000D02*
X59992000Y129972000D01*
X60032000Y134243000D02*
X60032000Y133161000D01*
X60032000Y131081000D02*
X60032000Y129999000D01*
X60072000Y134216000D02*
X60072000Y133161000D01*
X60072000Y131081000D02*
X60072000Y130026000D01*
X60112000Y134186000D02*
X60112000Y133161000D01*
X60112000Y131081000D02*
X60112000Y130056000D01*
X60152000Y134156000D02*
X60152000Y133161000D01*
X60152000Y131081000D02*
X60152000Y130086000D01*
X60192000Y134125000D02*
X60192000Y133161000D01*
X60192000Y131081000D02*
X60192000Y130117000D01*
X60232000Y134092000D02*
X60232000Y133161000D01*
X60232000Y131081000D02*
X60232000Y130150000D01*
X60272000Y134058000D02*
X60272000Y133161000D01*
X60272000Y131081000D02*
X60272000Y130184000D01*
X60312000Y134022000D02*
X60312000Y133161000D01*
X60312000Y131081000D02*
X60312000Y130220000D01*
X60352000Y133985000D02*
X60352000Y133161000D01*
X60352000Y131081000D02*
X60352000Y130257000D01*
X60392000Y133947000D02*
X60392000Y133161000D01*
X60392000Y131081000D02*
X60392000Y130295000D01*
X60432000Y133906000D02*
X60432000Y133161000D01*
X60432000Y131081000D02*
X60432000Y130336000D01*
X60472000Y133864000D02*
X60472000Y133161000D01*
X60472000Y131081000D02*
X60472000Y130378000D01*
X60512000Y133820000D02*
X60512000Y133161000D01*
X60512000Y131081000D02*
X60512000Y130422000D01*
X60552000Y133774000D02*
X60552000Y133161000D01*
X60552000Y131081000D02*
X60552000Y130468000D01*
X60592000Y133726000D02*
X60592000Y133161000D01*
X60592000Y131081000D02*
X60592000Y130516000D01*
X60632000Y133675000D02*
X60632000Y133161000D01*
X60632000Y131081000D02*
X60632000Y130567000D01*
X60672000Y133621000D02*
X60672000Y133161000D01*
X60672000Y131081000D02*
X60672000Y130621000D01*
X60712000Y133564000D02*
X60712000Y133161000D01*
X60712000Y131081000D02*
X60712000Y130678000D01*
X60752000Y133504000D02*
X60752000Y133161000D01*
X60752000Y131081000D02*
X60752000Y130738000D01*
X60792000Y133440000D02*
X60792000Y133161000D01*
X60792000Y131081000D02*
X60792000Y130802000D01*
X60832000Y133372000D02*
X60832000Y133161000D01*
X60832000Y131081000D02*
X60832000Y130870000D01*
X60872000Y133299000D02*
X60872000Y130943000D01*
X60912000Y133219000D02*
X60912000Y131023000D01*
X60952000Y133132000D02*
X60952000Y131110000D01*
X60992000Y133036000D02*
X60992000Y131206000D01*
X61032000Y132926000D02*
X61032000Y131316000D01*
X61072000Y132798000D02*
X61072000Y131444000D01*
X61112000Y132639000D02*
X61112000Y131603000D01*
X61152000Y132405000D02*
X61152000Y131837000D01*
X55746225Y133596000D02*
X56246225Y133596000D01*
X55996225Y133846000D02*
X55996225Y133346000D01*
X68453000Y87671000D02*
X70993000Y87671000D01*
X70993000Y87671000D02*
X70993000Y90338000D01*
X68453000Y90338000D02*
X40386000Y90338000D01*
X73660000Y90338000D02*
X70993000Y90338000D01*
X70993000Y74971000D02*
X70993000Y72301000D01*
X70993000Y74971000D02*
X40386000Y74971000D01*
X40386000Y90338000D02*
X40386000Y72301000D01*
X68453000Y87671000D02*
X68453000Y90338000D01*
X68453000Y87671000D02*
X40386000Y87671000D01*
X40386000Y72304000D02*
X73660000Y72304000D01*
X73660000Y72304000D02*
X73660000Y90338000D01*
X35025000Y87398000D02*
X35025000Y83158000D01*
X32285000Y87398000D02*
X32285000Y83158000D01*
X35025000Y87398000D02*
X34320000Y87398000D01*
X32990000Y87398000D02*
X32285000Y87398000D01*
X35025000Y83158000D02*
X34320000Y83158000D01*
X32990000Y83158000D02*
X32285000Y83158000D01*
X35025000Y75333000D02*
X35025000Y71093000D01*
X32285000Y75333000D02*
X32285000Y71093000D01*
X35025000Y75333000D02*
X34320000Y75333000D01*
X32990000Y75333000D02*
X32285000Y75333000D01*
X35025000Y71093000D02*
X34320000Y71093000D01*
X32990000Y71093000D02*
X32285000Y71093000D01*
X31810000Y83008000D02*
X31810000Y84258000D01*
X13910000Y83008000D02*
X31810000Y83008000D01*
X13910000Y87508000D02*
X13910000Y83008000D01*
X31810000Y87508000D02*
X13910000Y87508000D01*
X31810000Y86258000D02*
X31810000Y87508000D01*
X31810000Y84258000D02*
G75*
G02*
X31810000Y86258000I0J1000000D01*
G01*
X31810000Y74193000D02*
X31810000Y75443000D01*
X31810000Y75443000D02*
X13910000Y75443000D01*
X13910000Y75443000D02*
X13910000Y70943000D01*
X13910000Y70943000D02*
X31810000Y70943000D01*
X31810000Y70943000D02*
X31810000Y72193000D01*
X31810000Y72193000D02*
G75*
G02*
X31810000Y74193000I0J1000000D01*
G01*
X42660000Y109635000D02*
X45320000Y109635000D01*
X42660000Y109635000D02*
X42660000Y96875000D01*
X42660000Y96875000D02*
X45320000Y96875000D01*
X45320000Y109635000D02*
X45320000Y96875000D01*
X45320000Y112235000D02*
X45320000Y110905000D01*
X43990000Y112235000D02*
X45320000Y112235000D01*
X9116325Y11303000D02*
X9549338Y11553000D01*
X9549338Y11053000D02*
X9116325Y11303000D01*
X9549338Y11553000D02*
X9549338Y11053000D01*
X8655000Y133000D02*
X55000Y133000D01*
X8655000Y31103000D02*
X8655000Y133000D01*
X55000Y31103000D02*
X8655000Y31103000D01*
X21182000Y18383000D02*
X20852000Y18383000D01*
X21182000Y11843000D02*
X21182000Y18383000D01*
X20852000Y11843000D02*
X21182000Y11843000D01*
X18442000Y18383000D02*
X18772000Y18383000D01*
X18442000Y11843000D02*
X18442000Y18383000D01*
X18772000Y11843000D02*
X18442000Y11843000D01*
X12168000Y16415000D02*
X11838000Y16415000D01*
X11838000Y16415000D02*
X11838000Y22955000D01*
X11838000Y22955000D02*
X12168000Y22955000D01*
X14248000Y16415000D02*
X14578000Y16415000D01*
X14578000Y16415000D02*
X14578000Y22955000D01*
X14578000Y22955000D02*
X14248000Y22955000D01*
X17880000Y20669000D02*
X17550000Y20669000D01*
X17880000Y14129000D02*
X17880000Y20669000D01*
X17550000Y14129000D02*
X17880000Y14129000D01*
X15140000Y20669000D02*
X15470000Y20669000D01*
X15140000Y14129000D02*
X15140000Y20669000D01*
X15470000Y14129000D02*
X15140000Y14129000D01*
X30420000Y42550000D02*
X30420000Y37350000D01*
X66040000Y42550000D02*
X30420000Y42550000D01*
X68640000Y37350000D02*
X30420000Y37350000D01*
X66040000Y42550000D02*
X66040000Y39950000D01*
X66040000Y39950000D02*
X68640000Y39950000D01*
X68640000Y39950000D02*
X68640000Y37350000D01*
X67310000Y42550000D02*
X68640000Y42550000D01*
X68640000Y42550000D02*
X68640000Y41220000D01*
X68640000Y6990000D02*
X68640000Y5660000D01*
X67310000Y6990000D02*
X68640000Y6990000D01*
X68640000Y4390000D02*
X68640000Y1790000D01*
X66040000Y4390000D02*
X68640000Y4390000D01*
X66040000Y6990000D02*
X66040000Y4390000D01*
X68640000Y1790000D02*
X30420000Y1790000D01*
X66040000Y6990000D02*
X30420000Y6990000D01*
X30420000Y6990000D02*
X30420000Y1790000D01*
X21450000Y105538000D02*
X21450000Y101298000D01*
X18710000Y105538000D02*
X18710000Y101298000D01*
X21450000Y105538000D02*
X20745000Y105538000D01*
X19415000Y105538000D02*
X18710000Y105538000D01*
X21450000Y101298000D02*
X20745000Y101298000D01*
X19415000Y101298000D02*
X18710000Y101298000D01*
D10*
X-8500000Y134850000D02*
X-8500000Y143150000D01*
X-8500000Y143150000D02*
X500000Y143150000D01*
X-8500000Y134850000D02*
X450000Y134850000D01*
X1000000Y136000000D02*
X1000000Y142000000D01*
X3000000Y144000000D02*
X11000000Y144000000D01*
X3000000Y134000000D02*
X11000000Y134000000D01*
X11000000Y140000000D02*
X11000000Y144000000D01*
X11000000Y134000000D02*
X11000000Y138000000D01*
D12*
X25565000Y109208000D02*
X25895000Y109208000D01*
X25895000Y109208000D02*
X25895000Y102668000D01*
X25895000Y102668000D02*
X25565000Y102668000D01*
X23485000Y109208000D02*
X23155000Y109208000D01*
X23155000Y109208000D02*
X23155000Y102668000D01*
X23155000Y102668000D02*
X23485000Y102668000D01*
X69525000Y127775000D02*
X68025000Y127775000D01*
X65525000Y126525000D02*
X65525000Y122025000D01*
X68025000Y120775000D02*
X69525000Y120775000D01*
X72025000Y122025000D02*
X72025000Y126525000D01*
X72025000Y132575000D02*
X72025000Y137075000D01*
X68025000Y131325000D02*
X69525000Y131325000D01*
X65525000Y137075000D02*
X65525000Y132575000D01*
X69525000Y138325000D02*
X68025000Y138325000D01*
D10*
X22608333Y128612381D02*
X22608333Y129326667D01*
X22655952Y129469524D01*
X22751190Y129564762D01*
X22894047Y129612381D01*
X22989285Y129612381D01*
X22227380Y128612381D02*
X21608333Y128612381D01*
X21941666Y128993334D01*
X21798809Y128993334D01*
X21703571Y129040953D01*
X21655952Y129088572D01*
X21608333Y129183810D01*
X21608333Y129421905D01*
X21655952Y129517143D01*
X21703571Y129564762D01*
X21798809Y129612381D01*
X22084523Y129612381D01*
X22179761Y129564762D01*
X22227380Y129517143D01*
X68032380Y97251667D02*
X68746666Y97251667D01*
X68889523Y97204048D01*
X68984761Y97108810D01*
X69032380Y96965953D01*
X69032380Y96870715D01*
X68127619Y97680239D02*
X68080000Y97727858D01*
X68032380Y97823096D01*
X68032380Y98061191D01*
X68080000Y98156429D01*
X68127619Y98204048D01*
X68222857Y98251667D01*
X68318095Y98251667D01*
X68460952Y98204048D01*
X69032380Y97632620D01*
X69032380Y98251667D01*
X59221666Y97308096D02*
X59221666Y97784286D01*
X59507380Y97212858D02*
X58507380Y97546191D01*
X59507380Y97879524D01*
X58983571Y98212858D02*
X58983571Y98546191D01*
X59507380Y98689048D02*
X59507380Y98212858D01*
X58507380Y98212858D01*
X58507380Y98689048D01*
X59126428Y99117620D02*
X59126428Y99879524D01*
X59507380Y100355715D02*
X58840714Y100355715D01*
X58935952Y100355715D02*
X58888333Y100403334D01*
X58840714Y100498572D01*
X58840714Y100641429D01*
X58888333Y100736667D01*
X58983571Y100784286D01*
X59507380Y100784286D01*
X58983571Y100784286D02*
X58888333Y100831905D01*
X58840714Y100927143D01*
X58840714Y101070000D01*
X58888333Y101165239D01*
X58983571Y101212858D01*
X59507380Y101212858D01*
X59507380Y101689048D02*
X58840714Y101689048D01*
X58507380Y101689048D02*
X58555000Y101641429D01*
X58602619Y101689048D01*
X58555000Y101736667D01*
X58507380Y101689048D01*
X58602619Y101689048D01*
X59459761Y102593810D02*
X59507380Y102498572D01*
X59507380Y102308096D01*
X59459761Y102212858D01*
X59412142Y102165239D01*
X59316904Y102117620D01*
X59031190Y102117620D01*
X58935952Y102165239D01*
X58888333Y102212858D01*
X58840714Y102308096D01*
X58840714Y102498572D01*
X58888333Y102593810D01*
X59507380Y103022381D02*
X58840714Y103022381D01*
X59031190Y103022381D02*
X58935952Y103070000D01*
X58888333Y103117620D01*
X58840714Y103212858D01*
X58840714Y103308096D01*
X59507380Y103784286D02*
X59459761Y103689048D01*
X59412142Y103641429D01*
X59316904Y103593810D01*
X59031190Y103593810D01*
X58935952Y103641429D01*
X58888333Y103689048D01*
X58840714Y103784286D01*
X58840714Y103927143D01*
X58888333Y104022381D01*
X58935952Y104070000D01*
X59031190Y104117620D01*
X59316904Y104117620D01*
X59412142Y104070000D01*
X59459761Y104022381D01*
X59507380Y103927143D01*
X59507380Y103784286D01*
X59459761Y104498572D02*
X59507380Y104641429D01*
X59507380Y104879524D01*
X59459761Y104974762D01*
X59412142Y105022381D01*
X59316904Y105070000D01*
X59221666Y105070000D01*
X59126428Y105022381D01*
X59078809Y104974762D01*
X59031190Y104879524D01*
X58983571Y104689048D01*
X58935952Y104593810D01*
X58888333Y104546191D01*
X58793095Y104498572D01*
X58697857Y104498572D01*
X58602619Y104546191D01*
X58555000Y104593810D01*
X58507380Y104689048D01*
X58507380Y104927143D01*
X58555000Y105070000D01*
X59507380Y105498572D02*
X58507380Y105498572D01*
X58507380Y105736667D01*
X58555000Y105879524D01*
X58650238Y105974762D01*
X58745476Y106022381D01*
X58935952Y106070000D01*
X59078809Y106070000D01*
X59269285Y106022381D01*
X59364523Y105974762D01*
X59459761Y105879524D01*
X59507380Y105736667D01*
X59507380Y105498572D01*
X59126428Y106498572D02*
X59126428Y107260477D01*
X59507380Y108212858D02*
X59507380Y107736667D01*
X58507380Y107736667D01*
X59507380Y109022381D02*
X59507380Y108546191D01*
X58507380Y108546191D01*
X59412142Y109927143D02*
X59459761Y109879524D01*
X59507380Y109736667D01*
X59507380Y109641429D01*
X59459761Y109498572D01*
X59364523Y109403334D01*
X59269285Y109355715D01*
X59078809Y109308096D01*
X58935952Y109308096D01*
X58745476Y109355715D01*
X58650238Y109403334D01*
X58555000Y109498572D01*
X58507380Y109641429D01*
X58507380Y109736667D01*
X58555000Y109879524D01*
X58602619Y109927143D01*
X59507380Y110355715D02*
X58507380Y110355715D01*
X59507380Y110927143D01*
X58507380Y110927143D01*
X58507380Y111260477D02*
X59507380Y111593810D01*
X58507380Y111927143D01*
X15327333Y57396858D02*
X15279714Y57349239D01*
X15136857Y57301620D01*
X15041619Y57301620D01*
X14898761Y57349239D01*
X14803523Y57444477D01*
X14755904Y57539715D01*
X14708285Y57730191D01*
X14708285Y57873048D01*
X14755904Y58063524D01*
X14803523Y58158762D01*
X14898761Y58254000D01*
X15041619Y58301620D01*
X15136857Y58301620D01*
X15279714Y58254000D01*
X15327333Y58206381D01*
X15660666Y58301620D02*
X16279714Y58301620D01*
X15946380Y57920667D01*
X16089238Y57920667D01*
X16184476Y57873048D01*
X16232095Y57825429D01*
X16279714Y57730191D01*
X16279714Y57492096D01*
X16232095Y57396858D01*
X16184476Y57349239D01*
X16089238Y57301620D01*
X15803523Y57301620D01*
X15708285Y57349239D01*
X15660666Y57396858D01*
X35356666Y122317620D02*
X35356666Y121603334D01*
X35309047Y121460477D01*
X35213809Y121365239D01*
X35070952Y121317620D01*
X34975714Y121317620D01*
X36261428Y121984286D02*
X36261428Y121317620D01*
X36023333Y122365239D02*
X35785238Y121650953D01*
X36404285Y121650953D01*
X896666Y111767620D02*
X896666Y111053334D01*
X849047Y110910477D01*
X753809Y110815239D01*
X610952Y110767620D01*
X515714Y110767620D01*
X1896666Y110767620D02*
X1325238Y110767620D01*
X1610952Y110767620D02*
X1610952Y111767620D01*
X1515714Y111624762D01*
X1420476Y111529524D01*
X1325238Y111481905D01*
X36243095Y45267620D02*
X36243095Y44458096D01*
X36290714Y44362858D01*
X36338333Y44315239D01*
X36433571Y44267620D01*
X36624047Y44267620D01*
X36719285Y44315239D01*
X36766904Y44362858D01*
X36814523Y44458096D01*
X36814523Y45267620D01*
X37195476Y45267620D02*
X37814523Y45267620D01*
X37481190Y44886667D01*
X37624047Y44886667D01*
X37719285Y44839048D01*
X37766904Y44791429D01*
X37814523Y44696191D01*
X37814523Y44458096D01*
X37766904Y44362858D01*
X37719285Y44315239D01*
X37624047Y44267620D01*
X37338333Y44267620D01*
X37243095Y44315239D01*
X37195476Y44362858D01*
X52855761Y126279096D02*
X52903380Y126421953D01*
X52903380Y126660048D01*
X52855761Y126755286D01*
X52808142Y126802905D01*
X52712904Y126850524D01*
X52617666Y126850524D01*
X52522428Y126802905D01*
X52474809Y126755286D01*
X52427190Y126660048D01*
X52379571Y126469572D01*
X52331952Y126374334D01*
X52284333Y126326715D01*
X52189095Y126279096D01*
X52093857Y126279096D01*
X51998619Y126326715D01*
X51951000Y126374334D01*
X51903380Y126469572D01*
X51903380Y126707667D01*
X51951000Y126850524D01*
X52903380Y127802905D02*
X52903380Y127231477D01*
X52903380Y127517191D02*
X51903380Y127517191D01*
X52046238Y127421953D01*
X52141476Y127326715D01*
X52189095Y127231477D01*
X58531333Y128080858D02*
X58483714Y128033239D01*
X58340857Y127985620D01*
X58245619Y127985620D01*
X58102761Y128033239D01*
X58007523Y128128477D01*
X57959904Y128223715D01*
X57912285Y128414191D01*
X57912285Y128557048D01*
X57959904Y128747524D01*
X58007523Y128842762D01*
X58102761Y128938000D01*
X58245619Y128985620D01*
X58340857Y128985620D01*
X58483714Y128938000D01*
X58531333Y128890381D01*
X59388476Y128985620D02*
X59198000Y128985620D01*
X59102761Y128938000D01*
X59055142Y128890381D01*
X58959904Y128747524D01*
X58912285Y128557048D01*
X58912285Y128176096D01*
X58959904Y128080858D01*
X59007523Y128033239D01*
X59102761Y127985620D01*
X59293238Y127985620D01*
X59388476Y128033239D01*
X59436095Y128080858D01*
X59483714Y128176096D01*
X59483714Y128414191D01*
X59436095Y128509429D01*
X59388476Y128557048D01*
X59293238Y128604667D01*
X59102761Y128604667D01*
X59007523Y128557048D01*
X58959904Y128509429D01*
X58912285Y128414191D01*
X50165095Y71708620D02*
X50165095Y70899096D01*
X50212714Y70803858D01*
X50260333Y70756239D01*
X50355571Y70708620D01*
X50546047Y70708620D01*
X50641285Y70756239D01*
X50688904Y70803858D01*
X50736523Y70899096D01*
X50736523Y71708620D01*
X51641285Y71375286D02*
X51641285Y70708620D01*
X51403190Y71756239D02*
X51165095Y71041953D01*
X51784142Y71041953D01*
X33488333Y88202858D02*
X33440714Y88155239D01*
X33297857Y88107620D01*
X33202619Y88107620D01*
X33059761Y88155239D01*
X32964523Y88250477D01*
X32916904Y88345715D01*
X32869285Y88536191D01*
X32869285Y88679048D01*
X32916904Y88869524D01*
X32964523Y88964762D01*
X33059761Y89060000D01*
X33202619Y89107620D01*
X33297857Y89107620D01*
X33440714Y89060000D01*
X33488333Y89012381D01*
X34440714Y88107620D02*
X33869285Y88107620D01*
X34155000Y88107620D02*
X34155000Y89107620D01*
X34059761Y88964762D01*
X33964523Y88869524D01*
X33869285Y88821905D01*
X33488333Y75756858D02*
X33440714Y75709239D01*
X33297857Y75661620D01*
X33202619Y75661620D01*
X33059761Y75709239D01*
X32964523Y75804477D01*
X32916904Y75899715D01*
X32869285Y76090191D01*
X32869285Y76233048D01*
X32916904Y76423524D01*
X32964523Y76518762D01*
X33059761Y76614000D01*
X33202619Y76661620D01*
X33297857Y76661620D01*
X33440714Y76614000D01*
X33488333Y76566381D01*
X34393095Y76661620D02*
X33916904Y76661620D01*
X33869285Y76185429D01*
X33916904Y76233048D01*
X34012142Y76280667D01*
X34250238Y76280667D01*
X34345476Y76233048D01*
X34393095Y76185429D01*
X34440714Y76090191D01*
X34440714Y75852096D01*
X34393095Y75756858D01*
X34345476Y75709239D01*
X34250238Y75661620D01*
X34012142Y75661620D01*
X33916904Y75709239D01*
X33869285Y75756858D01*
X18669095Y79836620D02*
X18669095Y79027096D01*
X18716714Y78931858D01*
X18764333Y78884239D01*
X18859571Y78836620D01*
X19050047Y78836620D01*
X19145285Y78884239D01*
X19192904Y78931858D01*
X19240523Y79027096D01*
X19240523Y79836620D01*
X20240523Y78836620D02*
X19669095Y78836620D01*
X19954809Y78836620D02*
X19954809Y79836620D01*
X19859571Y79693762D01*
X19764333Y79598524D01*
X19669095Y79550905D01*
X20066095Y67644620D02*
X20066095Y66835096D01*
X20113714Y66739858D01*
X20161333Y66692239D01*
X20256571Y66644620D01*
X20447047Y66644620D01*
X20542285Y66692239D01*
X20589904Y66739858D01*
X20637523Y66835096D01*
X20637523Y67644620D01*
X21542285Y67644620D02*
X21351809Y67644620D01*
X21256571Y67597000D01*
X21208952Y67549381D01*
X21113714Y67406524D01*
X21066095Y67216048D01*
X21066095Y66835096D01*
X21113714Y66739858D01*
X21161333Y66692239D01*
X21256571Y66644620D01*
X21447047Y66644620D01*
X21542285Y66692239D01*
X21589904Y66739858D01*
X21637523Y66835096D01*
X21637523Y67073191D01*
X21589904Y67168429D01*
X21542285Y67216048D01*
X21447047Y67263667D01*
X21256571Y67263667D01*
X21161333Y67216048D01*
X21113714Y67168429D01*
X21066095Y67073191D01*
X43656666Y114222620D02*
X43656666Y113508334D01*
X43609047Y113365477D01*
X43513809Y113270239D01*
X43370952Y113222620D01*
X43275714Y113222620D01*
X44609047Y114222620D02*
X44132857Y114222620D01*
X44085238Y113746429D01*
X44132857Y113794048D01*
X44228095Y113841667D01*
X44466190Y113841667D01*
X44561428Y113794048D01*
X44609047Y113746429D01*
X44656666Y113651191D01*
X44656666Y113413096D01*
X44609047Y113317858D01*
X44561428Y113270239D01*
X44466190Y113222620D01*
X44228095Y113222620D01*
X44132857Y113270239D01*
X44085238Y113317858D01*
X9047380Y15284667D02*
X9761666Y15284667D01*
X9904523Y15237048D01*
X9999761Y15141810D01*
X10047380Y14998953D01*
X10047380Y14903715D01*
X9475952Y15903715D02*
X9428333Y15808477D01*
X9380714Y15760858D01*
X9285476Y15713239D01*
X9237857Y15713239D01*
X9142619Y15760858D01*
X9095000Y15808477D01*
X9047380Y15903715D01*
X9047380Y16094191D01*
X9095000Y16189429D01*
X9142619Y16237048D01*
X9237857Y16284667D01*
X9285476Y16284667D01*
X9380714Y16237048D01*
X9428333Y16189429D01*
X9475952Y16094191D01*
X9475952Y15903715D01*
X9523571Y15808477D01*
X9571190Y15760858D01*
X9666428Y15713239D01*
X9856904Y15713239D01*
X9952142Y15760858D01*
X9999761Y15808477D01*
X10047380Y15903715D01*
X10047380Y16094191D01*
X9999761Y16189429D01*
X9952142Y16237048D01*
X9856904Y16284667D01*
X9666428Y16284667D01*
X9571190Y16237048D01*
X9523571Y16189429D01*
X9475952Y16094191D01*
X20137380Y8723334D02*
X19661190Y8390000D01*
X20137380Y8151905D02*
X19137380Y8151905D01*
X19137380Y8532858D01*
X19185000Y8628096D01*
X19232619Y8675715D01*
X19327857Y8723334D01*
X19470714Y8723334D01*
X19565952Y8675715D01*
X19613571Y8628096D01*
X19661190Y8532858D01*
X19661190Y8151905D01*
X20137380Y9675715D02*
X20137380Y9104286D01*
X20137380Y9390000D02*
X19137380Y9390000D01*
X19280238Y9294762D01*
X19375476Y9199524D01*
X19423095Y9104286D01*
X13787380Y13168334D02*
X13311190Y12835000D01*
X13787380Y12596905D02*
X12787380Y12596905D01*
X12787380Y12977858D01*
X12835000Y13073096D01*
X12882619Y13120715D01*
X12977857Y13168334D01*
X13120714Y13168334D01*
X13215952Y13120715D01*
X13263571Y13073096D01*
X13311190Y12977858D01*
X13311190Y12596905D01*
X12882619Y13549286D02*
X12835000Y13596905D01*
X12787380Y13692143D01*
X12787380Y13930239D01*
X12835000Y14025477D01*
X12882619Y14073096D01*
X12977857Y14120715D01*
X13073095Y14120715D01*
X13215952Y14073096D01*
X13787380Y13501667D01*
X13787380Y14120715D01*
X16962380Y10628334D02*
X16486190Y10295000D01*
X16962380Y10056905D02*
X15962380Y10056905D01*
X15962380Y10437858D01*
X16010000Y10533096D01*
X16057619Y10580715D01*
X16152857Y10628334D01*
X16295714Y10628334D01*
X16390952Y10580715D01*
X16438571Y10533096D01*
X16486190Y10437858D01*
X16486190Y10056905D01*
X15962380Y10961667D02*
X15962380Y11580715D01*
X16343333Y11247381D01*
X16343333Y11390239D01*
X16390952Y11485477D01*
X16438571Y11533096D01*
X16533809Y11580715D01*
X16771904Y11580715D01*
X16867142Y11533096D01*
X16914761Y11485477D01*
X16962380Y11390239D01*
X16962380Y11104524D01*
X16914761Y11009286D01*
X16867142Y10961667D01*
X69092380Y38166667D02*
X69806666Y38166667D01*
X69949523Y38119048D01*
X70044761Y38023810D01*
X70092380Y37880953D01*
X70092380Y37785715D01*
X69092380Y39071429D02*
X69092380Y38880953D01*
X69140000Y38785715D01*
X69187619Y38738096D01*
X69330476Y38642858D01*
X69520952Y38595239D01*
X69901904Y38595239D01*
X69997142Y38642858D01*
X70044761Y38690477D01*
X70092380Y38785715D01*
X70092380Y38976191D01*
X70044761Y39071429D01*
X69997142Y39119048D01*
X69901904Y39166667D01*
X69663809Y39166667D01*
X69568571Y39119048D01*
X69520952Y39071429D01*
X69473333Y38976191D01*
X69473333Y38785715D01*
X69520952Y38690477D01*
X69568571Y38642858D01*
X69663809Y38595239D01*
X69452380Y5166667D02*
X70166666Y5166667D01*
X70309523Y5119048D01*
X70404761Y5023810D01*
X70452380Y4880953D01*
X70452380Y4785715D01*
X69452380Y5547620D02*
X69452380Y6214286D01*
X70452380Y5785715D01*
X19913333Y99230858D02*
X19865714Y99183239D01*
X19722857Y99135620D01*
X19627619Y99135620D01*
X19484761Y99183239D01*
X19389523Y99278477D01*
X19341904Y99373715D01*
X19294285Y99564191D01*
X19294285Y99707048D01*
X19341904Y99897524D01*
X19389523Y99992762D01*
X19484761Y100088000D01*
X19627619Y100135620D01*
X19722857Y100135620D01*
X19865714Y100088000D01*
X19913333Y100040381D01*
X20294285Y100040381D02*
X20341904Y100088000D01*
X20437142Y100135620D01*
X20675238Y100135620D01*
X20770476Y100088000D01*
X20818095Y100040381D01*
X20865714Y99945143D01*
X20865714Y99849905D01*
X20818095Y99707048D01*
X20246666Y99135620D01*
X20865714Y99135620D01*
X12202380Y138766667D02*
X12916666Y138766667D01*
X13059523Y138719048D01*
X13154761Y138623810D01*
X13202380Y138480953D01*
X13202380Y138385715D01*
X13202380Y139290477D02*
X13202380Y139480953D01*
X13154761Y139576191D01*
X13107142Y139623810D01*
X12964285Y139719048D01*
X12773809Y139766667D01*
X12392857Y139766667D01*
X12297619Y139719048D01*
X12250000Y139671429D01*
X12202380Y139576191D01*
X12202380Y139385715D01*
X12250000Y139290477D01*
X12297619Y139242858D01*
X12392857Y139195239D01*
X12630952Y139195239D01*
X12726190Y139242858D01*
X12773809Y139290477D01*
X12821428Y139385715D01*
X12821428Y139576191D01*
X12773809Y139671429D01*
X12726190Y139719048D01*
X12630952Y139766667D01*
X24231333Y99389620D02*
X23898000Y99865810D01*
X23659904Y99389620D02*
X23659904Y100389620D01*
X24040857Y100389620D01*
X24136095Y100342000D01*
X24183714Y100294381D01*
X24231333Y100199143D01*
X24231333Y100056286D01*
X24183714Y99961048D01*
X24136095Y99913429D01*
X24040857Y99865810D01*
X23659904Y99865810D01*
X25088476Y100056286D02*
X25088476Y99389620D01*
X24850380Y100437239D02*
X24612285Y99722953D01*
X25231333Y99722953D01*
X64929761Y122941667D02*
X64977380Y123084524D01*
X64977380Y123322620D01*
X64929761Y123417858D01*
X64882142Y123465477D01*
X64786904Y123513096D01*
X64691666Y123513096D01*
X64596428Y123465477D01*
X64548809Y123417858D01*
X64501190Y123322620D01*
X64453571Y123132143D01*
X64405952Y123036905D01*
X64358333Y122989286D01*
X64263095Y122941667D01*
X64167857Y122941667D01*
X64072619Y122989286D01*
X64025000Y123036905D01*
X63977380Y123132143D01*
X63977380Y123370239D01*
X64025000Y123513096D01*
X63977380Y123846429D02*
X64977380Y124084524D01*
X64263095Y124275000D01*
X64977380Y124465477D01*
X63977380Y124703572D01*
X64977380Y125608334D02*
X64977380Y125036905D01*
X64977380Y125322620D02*
X63977380Y125322620D01*
X64120238Y125227381D01*
X64215476Y125132143D01*
X64263095Y125036905D01*
X64929761Y133491667D02*
X64977380Y133634524D01*
X64977380Y133872620D01*
X64929761Y133967858D01*
X64882142Y134015477D01*
X64786904Y134063096D01*
X64691666Y134063096D01*
X64596428Y134015477D01*
X64548809Y133967858D01*
X64501190Y133872620D01*
X64453571Y133682143D01*
X64405952Y133586905D01*
X64358333Y133539286D01*
X64263095Y133491667D01*
X64167857Y133491667D01*
X64072619Y133539286D01*
X64025000Y133586905D01*
X63977380Y133682143D01*
X63977380Y133920239D01*
X64025000Y134063096D01*
X63977380Y134396429D02*
X64977380Y134634524D01*
X64263095Y134825000D01*
X64977380Y135015477D01*
X63977380Y135253572D01*
X64072619Y135586905D02*
X64025000Y135634524D01*
X63977380Y135729762D01*
X63977380Y135967858D01*
X64025000Y136063096D01*
X64072619Y136110715D01*
X64167857Y136158334D01*
X64263095Y136158334D01*
X64405952Y136110715D01*
X64977380Y135539286D01*
X64977380Y136158334D01*
M02*
