M48
; DRILL file {KiCad (5.1.9)-1} date 04/13/26 15:19:10
; FORMAT={-:-/ absolute / metric / decimal}
; #@! TF.CreationDate,2026-04-13T15:19:10+09:00
; #@! TF.GenerationSoftware,Kicad,Pcbnew,(5.1.9)-1
FMAT,2
METRIC
T1C0.300
T2C0.800
T3C1.000
T4C1.100
T5C1.200
T6C3.200
T7C2.100
T8C3.200
%
G90
G05
T1
X10.323Y52.312
X12.703Y51.031
X12.775Y86.523
X13.922Y73.717
X17.369Y63.687
X17.854Y59.547
X26.889Y53.787
X30.075Y10.79
X32.09Y53.564
X35.196Y10.166
X35.804Y44.715
X35.977Y53.544
X37.803Y53.306
X40.589Y52.449
X41.034Y53.672
X41.8Y54.459
X42.779Y54.859
X56.596Y92.191
T2
X13.208Y23.495
X13.208Y15.875
X15.24Y89.068
X15.24Y81.448
X15.24Y77.003
X15.24Y69.383
X15.494Y55.936
X15.494Y53.436
X16.51Y21.209
X16.51Y13.589
X17.78Y89.068
X17.78Y81.448
X17.78Y77.003
X17.78Y69.383
X19.304Y62.961
X19.304Y47.721
X19.812Y18.923
X19.812Y11.303
X20.08Y104.668
X20.08Y102.168
X20.32Y89.068
X20.32Y81.448
X20.32Y77.003
X20.32Y69.383
X21.844Y62.961
X21.844Y47.721
X22.86Y89.068
X22.86Y81.448
X22.86Y77.003
X22.86Y69.383
X24.384Y62.961
X24.384Y47.721
X24.525Y109.748
X24.525Y102.128
X25.4Y89.068
X25.4Y81.448
X25.4Y77.003
X25.4Y69.383
X26.924Y62.961
X26.924Y47.721
X27.94Y89.068
X27.94Y81.448
X27.94Y77.003
X27.94Y69.383
X29.464Y62.961
X29.464Y47.721
X30.48Y89.068
X30.48Y81.448
X30.48Y77.003
X30.48Y69.383
X32.004Y62.961
X32.004Y47.721
X33.655Y86.528
X33.655Y84.028
X33.655Y74.463
X33.655Y71.963
X34.544Y62.961
X34.544Y47.721
X37.084Y62.961
X37.084Y47.721
X39.624Y62.961
X39.624Y47.721
X41.783Y88.941
X41.783Y73.701
X42.164Y62.961
X42.164Y47.721
X44.323Y88.941
X44.323Y73.701
X44.704Y62.961
X44.704Y47.721
X46.863Y88.941
X46.863Y73.701
X47.244Y62.961
X47.244Y47.721
X48.133Y76.241
X49.403Y88.941
X49.403Y73.701
X49.784Y62.961
X49.784Y47.721
X50.673Y76.241
X51.943Y88.941
X51.943Y73.701
X52.324Y62.961
X52.324Y47.721
X54.483Y88.941
X54.483Y73.701
X54.864Y62.961
X54.864Y47.721
X57.023Y88.941
X57.023Y73.701
X57.301Y132.121
X57.404Y62.961
X57.404Y47.721
X58.293Y76.241
X59.563Y88.941
X59.563Y73.701
X59.801Y132.121
X59.944Y62.961
X59.944Y47.721
X60.833Y76.241
X62.103Y88.941
X62.103Y73.701
X62.484Y62.961
X62.484Y47.721
X64.643Y88.941
X64.643Y73.701
X65.024Y62.961
X65.024Y47.721
X67.183Y88.941
X67.183Y73.701
X67.564Y62.961
X67.564Y47.721
X69.723Y88.941
X69.723Y73.701
T3
X3.025Y20.463
X3.025Y18.173
X3.025Y15.883
X3.025Y13.593
X3.025Y11.303
X4.19Y108.72
X4.19Y106.18
X4.19Y103.64
X4.19Y101.1
X4.19Y98.56
X4.19Y96.02
X4.19Y93.48
X4.19Y90.94
X4.19Y88.4
X4.19Y85.86
X4.19Y83.32
X4.19Y80.78
X4.19Y78.24
X4.19Y75.7
X4.19Y73.16
X4.19Y70.62
X4.19Y68.08
X4.19Y65.54
X4.19Y63.0
X4.19Y60.46
X4.19Y57.92
X4.19Y55.38
X4.19Y52.84
X4.19Y50.3
X4.19Y47.76
X5.005Y19.318
X5.005Y17.028
X5.005Y14.738
X5.005Y12.448
X5.005Y10.158
X6.73Y108.72
X6.73Y106.18
X6.73Y103.64
X6.73Y101.1
X6.73Y98.56
X6.73Y96.02
X6.73Y93.48
X6.73Y90.94
X6.73Y88.4
X6.73Y85.86
X6.73Y83.32
X6.73Y80.78
X6.73Y78.24
X6.73Y75.7
X6.73Y73.16
X6.73Y70.62
X6.73Y68.08
X6.73Y65.54
X6.73Y63.0
X6.73Y60.46
X6.73Y57.92
X6.73Y55.38
X6.73Y52.84
X6.73Y50.3
X6.73Y47.76
X6.985Y20.463
X6.985Y18.173
X6.985Y15.883
X6.985Y13.593
X6.985Y11.303
X25.0Y125.0
X27.54Y125.0
X31.75Y41.22
X31.75Y38.68
X31.75Y5.66
X31.75Y3.12
X34.29Y41.22
X34.29Y38.68
X34.29Y5.66
X34.29Y3.12
X36.83Y41.22
X36.83Y38.68
X36.83Y5.66
X36.83Y3.12
X39.37Y41.22
X39.37Y38.68
X39.37Y5.66
X39.37Y3.12
X41.91Y41.22
X41.91Y38.68
X41.91Y5.66
X41.91Y3.12
X43.99Y110.905
X43.99Y108.365
X43.99Y105.825
X43.99Y103.285
X43.99Y100.745
X43.99Y98.205
X44.45Y41.22
X44.45Y38.68
X44.45Y5.66
X44.45Y3.12
X46.99Y41.22
X46.99Y38.68
X46.99Y5.66
X46.99Y3.12
X49.53Y41.22
X49.53Y38.68
X49.53Y5.66
X49.53Y3.12
X49.911Y134.661
X49.911Y132.121
X49.911Y129.581
X52.07Y114.73
X52.07Y112.19
X52.07Y109.65
X52.07Y107.11
X52.07Y104.57
X52.07Y102.03
X52.07Y99.49
X52.07Y96.95
X52.07Y94.41
X52.07Y41.22
X52.07Y38.68
X52.07Y5.66
X52.07Y3.12
X54.61Y41.22
X54.61Y38.68
X54.61Y5.66
X54.61Y3.12
X57.15Y41.22
X57.15Y38.68
X57.15Y5.66
X57.15Y3.12
X59.69Y41.22
X59.69Y38.68
X59.69Y5.66
X59.69Y3.12
X62.23Y41.22
X62.23Y38.68
X62.23Y5.66
X62.23Y3.12
X64.77Y41.22
X64.77Y38.68
X64.77Y5.66
X64.77Y3.12
X67.31Y41.22
X67.31Y38.68
X67.31Y5.66
X67.31Y3.12
X77.47Y114.73
X77.47Y94.41
X80.01Y114.73
X80.01Y94.41
T4
X66.525Y138.075
X66.525Y131.575
X66.525Y127.525
X66.525Y121.025
X71.025Y138.075
X71.025Y131.575
X71.025Y127.525
X71.025Y121.025
T6
X4.935Y28.118
X4.935Y3.118
T7
X1.85Y143.25
X1.85Y134.75
T8
X18.0Y140.0
X18.0Y5.0
X77.0Y140.0
X77.0Y5.0
T3
G00X34.485Y128.86
M15
G01X34.485Y126.86
M16
G05
G00X40.185Y130.86
M15
G01X38.185Y130.86
M16
G05
G00X40.185Y124.86
M15
G01X38.185Y124.86
M16
G05
T5
G00X5.0Y138.25
M15
G01X5.0Y139.75
M16
G05
G00X10.25Y139.0
M15
G01X8.75Y139.0
M16
G05
T0
M30
